<svg viewBox="0 0 83 114" fill="none" xmlns="http://www.w3.org/2000/svg">
<path d="M16.3819 58.5346C16.2215 56.5231 15.8174 54.5246 16.0547 52.5001C16.2921 49.418 16.9207 46.3748 17.1323 43.2926C17.7417 36.5768 17.902 29.7767 19.3837 23.1776C19.7108 22.5807 19.9546 25.4162 19.9802 25.5849C20.2368 28.9201 19.6082 32.1969 19.4094 35.5192C19.1464 39.2631 18.9283 43.0201 18.4601 46.7446C18.2099 48.503 17.9405 50.2615 17.7866 52.0394C17.6904 54.278 16.8501 56.3803 16.3819 58.5411V58.5346Z" fill="#b80049" stroke="#b80049" stroke-width="0.5"></path>
<path d="M21.0579 23.9108C20.4422 23.8459 19.7751 23.7356 19.2427 23.3982C19.1144 23.3008 19.1721 23.0478 19.3068 22.9829C19.7494 22.7882 20.3395 22.6779 20.7821 22.5741C22.0265 22.2821 23.2195 21.8084 24.4831 21.5813C26.2663 21.218 28.0687 20.9 29.8647 20.608C31.7055 20.3874 33.5592 20.2966 35.3809 19.9592C38.402 19.4595 41.3974 18.7912 44.4313 18.3889C47.3883 18.0645 50.3581 17.8763 53.3215 17.7011C55.0661 17.6362 56.7787 17.9736 58.5106 18.0645C56.5927 18.311 54.6941 18.8172 52.7762 19.1286C50.9289 19.3557 49.0945 19.6412 47.2664 19.9851C44.7905 20.4328 42.3018 20.7703 39.8323 21.2504C36.8497 21.8084 33.8671 22.4119 30.8268 22.5936C28.3894 22.8791 25.984 23.3852 23.5466 23.6707C22.7192 23.781 21.8918 23.9627 21.0579 23.9043V23.9108Z" fill="#b80049" stroke="#b80049" stroke-width="0.5"></path>
<path d="M48.6775 43.7792C48.5428 42.9487 48.2285 42.1635 48.1194 41.3265C47.8757 39.5875 48.3696 37.8615 48.3888 36.1161C48.53 33.7801 48.6647 31.4053 49.3959 29.1667C49.6011 28.972 49.5562 29.5171 49.5883 29.6144C49.6396 30.0426 49.6845 30.4709 49.7358 30.8992C49.9988 32.703 50.095 34.5199 50.0181 36.3367C49.986 37.9459 49.8192 39.5681 49.3766 41.1189C49.1329 42.0143 48.8314 42.8643 48.6903 43.7727L48.6775 43.7792Z" fill="#b80049" stroke="#b80049" stroke-width="0.5"></path>
<path d="M29.8649 47.1338C29.2363 47.0689 28.5948 47.004 27.9727 46.9521C29.7879 46.0762 31.6288 45.2132 33.63 44.8693C37.0808 44.162 40.5381 43.4288 44.0595 43.1562C45.4706 43.0265 46.8882 43.2146 48.2993 43.2146C48.3314 43.1303 48.4468 43.1498 48.4404 43.2406C48.5046 43.578 47.4975 43.7856 47.2474 43.9089C44.2904 44.8822 41.2244 45.4338 38.1713 46.0113C35.426 46.5239 32.6871 47.4323 29.8713 47.1273L29.8649 47.1338Z" fill="#b80049" stroke="#b80049" stroke-width="0.5"></path>
<path d="M55.329 53.0192C55.2906 51.17 54.9506 49.3596 55.034 47.5233C55.1815 44.9862 55.6241 42.4037 55.9576 39.8991C56.0859 39.0426 56.2655 38.1926 56.3938 37.3361C56.5798 36.1032 56.6824 35.0066 56.8685 33.8841C57.2661 31.4832 57.5612 29.0435 58.3822 26.74C58.4079 26.6686 58.5169 26.6492 58.5233 26.74C58.549 27.0385 58.5554 27.337 58.5746 27.629C58.7093 29.7702 58.7093 31.9245 58.4399 34.0528C58.2347 36.0772 58.0038 38.0952 57.6189 40.0938C57.2405 42.527 57.0352 44.9927 56.5991 47.413C56.2014 49.2818 55.6369 51.1181 55.3355 53.0063L55.329 53.0192Z" fill="#b80049" stroke="#b80049" stroke-width="0.5"></path>
<path d="M41.6668 66.7299C41.3204 66.5871 41.0574 66.3406 40.8393 66.0421C39.8259 64.8547 39.2614 63.3752 38.6906 61.9347C38.1005 60.4618 37.6515 58.9435 37.2923 57.3991C37.1961 56.9579 37.0742 56.5232 36.9716 56.0884C36.9716 56.0625 36.9716 56.0235 37.0036 56.0106C37.2089 55.8743 37.6835 57.0682 37.7862 57.2499C38.2608 58.3465 38.7098 59.4496 39.1973 60.5462C39.6848 61.6557 40.1787 62.7653 40.711 63.8554C41.0959 64.7768 41.6732 65.7047 41.6668 66.7299Z" fill="#b80049" stroke="#b80049" stroke-width="0.5"></path>
<path d="M45.3422 68.7217C44.8996 68.7412 44.4891 68.5465 44.0657 68.4168C43.4628 68.2286 42.8791 67.9171 42.3788 67.5992C41.8785 67.2228 41.4936 66.7881 41.2884 66.2106C41.282 66.1911 41.2948 66.1652 41.3204 66.1717C42.5712 66.3014 43.6103 67.0996 44.5532 67.8717C44.8932 68.1183 45.1946 68.3973 45.4448 68.7282C45.4127 68.7282 45.3742 68.7217 45.3357 68.7217H45.3422Z" fill="#b80049" stroke="#b80049" stroke-width="0.5"></path>
<path d="M36.9459 56.27C36.9074 56.1402 36.7599 56.1013 36.7022 55.9845C36.4712 55.4914 36.7663 54.8685 36.9459 54.3948C37.0742 54.1028 37.2153 53.8108 37.3821 53.5383C37.6579 53.0646 38.1454 52.7142 38.3249 52.1886C38.357 52.0199 38.4853 52.0459 38.4468 52.2211C38.2223 53.0841 38.2801 53.9925 37.985 54.8425C37.8695 55.2124 37.7413 55.6017 37.4847 55.9002C37.3436 56.0818 37.1062 56.1273 36.9395 56.27H36.9459Z" fill="#b80049" stroke="#b80049" stroke-width="0.5"></path>
<path d="M38.2737 52.2146C38.2737 52.2146 38.2801 52.2146 38.2865 52.2146C38.3058 52.2276 38.3378 52.2146 38.3635 52.2081C38.7034 52.0329 39.0177 51.8318 39.3577 51.6566C40.2877 51.1829 41.3589 51.157 42.3724 51.0272C43.8797 50.8974 45.4448 50.4172 46.9393 50.852C46.4262 51.0402 45.8617 51.0207 45.3229 51.0856C44.4057 51.1829 43.4884 51.3257 42.584 51.5073C41.3461 51.715 40.153 52.1432 38.8894 52.1952C38.7163 52.2211 38.5367 52.2406 38.3635 52.2406C38.3314 52.2406 38.2993 52.2406 38.2801 52.2081L38.2737 52.2146Z" fill="#b80049" stroke="#b80049" stroke-width="0.5"></path>
<path d="M38.4147 52.2535C38.4147 52.2535 38.3826 52.247 38.3634 52.2405C38.3634 52.2405 38.3955 52.2535 38.3826 52.26C38.2928 52.26 38.3698 52.2016 38.4083 52.1692C38.6007 51.4619 39.7745 51.4814 40.3518 51.2672C41.2819 50.9428 42.2632 51.0077 43.219 50.8844C44.4633 50.5859 45.8231 50.3977 47.0098 50.9687C46.2208 51.4619 45.2779 51.6111 44.3735 51.7474C43.8989 51.8058 43.405 51.7539 42.9432 51.8382C42.0708 52.0329 41.2113 52.3314 40.3133 52.3443C39.8579 52.3119 38.6328 52.7402 38.4211 52.2535H38.4147Z" fill="#b80049" stroke="#b80049" stroke-width="0.5"></path>
<path d="M51.3522 53.8172C50.3708 53.5382 49.4087 53.0969 48.5428 52.5519C48.0296 52.2404 47.632 51.7927 47.215 51.371C47.029 51.2152 46.9007 51.0465 46.7725 50.8583C46.7789 50.8389 46.8238 50.8778 46.7981 50.8648C47.7923 51.0854 48.7545 51.4748 49.5242 52.1626C50.1335 52.7141 50.8583 53.1813 51.3522 53.8237V53.8172Z" fill="#b80049" stroke="#b80049" stroke-width="0.5"></path>
<path d="M55.5536 63.3102C54.0847 61.8503 53.4177 59.8388 52.5902 57.9765C52.122 56.9253 51.9231 55.8352 51.6153 54.7386C51.4741 54.3169 51.2753 53.9211 51.1663 53.4863C51.6602 54.0249 52.0001 54.7062 52.4619 55.2837C52.9879 56.0169 53.3471 56.854 53.6999 57.6845C54.5145 59.5143 55.2457 61.3831 55.5536 63.3102Z" fill="#b80049" stroke="#b80049" stroke-width="0.5"></path>
<path d="M54.1489 66.9958C54.1681 66.7427 54.0976 66.5091 54.1553 66.2625C54.2836 65.7434 54.3862 65.2049 54.6813 64.7507C54.8031 64.5106 54.9314 64.277 55.1238 64.0823C55.3098 63.7644 55.4766 63.427 55.6562 63.1025C55.6562 63.4789 55.669 64.0045 55.6241 64.4327C55.6562 64.6988 55.5728 64.9972 55.4959 65.2308C55.4061 65.711 55.111 66.1003 54.8224 66.4832C54.7454 66.587 54.6684 66.6973 54.5594 66.7751C54.4183 66.8725 54.2707 66.9049 54.136 66.9893L54.1489 66.9958Z" fill="#b80049" stroke="#b80049" stroke-width="0.5"></path>
<path d="M55.6562 63.3686C55.4381 63.135 55.2393 62.8495 55.2778 62.5186C55.56 62.6873 55.6626 63.0896 55.6562 63.3686Z" fill="#b80049" stroke="#b80049" stroke-width="0.5"></path>
<path d="M46.1439 68.9101C45.913 68.8452 45.6949 68.7479 45.4447 68.7544C45.3549 68.7608 45.3742 68.657 45.4447 68.7024C45.7783 68.5986 45.9515 68.2547 46.2978 68.1769C47.8373 67.6448 49.4344 67.3658 51.0444 67.236C51.6858 67.1711 52.3208 67.0284 52.943 66.8467C53.424 66.6974 53.8987 66.5547 54.4054 66.5547C53.9115 67.0349 53.1739 67.0154 52.5645 67.2684C51.4677 67.6772 50.4286 68.2612 49.2869 68.5402C48.2606 68.7673 47.1958 68.936 46.1375 68.9101H46.1439Z" fill="#b80049" stroke="#b80049" stroke-width="0.5"></path>
<path d="M47.7859 68.4687C49.4728 68.021 51.1469 67.424 52.8531 67.0088C53.3214 66.866 53.8024 66.8011 54.2835 66.7297C54.3091 66.7297 54.3348 66.7492 54.3348 66.7752C54.2578 66.8984 54.0782 66.9179 53.9435 66.9568C53.501 67.0217 53.084 67.1775 52.6543 67.2943C51.0507 67.7485 49.4472 68.313 47.7859 68.4687Z" fill="#b80049" stroke="#b80049" stroke-width="0.5"></path>
<path d="M44.5532 63.7514C44.0657 63.1804 43.7835 62.4667 43.3666 61.8438C42.4237 60.3773 41.8207 58.6773 41.8656 56.9188C41.8592 56.8994 41.84 56.8734 41.8464 56.8475C41.8464 56.841 41.8528 56.8345 41.8656 56.8345C42.7764 57.5288 43.1934 58.6838 43.5975 59.7155C43.8348 60.3578 43.8733 61.0327 44.008 61.675C44.1234 62.3888 44.4313 63.0506 44.5596 63.7449L44.5532 63.7514Z" fill="#b80049" stroke="#b80049" stroke-width="0.5"></path>
<path d="M51.7627 62.6613C51.2624 62.0514 50.993 61.2857 50.5312 60.6433C49.8256 59.7284 49.4792 58.5929 49.1393 57.4963C48.9789 56.9123 49.0046 56.3608 48.9148 55.7963C48.8571 55.4653 48.7224 55.1539 48.6454 54.8295C48.6454 54.8035 48.6454 54.7905 48.6646 54.7905C48.6775 54.7905 48.6518 54.797 48.6518 54.8035C48.8699 55.1409 49.0302 55.5173 49.2612 55.8482C49.4857 56.1337 49.7294 56.4062 49.9218 56.7242C50.2233 57.2303 50.4606 57.7753 50.6787 58.3204C51.0315 59.0406 51.0764 59.8322 51.1918 60.6109C51.3394 61.3052 51.705 61.9411 51.7691 62.6548L51.7627 62.6613Z" fill="#b80049" stroke="#b80049" stroke-width="0.5"></path>
<path d="M47.2151 65.218C46.9842 65.1986 46.7404 65.231 46.5288 65.1207C46.0926 64.9001 45.6821 64.6341 45.2972 64.3291C44.8226 64.0825 44.643 63.518 44.2389 63.2065C44.7264 63.3298 45.2074 63.6153 45.6564 63.8814C46.285 64.1734 46.9136 64.5692 47.2151 65.218Z" fill="#b80049" stroke="#b80049" stroke-width="0.5"></path>
<path d="M47.0932 65.0816C47.0932 65.0816 47.0419 65.0686 47.0162 65.0816C47.3754 64.9778 47.6512 64.6793 47.9784 64.4976C48.5813 64.1343 49.2227 63.7839 49.9219 63.6736C50.1977 63.6346 50.4735 63.6022 50.7365 63.4919C50.6595 63.0442 50.7621 62.4147 51.2047 62.1812C51.4164 62.0644 51.6858 62.1422 51.7628 62.3823C51.9552 62.83 51.6794 63.3037 51.333 63.5827C51.2175 63.6865 51.0379 63.7709 50.8904 63.706C50.2169 63.998 49.6717 64.4976 48.9726 64.7442C48.3889 64.9972 47.741 65.2633 47.106 65.0816H47.0932Z" fill="#b80049" stroke="#b80049" stroke-width="0.5"></path>
<path d="M41.9105 57.2238C41.6539 56.4452 42.0259 55.6211 42.398 54.9528C42.4493 54.862 42.5198 54.7776 42.5583 54.6803C42.5712 54.6608 42.6032 54.6413 42.6161 54.6673C42.661 55.1345 42.6353 55.6276 42.4878 56.0818C42.3402 56.4906 42.1478 56.8799 41.9105 57.2238Z" fill="#b80049" stroke="#b80049" stroke-width="0.5"></path>
<path d="M42.3082 55.0371C42.4365 54.7776 42.6161 54.5635 42.8598 54.4077C43.5076 53.8692 44.1811 53.2787 45.0599 53.2268C45.2459 53.1749 45.387 53.2528 45.5602 53.2398C45.5858 53.2333 45.6243 53.2268 45.6179 53.2527C45.6179 53.2527 45.5987 53.3047 45.5923 53.2917C45.5923 53.2917 45.5923 53.2722 45.5923 53.2657C45.3164 53.9341 44.6878 54.3883 44.0015 54.5635C43.4371 54.7322 42.8726 54.9333 42.3018 55.0371H42.3082Z" fill="#b80049" stroke="#b80049" stroke-width="0.5"></path>
<path d="M48.8186 55.1928C48.0938 54.9982 47.3561 54.7905 46.7596 54.2974C46.3234 53.9859 45.8424 53.7329 45.4768 53.3371C45.4768 53.3436 45.496 53.3436 45.5088 53.35C45.4896 53.35 45.4639 53.3565 45.4575 53.3306C45.4575 53.3046 45.4832 53.2916 45.5024 53.2852C45.9642 53.2981 46.3812 53.5512 46.8173 53.6875C47.3305 53.8886 47.9013 54.0249 48.2926 54.4401C48.5428 54.6283 48.6967 54.9073 48.8122 55.1799L48.8186 55.1928Z" fill="#b80049" stroke="#b80049" stroke-width="0.5"></path>
<path d="M41.5321 66.5158C41.7309 66.107 42.026 65.7631 42.2826 65.3932C42.6674 64.7898 43.1613 64.2642 43.7514 63.8684C43.9695 63.7062 44.2132 63.5959 44.457 63.492C44.4762 63.4726 44.5083 63.492 44.5083 63.518C44.4121 64.4913 43.5333 65.1661 42.8149 65.7177C42.4109 66.0226 42.0003 66.3471 41.5321 66.5158Z" fill="#b80049" stroke="#b80049" stroke-width="0.5"></path>
<path d="M45.246 68.8322C45.246 68.7673 45.246 68.6894 45.2395 68.631C45.1113 67.7875 45.3614 66.905 45.8425 66.2172C46.1568 65.763 46.4518 65.1531 47.0419 65.0687C47.0868 64.9584 47.151 65.0168 47.1574 65.1076C47.1895 65.1855 47.2215 65.2504 47.2344 65.3347C47.3691 66.1199 46.7854 66.7363 46.4647 67.3982C46.2658 67.8199 45.9387 68.1379 45.6436 68.4883C45.5282 68.631 45.355 68.6894 45.246 68.8386V68.8322Z" fill="#b80049" stroke="#b80049" stroke-width="0.5"></path>
<path d="M54.3734 66.8206C54.027 66.8401 53.7191 66.7038 53.4241 66.5416C52.4491 66.0809 51.6345 65.3087 51.0572 64.3938C50.9482 64.1927 50.8263 63.9785 50.8712 63.7449C50.8712 63.7125 50.8712 63.6865 50.852 63.6671C50.8391 63.6736 50.8199 63.719 50.8007 63.6995C50.8071 63.6022 50.9097 63.6606 50.9674 63.6671C51.3523 63.6995 51.6666 63.9785 51.9809 64.1862C52.6223 64.6598 53.1996 65.2114 53.732 65.8019C53.9244 66.0355 54.1617 66.2301 54.2964 66.5026C54.3477 66.6194 54.367 66.7362 54.4375 66.8401C54.4119 66.8401 54.3798 66.8271 54.3477 66.8271H54.3541L54.3734 66.8206Z" fill="#b80049" stroke="#b80049" stroke-width="0.5"></path>
<path d="M54.7197 63.5048C54.0077 63.4919 53.3086 63.2842 52.712 62.8819C52.2823 62.6224 51.9231 62.2395 51.4677 62.0319C51.4613 62.0319 51.442 62.0319 51.4356 62.0319C51.4164 61.9995 51.5703 62.006 51.596 62.006C52.34 61.9216 53.1033 61.9411 53.7896 62.272C54.4503 62.5445 54.9699 63.0506 55.5471 63.427C55.2841 63.4789 54.9955 63.5113 54.7133 63.5113L54.7197 63.5048Z" fill="#b80049" stroke="#b80049" stroke-width="0.5"></path>
<path d="M49.0303 55.2902C48.979 55.2707 48.8443 55.3356 48.8763 55.2383C48.9405 55.128 48.9212 54.9982 49.0046 54.8944C49.1265 54.7322 49.2163 54.531 49.3895 54.4142C49.5883 54.278 49.8128 54.2261 50.0437 54.1871C50.4222 54.0703 50.7814 53.8692 51.1726 53.8108C51.0187 54.1936 50.6659 54.4337 50.4029 54.7257C50.2169 54.9398 50.0245 55.1604 49.7487 55.2448C49.5178 55.2902 49.2612 55.3291 49.0303 55.2772V55.2902Z" fill="#b80049" stroke="#b80049" stroke-width="0.5"></path>
<path d="M45.5602 53.4086C45.5602 53.4086 45.5474 53.3891 45.5602 53.4021C45.6244 53.2983 45.618 53.1815 45.6116 53.0647C45.6565 52.3769 46.1247 51.8124 46.5673 51.3257C46.5545 51.3387 46.548 51.3452 46.5416 51.3517C46.5416 51.3517 46.548 51.3387 46.5545 51.3387C46.6892 51.183 46.8623 51.0856 46.997 50.9429C46.965 51.5463 46.7084 52.1238 46.4005 52.6299C46.2273 52.9025 45.9964 53.1425 45.7078 53.2918C45.6757 53.3177 45.65 53.3372 45.6244 53.3567C45.6116 53.3632 45.5795 53.4151 45.5538 53.4021L45.5602 53.4086Z" fill="#b80049" stroke="#b80049" stroke-width="0.5"></path>
<path d="M42.4621 55.076C41.5641 54.9527 40.711 54.518 40.1145 53.8237C39.6655 53.2916 39.1139 52.8439 38.62 52.3767C40.3005 52.9672 41.5385 53.2202 42.4814 54.9138C42.5583 54.9917 42.6738 55.1344 42.4621 55.0825V55.076Z" fill="#b80049" stroke="#b80049" stroke-width="0.5"></path>
<path d="M40.0632 57.2953C39.4475 57.2174 38.8317 57.0877 38.2929 56.7697C37.908 56.5686 37.4975 56.4063 37.2089 56.0624C37.1961 56.0495 37.1768 56.0365 37.1704 56.0235C37.1897 56.0235 37.2089 56.0105 37.2281 56.004C37.427 55.9067 37.6322 55.8094 37.8631 55.8159C38.8638 55.7575 39.8772 56.043 40.7495 56.5426C41.1344 56.7892 41.577 57.0877 42.0388 57.0552C41.9875 57.1331 41.8592 57.1461 41.7694 57.1655C41.205 57.2758 40.6405 57.3796 40.0632 57.2953Z" fill="#b80049" stroke="#b80049" stroke-width="0.5"></path>
<path d="M30.2816 74.964C30.0827 74.6201 30.0314 74.2438 30.0122 73.848C29.9608 73.277 29.9352 72.693 30.0186 72.122C30.3585 70.0067 31.7953 68.3131 32.8152 66.4898C33.4245 65.5424 33.9697 64.5561 34.3867 63.505C34.8998 62.2397 35.3937 60.9679 35.8234 59.6702C35.9966 59.0343 36.1185 58.2426 36.2981 57.6522C36.4584 57.0682 36.5803 56.5945 36.792 56.0559C36.8433 55.9197 36.8946 55.7704 37.0037 55.6796C37.1191 55.6472 37.0678 55.8613 37.0293 55.9132C37.0101 56.5102 37.2153 57.1266 37.1704 57.7171C37.1384 58.3984 37.0678 59.0862 36.9267 59.7545C36.6188 60.9095 36.1634 62.0385 35.7208 63.1416C35.0794 64.6664 34.021 65.9253 33.386 67.4371C32.4111 69.4811 30.9871 71.3628 30.6536 73.6663C30.6536 73.6663 30.6536 73.6533 30.6536 73.6468C30.583 74.1075 30.5253 74.5682 30.2751 74.9575L30.2816 74.964Z" fill="#b80049" stroke="#b80049" stroke-width="0.5"></path>
<path d="M34.1172 74.036C34.1557 72.3035 34.9831 70.6813 36.0415 69.3641C37.459 67.729 39.5757 66.7816 41.686 66.5416C41.7373 66.5286 41.7758 66.5091 41.8207 66.4832C41.8271 66.4832 41.8335 66.4832 41.8271 66.4961C41.5833 67.0152 41.1728 67.4175 40.7046 67.7355C40.2748 68.021 39.8002 68.2286 39.3448 68.4622C38.6456 68.8256 37.9785 69.2538 37.3051 69.6691C36.7085 70.0325 36.1184 70.4218 35.6694 70.9668C35.3038 71.4146 34.9831 71.9077 34.7522 72.4398C34.5277 72.9719 34.4187 73.5494 34.1236 74.0425L34.1172 74.036Z" fill="#b80049" stroke="#b80049" stroke-width="0.5"></path>
<path d="M58.3181 68.1834C57.9524 67.9238 57.6574 67.5929 57.3752 67.2425C56.9839 66.8272 56.5606 66.4379 56.2527 65.9513C56.1052 65.7307 56.0154 65.4646 55.8807 65.2505C55.7075 65.0039 55.5022 64.7768 55.2649 64.5951C55.2649 64.5822 55.2905 64.5887 55.2777 64.5951C55.9961 64.8352 56.7081 65.2116 57.1827 65.828C57.7344 66.5028 58.1769 67.3269 58.3245 68.1899L58.3181 68.1834Z" fill="#b80049" stroke="#b80049" stroke-width="0.5"></path>
<path d="M61.506 67.6771C60.8517 67.5213 60.2745 67.1385 59.7934 66.6713C59.3765 66.2301 59.0365 65.724 58.6324 65.2698C57.991 64.5106 57.4073 63.6995 56.7017 63.0052C56.2656 62.6029 55.7973 62.246 55.374 61.8307C55.2072 61.701 55.0725 61.5712 54.9122 61.4414C54.8993 61.4349 54.9122 61.4155 54.925 61.422C55.4638 61.662 56.0282 61.8632 56.5414 62.1487C57.5741 62.843 58.7094 63.6087 59.5112 64.5625C60.3386 65.4709 61.1276 66.5026 61.5124 67.6836L61.506 67.6771Z" fill="#b80049" stroke="#b80049" stroke-width="0.5"></path>
<path d="M26.8564 77.9746C27.2926 76.8456 28.3124 76.0929 29.2361 75.3857C31.4105 73.6986 34.0082 73.2444 36.5932 72.589C39.6014 71.765 42.5648 70.7462 45.6436 70.2077C47.0484 69.9287 48.4338 69.5718 49.7936 69.1176C51.8526 68.566 54.0527 68.2156 56.1437 67.9237C57.3175 67.7095 58.4977 67.5408 59.6844 67.45C60.4861 67.3591 61.2879 67.3267 62.0897 67.4305C64.1102 67.7225 66.2205 67.995 68.0164 69.0462C67.0928 68.9813 66.1884 68.6374 65.2647 68.4947C64.5271 68.3649 63.7831 68.3454 63.039 68.3649C62.2821 68.3843 61.5188 68.3454 60.762 68.4492C59.7421 68.6374 58.7735 69.0073 57.7729 69.2538C56.2977 69.5912 54.8352 69.9481 53.4048 70.4478C51.4998 71.0512 49.5307 71.434 47.5551 71.7195C46.4647 71.9207 45.3935 72.2192 44.3095 72.4722C42.2505 73.0303 40.1338 73.3287 38.0684 73.8738C35.9774 74.4578 33.9184 75.1391 31.8082 75.6517C30.8781 75.9242 29.9673 76.2616 29.1078 76.7094C28.3509 77.1311 27.6838 77.7411 26.85 77.9876L26.8564 77.9746Z" fill="#b80049" stroke="#b80049" stroke-width="0.5"></path>
<path d="M31.8273 83.1267C31.404 83.0293 31.0384 82.7763 30.7112 82.4973C30.1019 82.0041 29.5054 81.4915 28.8896 81.0113C27.5747 79.9667 26.3367 78.8376 25.1437 77.6567C23.8865 76.3914 22.4754 75.3078 21.1989 74.0749C19.4543 72.2776 17.902 70.2855 16.5294 68.1832C16.2023 67.729 15.8559 67.2877 15.5352 66.8335C15.4646 66.7362 15.3364 66.587 15.3877 66.4572C15.4005 66.4183 15.439 66.3988 15.4839 66.4053C15.8623 66.5091 16.0996 66.879 16.2472 67.2164C16.1253 67.1126 16.0034 66.9503 15.8623 66.853C17.4146 68.4168 19.3645 69.4939 21.0001 70.9668C22.0777 71.9466 23.1745 72.9135 24.3291 73.8024C25.644 74.8536 26.8499 76.0215 28.0429 77.2025C29.2809 78.3964 30.2879 79.798 31.4232 81.0892C32.0197 81.6343 32.5714 82.2831 32.6291 83.1332C32.3661 83.1851 32.1031 83.1916 31.8401 83.1267H31.8273Z" fill="#b80049" stroke="#b80049" stroke-width="0.5"></path>
<path d="M32.1289 83.1009C32.1096 82.9906 32.2315 82.9257 32.3213 82.8998C33.1872 82.6856 34.0595 82.504 34.9126 82.2509C36.8882 81.6799 38.8381 81.044 40.8137 80.4925C44.085 79.5711 47.4332 78.9611 50.775 78.4031C52.7377 78.0332 54.553 77.605 56.4387 77.034C57.016 76.8458 57.5933 76.6576 58.177 76.476C58.7864 76.2683 59.4085 76.0931 60.0628 76.1515C59.2802 77.021 58.1321 77.3519 57.1187 77.8516C55.2008 78.721 53.1675 79.2596 51.1278 79.7592C48.421 80.4535 45.7398 81.2387 43.0074 81.8097C39.5245 82.491 35.971 82.6272 32.4752 83.0685C32.379 83.1204 32.1866 83.2631 32.1289 83.1009Z" fill="#b80049" stroke="#b80049" stroke-width="0.5"></path>
<path d="M34.6368 82.9515C33.8799 82.919 33.1102 83.0034 32.3597 82.8866C32.1352 82.8217 31.6413 82.6855 31.7696 82.3675C31.7696 82.5297 31.9171 82.5881 32.0647 82.6271C32.5842 82.7438 33.123 82.6725 33.649 82.6271C34.6175 82.4973 35.5732 82.3026 36.5097 82.0171C37.6771 81.6537 38.7547 81.4461 39.9285 81.1995C40.4224 81.0568 40.9419 81.1087 41.4422 81.1736C41.1921 81.4331 40.9227 81.6992 40.5892 81.8484C38.7034 82.5946 36.6765 83.0618 34.6432 82.9515H34.6368Z" fill="#b80049" stroke="#b80049" stroke-width="0.5"></path>
<path d="M35.445 82.8087C34.3802 82.7957 33.3347 82.5881 32.2828 82.4583C32.1417 82.4259 31.3976 82.4064 31.5451 82.2117C31.59 82.1728 31.667 82.1793 31.7376 82.1923C32.0134 82.1793 32.2828 82.1533 32.5522 82.1014C33.8286 81.7186 35.0345 81.0957 36.3558 80.8426C38.0876 80.369 39.8708 80.2327 41.6539 80.2067C42.212 80.1419 42.7572 80.3106 43.2511 80.5117C43.0073 80.8102 42.7829 81.1411 42.4301 81.3098C41.7245 81.6407 40.9869 81.9133 40.2492 82.1728C38.7034 82.6789 37.0614 82.8541 35.445 82.8152V82.8087Z" fill="#b80049" stroke="#b80049" stroke-width="0.5"></path>
<path d="M33.1615 82.8866C32.937 82.8671 32.7189 82.8347 32.5008 82.8087L32.5521 82.7828C32.488 82.7438 32.4367 82.6725 32.4559 82.5946C32.4559 82.5751 32.4688 82.5622 32.4752 82.5492C32.4752 82.5492 32.4752 82.5492 32.4752 82.5427C32.4239 82.4908 32.4367 82.4064 32.488 82.361C32.5586 82.2961 32.6548 82.3026 32.7382 82.3156C32.9178 82.3286 33.0974 82.3415 33.2769 82.361C33.386 82.374 33.4309 82.5167 33.386 82.6076C33.4052 82.6076 33.4245 82.6076 33.4373 82.6206C33.4245 82.6206 33.4116 82.6271 33.3988 82.6335C33.463 82.7763 33.2962 82.8996 33.1615 82.8801V82.8866Z" fill="#b80049" stroke="#b80049" stroke-width="0.5"></path>
<path d="M47.3048 103.566C47.029 103.514 46.7532 103.43 46.4902 103.339C47.1381 102.801 47.9783 102.723 48.7737 102.554C49.5883 102.405 50.4029 102.262 51.2175 102.126C54.4823 101.62 57.7279 100.984 60.9222 100.147C63.3853 99.4978 65.9189 99.2902 68.4333 98.9268C70.5436 98.6024 72.6667 98.3623 74.7962 98.3298C75.2324 98.3298 75.6685 98.2909 76.1047 98.3104C76.3484 98.3169 76.5601 98.3947 76.791 98.3558C76.8102 98.3558 76.8359 98.3688 76.8295 98.3883C76.2779 98.8749 75.5595 99.1345 74.886 99.4135C74.1227 99.7055 73.353 99.9715 72.5704 100.205C68.5744 101.425 64.4051 101.977 60.2551 102.327C57.2405 102.606 54.3156 103.281 51.3201 103.462C49.986 103.514 48.639 103.67 47.3048 103.573V103.566Z" fill="#b80049" stroke="#b80049" stroke-width="0.5"></path>
<path d="M9.8266 67.2035C9.75604 67.0867 9.71756 66.9504 9.71114 66.8141C9.70473 66.6649 9.74321 66.5351 9.80736 66.3989C9.83301 66.347 9.8715 66.3015 9.90357 66.2496C10.1217 65.8992 10.5578 65.7435 10.9363 65.9511C10.9876 65.9771 11.0389 66.016 11.0838 66.055C11.7958 66.055 12.5013 66.0095 13.2133 65.9317C14.0023 65.8214 14.7848 65.6851 15.5609 65.5034C16.3948 65.3152 17.2222 65.1011 18.056 64.9129C18.8706 64.7313 19.6917 64.595 20.5191 64.4523C21.3209 64.316 22.1227 64.1408 22.918 63.9721C23.7775 63.7839 24.6434 63.5893 25.4965 63.3816C26.2727 63.187 27.0488 62.9988 27.8377 62.8301C28.6459 62.6549 29.4541 62.4667 30.2623 62.2785C31.744 61.9346 33.2449 61.7205 34.7458 61.4869C34.8934 61.4674 35.0345 61.4415 35.182 61.4155C35.5989 61.3507 35.9966 61.6232 36.0736 62.0449C36.1441 62.4602 35.8619 62.882 35.445 62.9469C34.0531 63.1675 32.6548 63.3686 31.2758 63.6476C30.4932 63.8034 29.7171 64.0045 28.9346 64.1797C28.1328 64.3614 27.3246 64.5301 26.5228 64.7248L26.4715 64.7378C25.6377 64.9454 24.8038 65.1401 23.97 65.3282C23.2002 65.4969 22.4305 65.6851 21.6608 65.8279C20.8526 65.9771 20.038 66.1004 19.2363 66.2626C18.396 66.4313 17.5621 66.626 16.7283 66.8271C15.4775 67.1321 14.2203 67.3851 12.9439 67.5214C12.3474 67.5863 11.738 67.5993 11.1351 67.6058C11.0517 67.6058 10.9683 67.6058 10.8849 67.6058C10.4873 67.6058 10.0639 67.5668 9.83301 67.1905L9.8266 67.2035Z" fill="#b80049" stroke="#b80049" stroke-width="0.5"></path>
<path d="M10.8336 67.2294C9.53154 67.3787 10.2499 65.6916 10.9042 66.4573C13.7072 66.5351 16.3948 65.6592 19.1144 65.1076C24.5344 64.2317 29.7941 62.5316 35.2397 61.8114C35.7208 61.7205 35.8683 62.4927 35.3744 62.577C33.1872 62.9015 31.0063 63.2648 28.864 63.8099C25.6697 64.5172 22.5075 65.3542 19.2747 65.8668C16.4781 66.4443 13.72 67.3203 10.8336 67.2294Z" fill="#b80049" stroke="#b80049" stroke-width="0.5"></path>
<path d="M53.1996 59.1641C52.9045 58.9824 52.7313 58.6579 52.8083 58.3075C52.8211 58.2556 52.834 58.2102 52.8532 58.1583C53.0007 57.7949 53.3728 57.5808 53.7512 57.6717C54.1168 57.6003 54.4696 57.4965 54.8352 57.4186C55.2906 57.3213 55.7396 57.2304 56.2014 57.1526C56.6055 57.0877 57.0096 57.0228 57.4137 56.9774C57.6125 56.9579 57.7986 56.9579 57.9974 56.9644C58.0551 56.9644 58.1129 56.9644 58.1706 56.9579C58.5875 56.9319 58.9531 57.2823 58.9724 57.7041C58.9916 58.1324 58.6581 58.4892 58.2347 58.5152C58.0872 58.5217 57.9397 58.5152 57.7921 58.5152C57.7023 58.5152 57.6061 58.5217 57.5163 58.5347C56.9006 58.606 56.2784 58.7098 55.669 58.8396C55.3034 58.9175 54.9378 58.9954 54.5722 59.0797C54.4054 59.1186 54.2387 59.1576 54.0719 59.1965C53.9115 59.2289 53.7384 59.2744 53.5716 59.2744C53.4369 59.2744 53.3086 59.2484 53.1867 59.1705L53.1996 59.1641Z" fill="#b80049" stroke="#b80049" stroke-width="0.5"></path>
<path d="M53.3342 58.7941C52.9622 58.5345 53.315 57.8792 53.7319 58.0738C54.5016 57.97 58.3694 56.7761 58.5811 57.6715C58.6131 57.8597 58.4784 58.1063 58.2668 58.1192C57.0673 58.1063 55.8871 58.3918 54.7197 58.6383C54.2707 58.6903 53.7768 59.0017 53.3342 58.7876V58.7941Z" fill="#b80049" stroke="#b80049" stroke-width="0.5"></path>
<path d="M10.6539 67.2943C10.423 67.2424 10.2306 67.0802 10.128 66.8726C10.051 66.7752 9.97402 66.6779 9.89705 66.5871C9.68538 66.3275 9.48012 66.0615 9.26845 65.7955C8.76173 65.1596 8.24859 64.5302 7.73546 63.8943C6.69635 62.603 5.69573 61.2728 4.61814 60.014C4.23329 59.5728 3.83561 59.1445 3.46358 58.6903C3.09156 58.2426 2.73236 57.7754 2.386 57.3017C1.99473 56.7697 1.60988 56.2441 1.22502 55.7055C0.910725 55.2643 0.615671 54.8101 0.314203 54.3559C0.0319772 54.1547 -0.0770645 53.7849 0.0319772 53.4475C0.0961194 53.2398 0.250061 53.0711 0.442487 52.9803C0.660571 52.8764 0.923554 52.8829 1.13522 52.9997C1.32124 53.1036 1.44311 53.2723 1.55856 53.4475C1.8472 53.8822 2.13584 54.3169 2.4309 54.7517C2.91196 55.42 3.39303 56.0819 3.88692 56.7372C4.35516 57.3666 4.86188 57.9636 5.38144 58.5541C5.67649 58.885 5.96513 59.2159 6.25377 59.5533C6.536 59.8842 6.79898 60.2281 7.06838 60.5656C7.55586 61.182 8.03692 61.8049 8.53082 62.4148C9.17865 63.2259 9.83932 64.0305 10.4872 64.8481C10.7309 65.1531 10.9682 65.458 11.212 65.763C11.2697 65.8344 11.3274 65.9058 11.3787 65.9771C11.5327 66.1913 11.6289 66.4378 11.5647 66.7039C11.4814 67.0608 11.1606 67.3138 10.8079 67.3138C10.7566 67.3138 10.6988 67.3138 10.6411 67.2943H10.6539Z" fill="#b80049" stroke="#b80049" stroke-width="0.5"></path>
<path d="M10.6925 66.9051C8.72977 64.634 6.93379 62.1359 4.97104 59.8259C3.53425 58.2686 2.27706 56.5556 1.0776 54.8036C0.917248 54.5636 0.769721 54.3105 0.602951 54.0769C0.423353 53.9925 0.346382 53.7784 0.410524 53.5902C1.00063 52.6234 1.60357 54.3754 1.98201 54.7582C2.94414 56.1144 3.90627 57.477 5.02235 58.7163C6.54252 60.4099 7.8895 62.2527 9.32629 64.0111C9.92281 64.7508 10.5193 65.4905 11.103 66.2432C11.366 66.5417 11.103 67.0608 10.6925 66.9116V66.9051Z" fill="#b80049" stroke="#b80049" stroke-width="0.5"></path>
<path d="M10.5385 67.1906C10.128 67.0997 9.86505 66.678 9.95485 66.2627C9.99975 66.0421 10.0318 65.815 10.0703 65.5879C10.1473 65.1337 10.2307 64.6859 10.3269 64.2382C10.4359 63.7256 10.5578 63.213 10.6668 62.7004C10.7823 62.1748 10.8785 61.6427 10.9619 61.1042C11.0709 60.332 11.1543 59.5599 11.2377 58.7877C11.3275 57.9766 11.4173 57.1655 11.5199 56.3479C11.6161 55.5369 11.7188 54.7193 11.8214 53.9082C11.924 53.0841 12.0138 52.2601 12.1164 51.436C12.2191 50.6314 12.3281 49.8268 12.4243 49.0222C12.527 48.1852 12.6103 47.3416 12.6937 46.5046C12.7707 45.674 12.8477 44.85 12.9054 44.0194C12.9631 43.2083 13.0016 42.3908 13.0593 41.5797C13.1876 39.9056 13.4121 38.2445 13.611 36.5769C13.8034 34.9417 14.0086 33.3066 14.1754 31.6649C14.3422 30.0168 14.4127 28.3622 14.5282 26.7076C14.5859 25.8575 14.6565 25.0075 14.695 24.1575C14.7334 23.301 14.7591 22.438 14.7848 21.5815C14.7976 21.1662 14.8168 20.7509 14.8425 20.3357C14.8489 20.1475 14.8617 19.9593 14.8681 19.7711C14.8681 19.7192 14.8681 19.6673 14.8681 19.6089C14.8297 19.4856 14.8232 19.3494 14.8489 19.2131C14.8617 19.1352 14.8746 19.0574 14.8938 18.9795C14.9579 18.7394 15.0991 18.5448 15.3235 18.441C15.5801 18.3242 15.8623 18.3631 16.0933 18.5188C16.2344 18.6097 16.337 18.7654 16.3819 18.9211C16.4268 19.0574 16.4204 19.2001 16.414 19.3429C16.4076 19.5765 16.3947 19.8101 16.3819 20.0372C16.3627 20.433 16.3434 20.8223 16.3306 21.2181C16.2985 22.0487 16.2729 22.8792 16.2408 23.7098C16.1702 25.4228 16.0291 27.1293 15.9201 28.8359C15.8688 29.6989 15.811 30.5554 15.7341 31.4184C15.6699 32.223 15.5673 33.0211 15.4711 33.8192C15.2851 35.4414 15.0862 37.0635 14.8874 38.6857C14.7848 39.5487 14.6885 40.4182 14.6116 41.2877C14.5346 42.0923 14.4961 42.8969 14.4512 43.7015C14.3486 45.3496 14.1882 46.9977 14.0022 48.6394C13.9124 49.4505 13.797 50.2551 13.6943 51.0661C13.5853 51.8967 13.4955 52.7273 13.3929 53.5578C13.194 55.193 12.9824 56.8281 12.8028 58.4698C12.7194 59.2354 12.6488 60.0076 12.5462 60.7797C12.4372 61.5973 12.296 62.4084 12.1164 63.2065C11.9561 63.9332 11.7893 64.6535 11.6546 65.3867C11.5776 65.789 11.5263 66.1913 11.4429 66.5936C11.366 66.9505 11.0389 67.2035 10.6861 67.2035C10.6348 67.2035 10.577 67.2035 10.5257 67.1841L10.5385 67.1906Z" fill="#b80049" stroke="#b80049" stroke-width="0.5"></path>
<path d="M10.6733 66.8207C10.4808 66.8012 10.282 66.6066 10.3205 66.3989C10.5193 65.192 10.7502 64.0111 11.0325 62.8496C11.6739 59.6702 11.8214 56.4063 12.2961 53.2009C12.8349 49.126 13.2646 45.0381 13.5084 40.9373C14.3871 33.8386 15.1055 26.727 15.2659 19.5765C15.0157 18.6161 16.2536 18.428 16.042 19.5635C15.8367 26.0457 15.3749 32.5084 14.4962 38.9323C14.1562 41.4109 14.1241 43.9221 13.8676 46.4137C13.4699 50.4757 12.8669 54.5181 12.4308 58.5736C12.2576 60.3904 12.0138 62.2007 11.5713 63.9786C11.4494 64.5237 11.3404 65.0687 11.2441 65.6203C11.1159 66.0356 11.2634 66.8142 10.6797 66.8272L10.6733 66.8207Z" fill="#b80049" stroke="#b80049" stroke-width="0.5"></path>
<path d="M58.2219 58.9888C57.8178 58.8395 57.6382 58.3918 57.7665 57.9895C57.7665 57.97 57.7793 57.9506 57.7858 57.9376C57.7986 57.8857 57.8114 57.8338 57.8178 57.7883C57.8435 57.6067 57.8563 57.4315 57.882 57.2498C57.9397 56.8215 58.0103 56.3868 58.0744 55.9585C58.2219 54.9593 58.3951 53.9665 58.549 52.9737C58.6453 52.3443 58.7222 51.7149 58.7864 51.079C58.8441 50.4496 58.889 49.8137 58.966 49.1908C59.0494 48.529 59.1456 47.8671 59.2354 47.1988C59.3252 46.5175 59.415 45.8362 59.5176 45.1678C59.5304 45.09 59.5433 45.0121 59.5561 44.9342C59.5561 44.9213 59.5561 44.9083 59.5561 44.9083C59.5561 44.8823 59.5625 44.8564 59.5689 44.8369V44.8239C59.5753 44.785 59.5817 44.7461 59.5882 44.7266C59.5882 44.7071 59.5882 44.6877 59.5946 44.6682C59.5946 44.6552 59.5946 44.6357 59.5946 44.6357C59.601 44.5774 59.6138 44.5125 59.6202 44.467C59.6202 44.4541 59.6202 44.4476 59.6202 44.4346C59.6202 44.3957 59.6331 44.3567 59.6395 44.3308L59.6587 44.1945C59.7485 43.6105 59.8319 43.0201 59.9281 42.4361C60.0179 41.8781 60.1205 41.32 60.2039 40.7944C60.2167 40.7036 60.236 40.6063 60.2424 40.5349C60.3579 39.7562 60.4477 38.9711 60.5631 38.1925C60.6914 37.3295 60.8518 36.4795 61.0378 35.6229C61.211 34.8248 61.4098 34.0332 61.6022 33.2416C61.8075 32.4175 61.9807 31.5935 62.1218 30.7629C62.1282 30.711 62.141 30.6656 62.1474 30.6137C62.1731 30.432 62.2052 30.2503 62.2308 30.0686C62.3334 29.3938 62.4168 28.7125 62.4874 28.0247C62.5644 27.3044 62.6542 26.5842 62.7439 25.8639C62.8337 25.1696 62.8979 24.4754 62.9556 23.7811C63.0133 23.0414 63.0775 22.3016 63.1096 21.5619C63.1224 20.673 63.1096 19.7775 63.1416 18.8886C63.1673 18.0061 63.2956 17.1172 63.4239 16.2607C63.4303 16.2152 63.4367 16.1698 63.4431 16.1374C63.4431 16.1049 63.4495 16.079 63.4559 16.0465C63.4559 16.0465 63.4559 16.04 63.4559 16.0336C63.5265 15.5858 63.6035 15.1381 63.6804 14.6904C63.7317 14.3335 63.7766 13.9766 63.8023 13.6133C63.8023 13.5159 63.8023 13.4186 63.7959 13.3213C63.4816 13.3213 63.1673 13.3213 62.853 13.3213C62.4104 13.3213 61.9678 13.3667 61.5317 13.3927C60.6208 13.451 59.71 13.5224 58.7992 13.6198C57.2983 13.795 55.7974 13.9507 54.29 14.0869C52.8404 14.2167 51.3908 14.3724 49.9412 14.5282C49.3767 14.5931 48.8123 14.6579 48.2991 14.7163C46.965 14.8656 45.6244 14.9824 44.2902 15.1316C42.6803 15.3263 41.0703 15.5209 39.4603 15.7416C37.767 15.9752 36.08 16.2282 34.3867 16.4359C33.5593 16.5332 32.7318 16.65 31.9044 16.7798C31.1154 16.903 30.3329 17.0523 29.5504 17.1885C28.7807 17.3248 28.011 17.4481 27.2412 17.5779C26.4459 17.7076 25.6505 17.8244 24.8552 17.9737C23.3735 18.2527 21.911 18.6161 20.4358 18.9275C19.6917 19.0832 18.9412 19.2195 18.1972 19.3558C17.8572 19.4142 17.5173 19.4726 17.1773 19.518C16.9849 19.5439 16.7861 19.5699 16.5936 19.5959C16.5167 19.6088 16.4397 19.6153 16.3627 19.6218C16.305 19.6802 16.2344 19.7321 16.1511 19.771C15.965 19.8554 15.7534 19.8619 15.561 19.7905C15.1889 19.6478 14.9388 19.1806 15.1055 18.7913C15.1504 18.6939 15.1825 18.5966 15.2402 18.5057C15.3044 18.4019 15.4134 18.3046 15.5161 18.2462C15.7341 18.1229 15.9779 18.1099 16.2216 18.0775C17.0042 17.9802 17.7803 17.8569 18.5564 17.7141C19.371 17.5649 20.1792 17.4027 20.9874 17.221C21.7892 17.0458 22.5845 16.8511 23.3863 16.6824C25.0027 16.345 26.6319 16.0984 28.2611 15.8259C29.839 15.5599 31.4105 15.2614 33.0012 15.0473C33.8286 14.937 34.6561 14.8526 35.4835 14.7358C36.2981 14.6255 37.1063 14.5022 37.9209 14.3919C39.5822 14.1583 41.2499 13.9377 42.9176 13.7301C43.636 13.6457 44.3544 13.5549 45.0728 13.4835C45.8168 13.4121 46.5545 13.3472 47.2985 13.2694C47.5936 13.2369 47.895 13.2045 48.0939 13.1785C49.6654 12.9968 51.2433 12.8346 52.8212 12.6724C54.367 12.5167 55.9192 12.3804 57.465 12.2117C58.3117 12.1144 59.152 12.017 60.0051 11.9457C60.7684 11.8808 61.5381 11.8354 62.3014 11.7899C62.6734 11.7705 63.039 11.7705 63.411 11.764C63.6868 11.764 63.9627 11.751 64.2385 11.777C64.572 11.8094 64.9055 11.9457 65.098 12.2442C65.2712 12.5232 65.3225 12.8736 65.3481 13.198C65.3674 13.4381 65.3545 13.6717 65.3481 13.9053C65.3225 14.3076 65.2583 14.7034 65.1942 15.0992C65.13 15.5145 65.0595 15.9232 64.9889 16.3385C64.9889 16.3515 64.9889 16.358 64.9889 16.371V16.3904C64.9825 16.4294 64.9761 16.4748 64.9697 16.4943C64.9697 16.5137 64.9697 16.5267 64.9633 16.5462V16.5721C64.8863 17.0393 64.8286 17.5065 64.7773 17.9802C64.7259 18.4603 64.7067 18.934 64.6875 19.4142C64.6746 20.2382 64.6939 21.0558 64.6618 21.8799C64.6297 22.7039 64.5463 23.528 64.4758 24.3521C64.4052 25.1696 64.3026 25.9872 64.2 26.7983C64.0973 27.5899 64.0332 28.388 63.9242 29.1797C63.8472 29.7636 63.7638 30.3411 63.6868 30.8213C63.5072 32.0217 63.2122 33.1962 62.9235 34.3771C62.6285 35.5905 62.3591 36.8039 62.1538 38.0303C62.0127 38.9906 61.8973 39.9574 61.7497 40.9177C61.6215 41.7807 61.4611 42.6372 61.3264 43.5002C61.2751 43.8247 61.2302 44.1556 61.1917 44.3762C61.1853 44.4281 61.1725 44.48 61.1725 44.5254L61.1596 44.5903C61.1596 44.5903 61.1596 44.6163 61.1596 44.6228V44.6357C61.1596 44.6357 61.1596 44.6422 61.1596 44.6487C61.1596 44.6812 61.1532 44.7071 61.1468 44.7266V44.7461C61.134 44.8109 61.1276 44.8758 61.1147 44.9277C61.1147 44.9342 61.1147 44.9407 61.1147 44.9472C61.1147 44.9732 61.1083 44.9991 61.1019 45.0121V45.051C61.1019 45.051 61.0891 45.0964 61.0891 45.1159C61.0891 45.1419 61.0827 45.1613 61.0763 45.1873C61.0763 45.2003 61.0763 45.2068 61.0763 45.2132C61.0634 45.2911 61.0506 45.3625 61.0442 45.4339C60.9223 46.2514 60.8197 47.0755 60.7042 47.8931C60.5952 48.6912 60.4861 49.4828 60.4156 50.2874C60.345 51.1115 60.2681 51.9291 60.1526 52.7466C60.0371 53.5642 59.8896 54.3818 59.7613 55.1994C59.7357 55.3486 59.7164 55.4913 59.6972 55.6211C59.6972 55.6341 59.6972 55.6406 59.6972 55.6536V55.6795C59.601 56.283 59.4984 56.8929 59.4278 57.4964C59.4086 57.6391 59.3957 57.7819 59.3829 57.9311C59.3572 58.1387 59.3059 58.3334 59.2418 58.5345C59.1392 58.8525 58.8249 59.0407 58.5106 59.0407C58.4208 59.0407 58.3374 59.0277 58.2476 58.9952L58.2219 58.9888Z" fill="#b80049" stroke="#b80049" stroke-width="0.5"></path>
<path d="M58.3565 58.6253C58.0551 58.5085 58.0871 58.1906 58.1833 57.9375C58.4014 56.0234 58.7863 54.1287 59.0428 52.2145C59.5688 46.8289 60.4411 41.4757 61.3263 36.1355C61.7496 34.124 62.3526 32.1514 62.622 30.1075C63.2121 26.1105 63.5328 22.1004 63.5969 18.0645C63.6867 16.3514 64.3346 14.6514 64.1421 12.9384C60.3834 12.8735 56.6568 13.5418 52.9108 13.8338C47.927 14.3594 42.9367 14.8331 37.9721 15.5598C33.1422 16.2022 28.3187 16.8965 23.5401 17.8374C21.0963 18.3954 18.6461 18.9599 16.1574 19.2519C15.8367 19.758 15.1696 19.1935 15.5608 18.7198C15.7597 18.4343 16.1445 18.4862 16.446 18.4343C17.267 18.3305 18.0816 18.1878 18.8962 18.0385C20.487 17.753 22.0585 17.3637 23.6363 17.0198C34.1877 15.0472 44.8674 13.8144 55.5471 12.8021C58.5105 12.562 61.5251 11.9391 64.4949 12.2311C65.5918 12.9643 64.5142 15.8908 64.4885 17.0717C64.1421 19.5374 64.4051 22.0356 64.0716 24.5013C63.6996 28.2907 63.1993 32.0606 62.1986 35.7397C61.647 38.134 61.4738 40.5932 61.012 43.007C60.2872 47.0495 60.0499 51.1633 59.3507 55.2123C59.2353 55.9325 59.1262 56.6463 59.03 57.3665C58.9466 57.8272 59.03 58.7551 58.3565 58.6188V58.6253Z" fill="#b80049" stroke="#b80049" stroke-width="0.5"></path>
<path d="M0.545157 54.2C0.198789 54.0703 -0.0385371 53.6615 0.0576762 53.2916C0.0576762 52.9023 0.102576 52.5065 0.147475 52.1237C0.198789 51.6824 0.256517 51.2347 0.327073 50.7935C0.327073 50.7805 0.327073 50.7675 0.327073 50.7545L0.339902 50.6572C0.35273 50.5664 0.365559 50.469 0.384801 50.3782C0.391216 50.3133 0.404044 50.2484 0.416872 50.1771C0.4746 49.8396 0.525914 49.5087 0.590056 49.1713C0.820968 47.9125 1.06471 46.6537 1.27638 45.3884C1.5137 43.7467 1.68047 42.0986 1.86649 40.4505C2.0525 38.8088 2.19361 37.1542 2.30907 35.4996C2.42452 33.8255 2.48867 32.1449 2.58488 30.4709C2.62978 29.6728 2.68751 28.8746 2.73882 28.0765C2.79655 27.207 2.84145 26.344 2.88635 25.4746C2.97615 23.8264 3.02746 22.1783 3.16857 20.5302C3.23913 19.6996 3.33534 18.8691 3.42514 18.045C3.51494 17.2339 3.60474 16.4228 3.70095 15.6182C3.79717 14.8201 3.91262 14.022 4.02166 13.2239C4.13071 12.4063 4.24616 11.5823 4.30389 10.7582C4.36162 9.94061 4.38086 9.12304 4.445 8.30546C4.45783 8.13675 4.47066 7.96156 4.49632 7.79285C4.52197 7.55277 4.54763 7.29971 4.68874 7.10505C4.91965 6.78062 5.33016 6.68977 5.69578 6.82604C5.8882 6.89741 6.04856 7.04016 6.19608 7.18291C6.36285 7.33864 6.51038 7.5333 6.64508 7.72148C7.41479 8.77914 8.15883 9.86275 8.94137 10.8231C9.07607 10.9658 9.20435 11.1086 9.26849 11.18C9.41602 11.3357 9.56996 11.4849 9.73032 11.6277C9.9484 11.8353 10.1665 12.0365 10.3846 12.2441C10.763 12.6075 11.1094 13.0098 11.4493 13.4121C12.1036 14.1842 12.668 15.0278 13.3287 15.7934C13.5981 16.0789 13.8675 16.3644 14.1369 16.6499C14.4255 16.9549 14.7078 17.2728 14.99 17.5778C15.4261 18.058 15.8559 18.5381 16.2921 19.0183C16.5743 19.3298 16.4973 19.8553 16.183 20.1149C16.0291 20.2447 15.8302 20.3096 15.6314 20.2901C15.4197 20.2706 15.2465 20.1668 15.1054 20.0111C14.4191 19.2649 13.7456 18.5122 13.0593 17.7595C12.7771 17.461 12.4884 17.1625 12.2126 16.8576C11.9047 16.5266 11.6353 16.1633 11.3595 15.7999C10.8271 15.0862 10.2691 14.3919 9.67901 13.73C9.37112 13.4186 9.05041 13.1136 8.7297 12.8086C8.42823 12.5296 8.15242 12.2376 7.87661 11.9391L7.85095 11.9067C7.61363 11.6407 7.39554 11.3551 7.18387 11.0696C6.97862 10.7971 6.77336 10.5181 6.56811 10.2391C6.37568 9.97306 6.18326 9.70702 5.99083 9.44098C5.97159 9.41503 5.95234 9.38258 5.92669 9.35663C5.91386 9.59671 5.90744 9.84328 5.89462 10.0834C5.85613 10.888 5.77916 11.6926 5.67653 12.4907C5.58032 13.2953 5.45845 14.0934 5.34941 14.8915C5.24037 15.7026 5.15057 16.5137 5.06077 17.3312C4.87475 19.0118 4.68874 20.6924 4.59253 22.3859C4.54763 23.1776 4.52197 23.9692 4.47707 24.7543C4.42576 25.6108 4.38086 26.4673 4.33596 27.3303C4.23975 28.9655 4.11788 30.6006 4.04091 32.2358C3.95752 33.9488 3.86131 35.6553 3.71378 37.3619C3.57267 39.0165 3.39307 40.6646 3.20706 42.3063C3.11726 43.1109 3.03387 43.9219 2.93125 44.7265C2.8222 45.5441 2.69392 46.3552 2.53998 47.1663C2.32831 48.3018 2.10381 49.4309 1.9178 50.5729C1.9178 50.6053 1.91139 50.6377 1.90497 50.6702C1.90497 50.6702 1.90497 50.6702 1.90497 50.6767C1.90497 50.6767 1.90497 50.6897 1.90497 50.6961V50.7091C1.88573 50.8194 1.87931 50.9362 1.85366 51.0465C1.85366 51.0465 1.85366 51.0465 1.85366 51.053C1.83441 51.1828 1.81517 51.3126 1.79593 51.4423C1.77027 51.637 1.74462 51.8382 1.71896 52.0328C1.66765 52.4546 1.62916 52.8764 1.60992 53.2981C1.60992 53.4474 1.60992 53.5901 1.54578 53.7329C1.46239 53.9275 1.34052 54.0833 1.14168 54.1676C1.03905 54.213 0.93001 54.239 0.820968 54.239C0.731169 54.239 0.64137 54.226 0.551571 54.1936L0.545157 54.2Z" fill="#b80049" stroke="#b80049" stroke-width="0.5"></path>
<path d="M0.679917 53.8303C0.211679 53.6032 0.525976 52.9219 0.493905 52.5066C0.692746 50.4238 1.15457 48.3798 1.50735 46.3229C2.66833 38.9128 2.90565 31.3989 3.35465 23.9174C3.48935 19.7841 4.09228 15.6962 4.61825 11.6019C4.7786 10.2652 4.72729 8.90257 4.91972 7.57238C5.25967 6.54068 6.2218 7.70865 6.51686 8.20179C7.14545 9.06478 7.7548 9.95374 8.42188 10.7973C9.12103 11.6927 10.0383 12.3805 10.7823 13.237C12.264 15.0928 13.7649 16.9161 15.4134 18.6291C15.6058 18.8433 15.7982 19.0639 15.9971 19.278C16.3114 19.6608 15.7213 20.1605 15.4006 19.7711C15.0029 19.3364 14.6116 18.8952 14.2139 18.4604C12.527 16.8123 11.2249 14.8332 9.60851 13.1202C7.99213 11.7576 6.85681 9.96671 5.60604 8.27965C5.51624 11.2904 5.01593 14.2557 4.67598 17.2405C4.25264 20.5044 4.12435 23.7941 3.95117 27.0774C3.52142 34.9742 3.09166 42.8969 1.50735 50.6574C1.37907 51.5723 1.22513 52.4937 1.2123 53.4215C1.2123 53.6941 0.936486 53.9406 0.679917 53.8303Z" fill="#b80049" stroke="#b80049" stroke-width="0.5"></path>
<path d="M63.4366 12.7048C63.4366 12.7048 63.3917 12.6529 63.366 12.6205C63.1672 12.4128 62.9555 12.2247 62.7567 12.0235C62.2948 11.5628 61.8394 11.0891 61.4033 10.6025C60.9543 10.1028 60.5245 9.59024 60.0948 9.07115C59.6522 8.52609 59.2032 7.98104 58.7285 7.46195C58.023 6.7417 57.2661 6.07985 56.5413 5.4764C56.413 5.37258 56.2911 5.26877 56.1628 5.16495C55.8101 4.87295 55.4509 4.58096 55.1045 4.28248C54.7517 3.97751 54.4182 3.65308 54.0975 3.30918C53.7703 2.95879 53.4432 2.61489 53.1097 2.2645C52.9686 2.11526 52.8274 1.96602 52.6799 1.82327C52.5965 1.73891 52.5132 1.64807 52.4298 1.56372C52.4169 1.56372 52.4041 1.56372 52.3977 1.56372C51.7435 1.55723 51.0892 1.58967 50.4414 1.61563C49.7037 1.64807 48.9661 1.70647 48.2285 1.79082C46.5864 1.98548 44.9508 2.19961 43.3152 2.42023C41.6795 2.64084 40.0375 2.84848 38.4019 3.08207C37.3884 3.22482 36.3814 3.34811 35.3679 3.47788C34.3353 3.61415 33.309 3.78285 32.3661 3.88667C31.8337 3.94507 31.3077 4.00347 30.7754 4.06187C29.1333 4.25653 27.4913 4.49661 25.8492 4.69776C25.0282 4.80158 24.2072 4.89242 23.3862 5.01571C22.5523 5.13899 21.7249 5.26228 20.8975 5.39854C19.2747 5.67107 17.6519 5.94359 16.0291 6.18367C15.1888 6.30696 14.3421 6.40429 13.5019 6.52757C12.7129 6.63788 11.924 6.79361 11.1414 6.93636C10.1857 7.11156 9.23 7.24782 8.2807 7.46844C7.35705 7.68256 6.44623 7.92264 5.50976 8.05242C5.34299 8.11082 5.15697 8.11731 4.97738 8.05242C4.57969 7.90318 4.38085 7.44897 4.52197 7.05316C4.56045 6.95583 4.61177 6.84552 4.68874 6.77414C4.79136 6.67681 4.89399 6.59895 5.02869 6.56002C5.13773 6.52757 5.25319 6.52109 5.36223 6.50162C5.74708 6.44971 6.12552 6.37184 6.50396 6.28749C7.33139 6.09932 8.15883 5.89168 8.99268 5.72946C9.78163 5.58022 10.577 5.45694 11.3659 5.3077C12.1485 5.16495 12.9246 5.0222 13.7135 4.92486C15.3299 4.72371 16.9463 4.47714 18.5563 4.21111C20.1983 3.93858 21.8468 3.64659 23.4952 3.43246C24.7973 3.25727 26.0994 3.10154 27.4015 2.92634C28.7421 2.74466 30.0826 2.57595 31.327 2.43969C31.622 2.40725 31.9107 2.3748 32.1031 2.34885C32.9049 2.25152 33.7002 2.12823 34.4956 2.02441C35.3423 1.90762 36.1954 1.8038 37.0421 1.69349C38.6713 1.47936 40.2941 1.24577 41.9233 1.03164C43.5717 0.817516 45.2202 0.5969 46.8686 0.389262C47.664 0.291932 48.4594 0.194601 49.2612 0.129714C50.0309 0.064827 50.807 0.0453609 51.5767 0.0258947C51.9936 0.0129173 52.4298 -0.0260149 52.8403 0.0518496C53.0648 0.0907818 53.2636 0.227044 53.424 0.382773C53.61 0.564457 53.7896 0.752629 53.9692 0.940802C54.3797 1.36257 54.7838 1.79731 55.1879 2.22556C55.6112 2.67329 56.0602 3.07558 56.5285 3.4714C56.8492 3.73743 57.1763 4.00347 57.42 4.21111C58.472 5.08708 59.5111 5.98252 60.3962 7.0272C60.8324 7.53981 61.2557 8.0654 61.6855 8.58449C62.0896 9.07115 62.5129 9.54482 62.9427 10.012C63.3019 10.3884 63.6675 10.7517 64.0331 11.1216C64.2319 11.3162 64.4372 11.5044 64.6168 11.7185C64.8926 12.0365 64.8285 12.5491 64.5077 12.8151C64.3666 12.9319 64.1999 12.9903 64.0267 12.9903C63.8022 12.9903 63.5777 12.893 63.4237 12.7113L63.4366 12.7048Z" fill="#b80049" stroke="#b80049" stroke-width="0.5"></path>
<path d="M63.738 12.4583C61.7881 10.6609 60.2615 8.48069 58.4078 6.59897C57.4072 5.67108 56.336 4.82755 55.3033 3.9386C54.8159 3.51035 54.3733 3.03018 53.9243 2.55651C53.4112 2.14123 53.0263 1.31068 52.3849 1.17441C45.9386 1.34312 39.5757 2.64086 33.1807 3.38706C26.5933 4.07486 20.07 5.19092 13.5147 6.12529C11.7444 6.4108 9.97406 6.71576 8.21656 7.07264C7.19029 7.28028 6.15118 7.63716 5.11849 7.67609C4.84268 7.57227 4.78496 7.17646 5.01587 6.99478C5.17622 6.86501 5.40072 6.90394 5.59315 6.85203C11.6225 5.4894 17.7609 4.7432 23.8544 3.76989C30.4547 2.93285 37.0549 2.08283 43.6551 1.19388C46.0476 0.895399 48.4401 0.499589 50.8583 0.434702C51.6344 0.499589 52.6222 0.110266 53.2316 0.720204C55.5214 3.4195 58.5874 5.28825 60.7811 8.0719C61.8779 9.454 63.0838 10.7258 64.3346 11.9651C64.636 12.348 64.0652 12.8541 63.738 12.4583Z" fill="#b80049" stroke="#b80049" stroke-width="0.5"></path>
<path d="M30.4419 113.825C30.2238 113.708 30.0378 113.552 29.8582 113.39C29.2874 112.877 28.7678 112.3 28.2482 111.742C27.78 111.242 27.3118 110.749 26.8435 110.256C26.3496 109.737 25.8686 109.211 25.3747 108.699C24.2522 107.557 23.1682 106.389 22.0585 105.24C21.5197 104.695 20.9874 104.144 20.4357 103.612C19.8328 103.028 19.217 102.457 18.6141 101.873C17.3954 100.692 16.1831 99.4978 15.0157 98.2649C14.4384 97.655 13.9061 97.0191 13.3801 96.3637C12.8798 95.7408 12.4051 95.0855 11.8984 94.469C11.3788 93.8331 10.8336 93.2232 10.2884 92.6133C10.0062 92.2953 9.72398 91.9839 9.47383 91.64C9.3263 91.4388 9.21084 91.2247 9.16594 90.9781C9.14029 90.8419 9.13387 90.7056 9.12746 90.5693C9.08256 89.875 9.0569 89.1743 9.05049 88.4735C9.03766 87.7597 9.08256 87.0395 9.1018 86.3257C9.1018 85.5211 9.06332 84.723 9.0569 83.9184C9.05049 83.1138 9.06973 82.3092 9.10821 81.4981C9.1467 80.6741 9.18519 79.8565 9.20443 79.0324C9.22367 78.2019 9.24933 77.3778 9.28781 76.5472C9.31988 75.8919 9.38403 75.2365 9.42893 74.5812C9.47383 73.9323 9.5059 73.2899 9.53155 72.641C9.5508 72.0181 9.54438 71.3887 9.56362 70.7658C9.58287 70.1299 9.61494 69.5005 9.62777 68.8646C9.62777 68.4299 9.62777 67.9886 9.60852 67.5539C9.60852 67.4566 9.60211 67.3528 9.5957 67.2554C9.58928 67.1256 9.57004 66.9959 9.57645 66.8661C9.60852 66.4378 9.98055 66.0939 10.4103 66.1264C10.6733 66.1459 10.8593 66.2951 11.0261 66.4898C11.0838 66.5546 11.1351 66.6195 11.1928 66.6779C11.3468 66.8531 11.5071 67.0218 11.6675 67.1905C12.1678 67.6967 12.6745 68.2028 13.1748 68.7089C13.7585 69.2994 14.3166 69.9028 14.8682 70.5192C15.407 71.1227 15.9522 71.7261 16.491 72.3296C17.0298 72.933 17.5557 73.5495 18.0945 74.1594C19.1978 75.4117 20.3267 76.6381 21.4492 77.8709C22.5717 79.1038 23.707 80.3172 24.868 81.5111C25.4645 82.1275 26.0482 82.7504 26.6254 83.3798C27.1514 83.9508 27.6581 84.5413 28.1649 85.1318C28.6972 85.7482 29.2296 86.3646 29.7812 86.9681C30.0378 87.2536 30.3265 87.5196 30.551 87.8376C30.7241 88.0777 30.7883 88.3502 30.6985 88.6422C30.6728 88.733 30.6279 88.8109 30.5766 88.8823C30.583 89.2067 30.583 89.5376 30.583 89.8685C30.583 90.6537 30.5959 91.4388 30.6279 92.2175C30.6857 93.8331 30.66 95.4423 30.7049 97.058C30.7306 97.8951 30.7498 98.7321 30.7819 99.5627C30.8139 100.419 30.8717 101.276 30.9166 102.139C30.955 102.93 30.9679 103.722 31.0256 104.507C31.0833 105.318 31.186 106.123 31.2758 106.927C31.3078 107.219 31.3399 107.511 31.3784 107.797C31.481 108.621 31.5772 109.445 31.667 110.269C31.7504 111.093 31.7889 111.911 31.7504 112.741C31.7312 113.092 31.6606 113.481 31.3848 113.728C31.2309 113.857 31.0384 113.929 30.846 113.929C30.7113 113.929 30.5766 113.896 30.4547 113.831L30.4419 113.825ZM27.0039 108.167C27.3695 108.556 27.7351 108.952 28.1071 109.341C28.8127 110.081 29.499 110.84 30.211 111.573C30.1982 111.236 30.1789 110.892 30.1469 110.555C30.0827 109.964 30.0186 109.38 29.948 108.79C29.8518 107.998 29.762 107.206 29.6722 106.408C29.5824 105.565 29.4926 104.721 29.4477 103.878C29.4285 103.501 29.422 103.125 29.4028 102.749C29.3836 102.327 29.3643 101.905 29.3387 101.483C29.2938 100.653 29.2489 99.8157 29.2232 98.9852C29.1976 98.1546 29.1655 97.3176 29.1527 96.487C29.1398 95.663 29.1462 94.8324 29.1334 94.0083C29.1206 93.2102 29.0885 92.4121 29.0693 91.6205C29.05 90.8808 29.05 90.1411 29.0436 89.4014C29.0436 89.1678 29.0436 88.9277 29.0308 88.6941C29.0308 88.6162 29.0308 88.5384 29.0564 88.467C28.9089 88.3048 28.755 88.1425 28.6074 87.9803C28.3445 87.6948 28.0815 87.4028 27.8249 87.1044C27.2925 86.4944 26.7666 85.878 26.2342 85.2681C25.1309 84.0157 23.9764 82.8218 22.8218 81.6149C21.6673 80.408 20.5448 79.1752 19.4223 77.9423C18.2998 76.7159 17.1901 75.4766 16.0997 74.2178C15.4904 73.517 14.8618 72.8227 14.2396 72.1284C13.6046 71.4147 12.9632 70.7009 12.3025 70.0131C11.9241 69.6303 11.5456 69.2539 11.1736 68.8776C11.1736 68.9944 11.1736 69.1177 11.1736 69.2345C11.1608 70.0326 11.1095 70.8242 11.0966 71.6223C11.0838 72.4464 11.0646 73.2704 11.0132 74.0945C10.9683 74.9056 10.8914 75.7232 10.8401 76.5343C10.7567 77.7152 10.7567 78.9026 10.7182 80.0836C10.6861 81.1737 10.6091 82.2573 10.5963 83.3279C10.5963 84.1066 10.6284 84.8852 10.6412 85.6639C10.654 86.4685 10.6156 87.2666 10.5963 88.0712C10.5963 88.5319 10.6091 88.9991 10.6284 89.4598C10.6476 89.8556 10.6476 90.2514 10.6861 90.6472C10.7182 90.6926 10.7503 90.7445 10.7823 90.7899C11.2506 91.3804 11.7701 91.932 12.264 92.4965C12.8092 93.1194 13.3288 93.7553 13.8291 94.4106C14.2973 95.0206 14.772 95.6305 15.2659 96.221C15.7598 96.8115 16.2921 97.363 16.8245 97.9145C18.0112 99.1085 19.1978 100.289 20.4165 101.451C21.5967 102.573 22.7513 103.715 23.8737 104.896C24.5537 105.61 25.2207 106.33 25.9071 107.031C26.2727 107.408 26.6447 107.777 27.0039 108.16V108.167Z" fill="#b80049" stroke="#b80049" stroke-width="0.5"></path>
<path d="M30.6728 113.5C29.5246 112.748 28.6908 111.58 27.7222 110.619C25.4901 108.277 23.2772 105.909 20.9937 103.618C18.0047 100.724 14.8938 97.9211 12.4436 94.5275C11.8919 93.8332 11.3018 93.1649 10.7117 92.503C10.2884 91.9904 9.7111 91.5232 9.53791 90.8614C9.30059 85.904 9.48018 80.9272 9.70468 75.9698C9.99332 72.8942 9.94201 69.7472 10.0254 66.6845C10.3589 66.2692 10.7374 66.691 10.9619 66.9959C11.3403 67.4242 11.7572 67.8265 12.1549 68.2288C14.4512 70.4998 16.5166 72.9915 18.6718 75.3988C21.9494 79.1233 25.5093 82.5883 28.7228 86.3777C29.0307 86.9163 30.878 88.201 30.1789 88.7266C30.2558 93.9046 30.32 99.1215 30.615 104.267C30.4868 105.364 32.3405 114.286 30.6664 113.5H30.6728ZM11.1094 91.7958C13.0721 93.8981 14.6372 96.3508 16.709 98.3558C21.4748 102.93 26.0289 107.719 30.6022 112.495C30.6407 109.607 29.9415 106.759 29.8389 103.878C29.6144 98.7452 29.3707 93.5283 29.4861 88.4216C29.4861 88.4022 29.4861 88.3892 29.4861 88.3697C26.3303 84.749 23.0078 81.2841 19.7558 77.7477C16.7475 74.4839 13.9445 71.0319 10.7694 67.9368C10.7823 73.2316 10.2371 78.5069 10.1986 83.8017C10.2499 85.3265 10.2499 86.8449 10.1986 88.3697C10.2114 89.1743 10.2242 89.9854 10.3076 90.7835C10.5193 91.1599 10.84 91.4713 11.1158 91.7958H11.1094Z" fill="#b80049" stroke="#b80049" stroke-width="0.5"></path>
<path d="M29.2809 87.9803C29.1911 87.565 29.4541 87.1432 29.8646 87.0459C30.4419 86.9096 31.0127 86.7734 31.59 86.6566C32.379 86.5009 33.1679 86.3711 33.9569 86.2283C35.4963 85.9558 37.0165 85.6379 38.5302 85.2485C39.2871 85.0539 40.0376 84.8462 40.7944 84.6581C41.5898 84.4634 42.3852 84.2752 43.1805 84.0806C44.7969 83.6848 46.4133 83.263 48.0425 82.9256C48.8699 82.7504 49.6974 82.6011 50.5248 82.4195C51.3009 82.2507 52.0642 82.0431 52.8403 81.8744C53.6742 81.6927 54.5144 81.5175 55.3483 81.3358C56.1244 81.1671 56.9005 80.9984 57.6831 80.8557C58.8761 80.6416 60.082 80.5248 61.2879 80.369C62.4745 80.2133 63.6547 80.0705 64.79 79.8953C66.0216 79.7007 67.2467 79.4736 68.4461 79.1362C69.1838 78.9091 69.9086 78.656 70.6398 78.4289C71.4544 78.1758 72.2754 77.9487 73.0964 77.7346C73.8982 77.5205 74.7064 77.3128 75.5146 77.1182C76.3356 76.9235 77.1566 76.7808 77.9905 76.6575C78.3561 76.6056 78.7217 76.5472 79.0873 76.4953C79.7159 76.3915 80.3381 76.2747 80.9603 76.1254C80.9475 76.1124 80.9346 76.0995 80.9218 76.0865C80.7037 75.8788 80.4664 75.6842 80.2355 75.4895C79.934 75.23 79.6325 74.9769 79.3246 74.7174C78.6961 74.1918 78.0675 73.6727 77.4325 73.1536C76.8167 72.654 76.2073 72.1478 75.5916 71.6482C74.9373 71.1161 74.2638 70.6035 73.6032 70.0779C71.9355 68.7737 70.2614 67.489 68.5744 66.2172C67.9073 65.724 67.2338 65.2504 66.5604 64.7767C65.8997 64.3095 65.2519 63.8228 64.5784 63.3686C63.8664 62.882 63.1416 62.4213 62.4232 61.9411C61.7561 61.4934 61.089 61.0522 60.4155 60.6174C59.6522 60.1243 58.9338 59.5727 58.1577 59.1055C58.0423 59.1055 57.9332 59.0796 57.8306 59.0342C57.6446 58.9433 57.5163 58.7876 57.4393 58.5994C57.2662 58.1842 57.4714 57.691 57.8883 57.5288C58.2026 57.412 58.5105 57.5288 58.7863 57.678C58.9723 57.7819 59.1519 57.8922 59.3315 58.009C59.9794 58.4242 60.5951 58.8914 61.243 59.3067C61.9165 59.7414 62.5835 60.1827 63.2506 60.6304C63.969 61.1106 64.6938 61.5713 65.4058 62.0579C66.0729 62.5121 66.7271 62.9923 67.3878 63.466C68.0613 63.9461 68.7476 64.4198 69.4147 64.9194C70.7168 65.8798 71.9996 66.879 73.2825 67.8718C74.591 68.884 75.893 69.8898 77.1695 70.9345C78.4267 71.9597 79.6839 72.9914 80.9218 74.0361C81.1784 74.2502 81.4349 74.4708 81.6851 74.6914C81.807 74.7952 81.9288 74.8991 82.0379 75.0158C82.1469 75.1326 82.2495 75.2559 82.3522 75.3792C82.4804 75.5285 82.6152 75.6842 82.7178 75.8529C82.7819 75.9632 82.8461 76.0735 82.891 76.1903C83.0321 76.5472 82.8717 76.93 82.5959 77.1636C82.3458 77.3648 82.0315 77.4426 81.7364 77.527C81.544 77.5789 81.3515 77.6243 81.1591 77.6697C80.7935 77.7541 80.4279 77.8255 80.0623 77.8968C79.2733 78.0461 78.478 78.1564 77.6826 78.2667C77.1695 78.351 76.6628 78.4419 76.156 78.5587C75.6557 78.669 75.1554 78.7988 74.6551 78.9285C73.5968 79.2011 72.5448 79.4736 71.4993 79.7786C70.7553 80.0121 70.024 80.2782 69.2736 80.4988C68.8502 80.6286 68.4269 80.7519 68.0036 80.8557C67.6059 80.9465 67.2082 81.0374 66.8105 81.1152C65.2198 81.4332 63.6098 81.6278 61.9998 81.8355C60.8068 81.9912 59.6138 82.121 58.4207 82.3027C57.6446 82.4324 56.8749 82.5882 56.1052 82.7569C55.297 82.9321 54.4888 83.1008 53.6742 83.276C52.8532 83.4512 52.0386 83.6588 51.2175 83.847C50.3965 84.0416 49.5755 84.1909 48.7481 84.3596C47.927 84.5218 47.1124 84.71 46.2978 84.8981C45.5345 85.0798 44.7777 85.281 44.0144 85.4627C43.1869 85.6638 42.3531 85.8585 41.5257 86.0596C40.7688 86.2413 40.0119 86.4489 39.255 86.6436C37.7541 87.0329 36.2467 87.3768 34.7202 87.6493C33.9248 87.7921 33.1359 87.9284 32.3405 88.0776C31.667 88.2009 30.9935 88.3501 30.3264 88.5123C30.2751 88.5253 30.2238 88.5383 30.1725 88.5513C30.1148 88.5643 30.0634 88.5707 30.0057 88.5707C29.6529 88.5707 29.3322 88.3177 29.2552 87.9608L29.2809 87.9803Z" fill="#b80049" stroke="#b80049" stroke-width="0.5"></path>
<path d="M29.8646 88.162C29.5696 88.0387 29.576 87.5326 29.8967 87.4482C30.3649 87.3379 30.8332 87.2276 31.3014 87.1238C32.5586 86.8577 33.835 86.6696 35.0986 86.4295C40.3647 85.3394 45.4319 83.7821 50.7109 82.8023C53.0841 82.2313 55.4766 81.7057 57.8691 81.245C61.0249 80.7519 64.2192 80.5313 67.3429 79.8499C69.7226 79.2465 72.0253 78.3511 74.4242 77.819C76.7847 77.1182 79.2734 77.0274 81.6466 76.372C80.5242 75.0483 79.0425 74.075 77.7468 72.9395C76.496 71.9078 75.2324 70.8826 73.9496 69.8898C68.9208 65.8733 63.6419 62.2137 58.2476 58.7292C57.619 58.8395 57.5997 57.7819 58.254 57.8987C59.2418 58.2945 60.0564 59.0472 60.9608 59.6052C61.9871 60.2541 62.9941 60.9548 64.0075 61.6232C68.1255 64.3484 72.0253 67.3787 75.9059 70.4348C77.1759 71.4601 78.4331 72.4983 79.6967 73.5364C80.6396 74.3735 81.7364 75.0872 82.4356 76.1579C82.9423 76.9884 81.6787 77.1766 81.1271 77.3064C79.9725 77.5789 78.8051 77.7541 77.6313 77.9163C75.4826 78.2667 73.3851 78.8766 71.2941 79.4671C66.105 81.4786 60.4605 81.3099 55.1046 82.6076C50.9161 83.542 46.734 84.392 42.5712 85.4432C39.8131 86.105 37.0806 86.9097 34.2904 87.3639C33.2513 87.5455 32.2058 87.7143 31.2758 87.9219C30.8075 87.9803 30.3265 88.2528 29.8582 88.1685L29.8646 88.162Z" fill="#b80049" stroke="#b80049" stroke-width="0.5"></path>
<path d="M30.3585 113.604C30.1597 113.241 30.288 112.767 30.6408 112.559C30.7049 112.514 30.7626 112.462 30.8332 112.423C30.955 112.345 31.109 112.3 31.2501 112.267C31.4233 112.235 31.5965 112.222 31.7697 112.222C31.8915 112.222 32.0134 112.241 32.1417 112.241C32.3341 112.222 32.5329 112.177 32.7254 112.144C33.0974 112.079 33.4694 112.027 33.8414 111.988C34.6112 111.904 35.3809 111.885 36.1506 111.813C36.9588 111.735 37.7605 111.657 38.5751 111.606C39.4026 111.554 40.23 111.476 41.051 111.372C41.8977 111.262 42.7444 111.125 43.5782 110.983C43.5782 110.983 43.5846 110.983 43.5911 110.983C43.7514 110.95 43.9182 110.924 44.0785 110.892C44.8483 110.749 45.6115 110.574 46.3812 110.444C47.1959 110.308 48.004 110.165 48.8187 110.035C50.4286 109.776 52.0514 109.549 53.655 109.27C56.9455 108.699 60.2424 108.199 63.5329 107.641C64.7131 107.44 65.8933 107.226 66.9773 107.031C70.2486 106.395 73.5134 105.681 76.6949 104.702C76.7141 104.702 76.7269 104.689 76.7462 104.682H76.7654C76.8039 104.663 76.8424 104.65 76.868 104.643C76.9258 104.624 76.9899 104.604 77.0027 104.598C77.022 104.598 77.0412 104.585 77.0605 104.578C77.0733 104.578 77.0861 104.572 77.1567 104.546C77.8622 104.306 78.5678 104.053 79.267 103.793C79.6197 103.663 79.9725 103.534 80.3253 103.404C80.6139 103.294 80.9154 103.19 81.1976 103.066C81.1976 103.027 81.2105 102.995 81.2105 102.956C81.2489 102.723 81.3003 102.495 81.3259 102.262C81.3259 102.242 81.3259 102.216 81.3259 102.197C81.2874 101.632 81.2618 101.074 81.2682 100.51C81.281 99.7377 81.281 98.9656 81.281 98.1934C81.281 97.4083 81.2361 96.6167 81.2233 95.8315C81.2105 95.0075 81.204 94.1899 81.2425 93.3723C81.2874 92.4444 81.3387 91.523 81.3772 90.5951C81.3965 90.115 81.4221 89.6348 81.435 89.1546C81.4542 88.6875 81.435 88.2203 81.4221 87.7531C81.3836 87.1107 81.3387 86.4683 81.3067 85.8454C81.2682 85.0668 81.2489 84.2946 81.2554 83.516C81.2554 82.8217 81.2874 82.1339 81.2746 81.4396C81.2618 80.7323 81.2554 80.0315 81.2489 79.3243C81.2489 78.6494 81.2554 77.9811 81.2361 77.3063C81.2361 77.2349 81.2233 77.1635 81.2169 77.0986C81.0565 76.878 80.9988 76.5796 81.1207 76.32C81.1591 76.2227 81.1976 76.1318 81.2682 76.054C81.3644 75.9437 81.4863 75.8398 81.6274 75.7944C81.7942 75.736 81.9609 75.723 82.1277 75.775C82.3394 75.8398 82.4805 75.9761 82.5959 76.1578C82.6922 76.32 82.6986 76.5276 82.7242 76.7093C82.7435 76.891 82.7691 77.0727 82.7755 77.2544C82.7948 77.6372 82.7948 78.02 82.7948 78.4029C82.7948 79.9731 82.8461 81.5434 82.8076 83.1137C82.7884 83.9507 82.8076 84.7813 82.8397 85.6183C82.8397 85.7156 82.8461 85.8065 82.8525 85.9038C82.9038 86.7214 82.968 87.5455 82.9808 88.3695C82.9936 89.1676 82.9423 89.9657 82.9102 90.7639C82.8782 91.5944 82.8333 92.4314 82.7884 93.262C82.7499 94.0601 82.7435 94.8517 82.7563 95.6498C82.7691 96.6686 82.8204 97.6873 82.8204 98.706C82.8204 99.2251 82.8204 99.7442 82.814 100.257C82.8012 100.711 82.8076 101.172 82.8268 101.626C82.8397 101.827 82.8589 102.022 82.8653 102.223C82.8782 102.489 82.8076 102.755 82.7563 103.015C82.7306 103.164 82.7114 103.319 82.6857 103.469C82.6793 103.514 82.6729 103.56 82.6601 103.611C82.6152 103.819 82.5382 103.981 82.3971 104.137C82.2239 104.319 81.9673 104.429 81.7428 104.52C81.3965 104.669 81.0373 104.799 80.6845 104.929C79.8955 105.221 79.1066 105.513 78.3112 105.792C78.0931 105.87 77.8687 105.947 77.6634 106.012C77.5928 106.032 77.5223 106.058 77.4902 106.071C77.471 106.077 77.4517 106.084 77.4261 106.09H77.4068C77.3683 106.11 77.3363 106.116 77.2978 106.129C75.7327 106.635 74.1292 107.038 72.532 107.427C70.9092 107.823 69.28 108.16 67.6444 108.478C66.0216 108.789 64.3988 109.075 62.7696 109.341C61.1147 109.607 59.4598 109.886 57.805 110.152C56.9391 110.295 56.0667 110.431 55.2008 110.574C54.4311 110.704 53.6614 110.846 52.8853 110.97C51.2432 111.229 49.6012 111.476 47.9591 111.748C47.2985 111.859 46.6442 111.969 45.99 112.086C45.3999 112.203 44.8098 112.326 44.3159 112.423C44.1299 112.456 43.9438 112.495 43.854 112.507C43.033 112.663 42.2056 112.787 41.3717 112.897C40.5956 113.001 39.8131 113.091 39.0306 113.137C38.6329 113.163 38.2352 113.176 37.8375 113.215C37.427 113.254 37.0229 113.293 36.6124 113.332C35.817 113.409 35.0217 113.435 34.2327 113.513C33.6426 113.572 33.0589 113.662 32.4752 113.766C32.3213 113.792 32.1737 113.812 32.0198 113.805C31.8851 113.805 31.7504 113.786 31.6157 113.792C31.5965 113.792 31.5772 113.792 31.558 113.792C31.558 113.792 31.558 113.792 31.5516 113.792C31.4938 113.838 31.4425 113.883 31.372 113.916C31.2565 113.98 31.1282 114.006 31.0064 114.006C30.7306 114.006 30.4676 113.864 30.3265 113.604H30.3585Z" fill="#b80049" stroke="#b80049" stroke-width="0.5"></path>
<path d="M30.6985 113.416C30.4419 112.618 31.7184 112.572 32.2251 112.624C32.7575 112.533 33.2834 112.436 33.8222 112.384C36.7792 112.105 39.7554 112.014 42.6931 111.528C48.3889 110.438 54.1296 109.601 59.8447 108.64C67.1826 107.44 74.6808 106.239 81.5697 103.326C81.7493 102.547 81.7172 101.769 81.6787 100.977C81.7493 98.6346 81.5889 96.2922 81.6274 93.9498C81.698 92.3211 81.7942 90.699 81.8455 89.0703C81.884 87.4416 81.6531 85.8195 81.6595 84.1843C81.6723 81.7705 81.7236 79.3502 81.6082 76.9364C81.1592 76.5601 81.8198 75.8463 82.2111 76.2551C82.3522 76.4044 82.3394 76.638 82.3522 76.7353C82.442 77.4815 82.4228 78.2342 82.4228 78.9869C82.4292 82.2053 82.4228 85.4237 82.6152 88.6356C82.5831 91.0818 82.3266 93.5215 82.3971 95.9678C82.5062 97.9923 82.3907 100.023 82.4869 102.048C82.519 102.573 82.3522 103.092 82.2881 103.618C82.0379 104.273 80.351 104.552 79.7224 104.883C76.65 106.064 73.4557 106.862 70.2486 107.57C62.1089 109.244 53.8602 110.314 45.6885 111.768C41.7887 112.657 37.7926 112.845 33.8222 113.176C33.0269 113.319 32.2251 113.409 31.4233 113.442C31.2245 113.637 30.8589 113.734 30.6985 113.429V113.416Z" fill="#b80049" stroke="#b80049" stroke-width="0.5"></path>
</svg>