<svg viewBox="0 0 87 106" fill="none" xmlns="http://www.w3.org/2000/svg">
<path d="M50.5072 91.0479C50.1429 90.1896 49.4085 89.5547 48.9972 88.7199C47.9808 86.7681 47.3816 84.634 46.465 82.6352C45.9598 81.4477 45.4663 80.2425 44.7025 79.1901C41.9059 75.4982 39.4324 71.6063 37.2704 67.5205C35.8016 64.7574 34.4855 61.912 33.1166 59.1019C31.2072 55.5863 28.4517 52.4646 26.2426 49.1724C25.2615 47.7497 24.2568 46.4151 23.4578 44.8866C22.459 42.9583 21.5601 40.9771 20.5261 39.0665C20.0149 38.1317 19.398 37.2617 18.7577 36.4092C18.1408 35.7272 17.7236 34.9042 17.4357 34.04C16.6896 32.0764 16.3312 30.1423 15.8671 28.1376C15.491 26.415 15.0974 24.5338 14.645 22.8759C14.4629 22.1528 14.2573 21.4356 14.081 20.7125C13.9576 20.2128 13.7637 19.619 14.128 19.1781C14.5334 18.7019 15.2443 18.743 15.8201 18.6607C17.9292 18.3903 19.9562 19.4426 21.6247 20.6478C22.6412 21.4709 23.6164 22.3351 24.6798 23.0993C25.3202 23.5755 25.9489 24.0693 26.4835 24.6631C27.5587 25.833 28.4458 27.1969 29.0099 28.6843C29.5386 30.0071 29.662 31.4415 30.0733 32.7995C30.6373 32.9054 31.119 33.2581 31.6126 33.5344C32.582 34.0929 33.522 34.6926 34.462 35.3098C36.0718 36.2975 37.664 37.3204 39.1857 38.4374C41.1127 39.7955 43.0222 41.2064 44.5791 42.9936C45.7424 44.2634 46.6589 45.6626 47.5343 47.1265C48.351 48.4786 49.0325 49.9072 49.5436 51.4005C50.3309 53.6521 50.3015 56.0918 50.6364 58.4258C50.0783 56.3329 49.3028 54.3164 48.3862 52.3528C47.0937 49.4663 45.572 46.615 43.4334 44.2576C42.2408 42.9642 40.8895 41.8296 39.4501 40.8302C37.6464 39.5074 35.7898 38.2493 33.8804 37.0853C32.6055 36.274 31.3541 35.4157 29.9969 34.7513C28.9746 34.6396 28.5751 33.5697 28.4165 32.682C28.2637 31.9824 28.1286 31.2769 27.9641 30.5773C27.6762 29.378 27.1298 28.2551 26.4189 27.2498C26.037 26.7149 25.614 26.2034 25.1381 25.7448C24.439 25.0864 23.6341 24.5573 22.882 23.9635C21.9244 23.2287 21.0784 22.3468 20.0384 21.7236C18.693 20.9065 17.1714 20.2422 15.5615 20.4479C15.8671 21.2592 16.0609 22.1528 16.2666 22.9876C16.6132 24.2516 16.9011 25.5332 17.1537 26.8207C17.7412 29.3075 18.1525 31.8766 19.2218 34.2164C19.3687 34.5044 19.5743 34.7513 19.7799 34.9983C20.4086 35.8331 21.0196 36.6855 21.5542 37.585C22.2886 38.9607 22.9525 40.2423 23.6223 41.6062C24.1569 42.7408 24.6916 43.8754 25.3555 44.9454C26.6245 46.9031 27.9641 48.7785 29.3271 50.6597C30.6197 52.3293 31.8182 54.0577 33.0226 55.7803C35.1259 58.9196 36.2657 62.5587 37.3585 66.1389C38.2104 68.4258 39.4853 70.5305 40.8484 72.547C42.8577 75.5335 45.6308 77.9438 47.3992 81.0949C48.116 82.3706 48.4685 83.5288 48.9267 84.8457C49.4379 86.4741 49.9666 88.085 50.5483 89.6899C50.6775 90.219 50.842 90.7246 50.7245 91.2419C50.7128 91.2655 50.6893 91.289 50.6599 91.289C50.5659 91.289 50.5307 91.1302 50.5072 91.0538V91.0479Z" fill="#b80049" stroke="#b80049" stroke-width="0.4"></path>
<path d="M47.9515 49.3016C47.6107 48.3669 47.3052 47.4145 46.9703 46.4738C46.7236 45.6802 46.659 44.8454 46.6472 44.0165C46.6413 43.2816 46.7353 42.2116 47.5931 42.0059C48.3745 42.6114 48.0161 43.6931 47.9163 44.522C47.8399 45.7331 47.7165 46.9736 47.834 48.1846C47.8751 48.5256 47.9574 48.8313 48.0396 49.1488C48.1101 49.2252 48.0396 49.4192 47.9456 49.3016H47.9515Z" fill="#b80049" stroke="#b80049" stroke-width="0.4"></path>
<path d="M17.5063 28.8369C17.3418 28.8016 17.1361 28.737 17.0421 28.5841C17.0304 28.543 17.0539 28.4548 17.1126 28.4665C17.1244 28.4665 17.1479 28.4607 17.1479 28.4665C18.4522 27.8963 18.6872 26.1032 18.7224 24.8393C18.6578 23.5283 18.7577 22.2055 18.8106 20.9062C19.3804 22.1467 20.2558 23.3225 20.1795 24.7511C20.1325 26.3207 19.4744 28.9251 17.5121 28.8369H17.5063Z" fill="#b80049" stroke="#b80049" stroke-width="0.4"></path>
<path d="M15.3736 47.3557C13.7872 47.3557 10.268 46.9794 11.6428 44.6161C12.3008 43.3698 13.0764 42.194 13.9106 41.0593C14.6685 39.96 15.3148 38.7313 16.0903 37.6613C16.9481 36.4444 17.9293 35.3098 18.6343 33.987C18.6519 33.9517 18.693 33.9459 18.7283 33.9635C18.7635 33.987 18.7753 34.0458 18.7577 34.0869C18.2818 35.1393 17.8176 36.2034 17.3241 37.2439C16.5838 38.7666 16.0374 40.3774 15.2325 41.8648C14.5804 42.9759 13.8225 44.0223 13.2232 45.1687C15.9728 45.833 19.7212 45.2804 21.4367 42.823C21.9361 42.0588 22.3591 41.224 22.6 40.3362C22.6529 40.9124 22.7175 41.4356 22.788 41.9882C23.3051 45.786 18.4463 47.438 15.3853 47.3498L15.3736 47.3557Z" fill="#b80049" stroke="#b80049" stroke-width="0.4"></path>
<path d="M16.7543 44.9983C16.5898 43.7931 16.5604 42.5761 16.4605 41.3651C16.4194 40.7066 16.1021 40.1187 15.9376 39.4956C15.92 39.4074 15.9787 39.2369 16.0845 39.3192C16.2255 39.6249 16.5898 39.7778 16.7954 40.0541C17.9645 41.4768 17.33 43.4521 16.7543 44.9983Z" fill="#b80049" stroke="#b80049" stroke-width="0.4"></path>
<path d="M11.7133 35.198C11.0201 35.151 10.315 35.0451 9.65702 34.81C8.67587 34.4337 7.78871 33.8517 6.78993 33.5166C6.40804 33.3697 5.94978 33.2344 5.76765 32.8347C5.58552 32.4584 5.78527 32.0645 6.08491 31.8176C6.62542 31.2768 7.11894 30.6947 7.64771 30.148C8.81687 28.9193 10.1035 27.8082 11.4607 26.7911C12.4477 26.0563 13.4289 25.2685 14.5452 24.7394C14.6451 24.7041 14.7391 24.6982 14.8389 24.6982C14.9271 24.6982 14.9388 24.8511 14.8507 24.8629C14.4394 25.0216 14.2397 25.4919 13.9577 25.8094C13.7814 26.0445 13.6051 26.2738 13.4289 26.509C12.7356 27.479 11.9307 28.3373 11.0083 29.0898C9.73927 30.1539 8.44086 31.1827 7.17182 32.2409C8.23523 32.4055 9.19288 32.9346 10.2387 33.1757C11.6898 33.3991 13.2291 33.499 14.6451 33.0463C15.4147 32.7524 16.0845 32.2115 16.7307 31.7177C17.0245 31.4766 17.3183 31.2062 17.4945 30.8652C17.5239 31.1239 17.5474 31.4061 17.5415 31.6706C17.5709 34.7924 14.2044 35.4449 11.7075 35.1921L11.7133 35.198Z" fill="#b80049" stroke="#b80049" stroke-width="0.4"></path>
<path d="M9.62178 33.2522C10.2152 32.6525 10.5266 31.8589 11.0083 31.1769C11.7956 30.1893 12.9883 28.5432 12.2421 27.2733C12.2127 27.2322 12.1834 27.191 12.1364 27.1675C12.0894 27.1381 12.0894 27.0558 12.1246 27.0205C12.1775 26.9735 12.2362 27.0205 12.2774 27.0558C12.7004 27.5085 13.0999 28.0493 13.2056 28.6666C13.3408 29.6366 13.0353 30.6067 12.6064 31.465C11.9131 32.8583 11.1258 33.2345 9.61591 33.2522H9.62178Z" fill="#b80049" stroke="#b80049" stroke-width="0.4"></path>
<path d="M22.5824 18.0609C21.0784 18.0139 19.5215 18.008 18.1055 17.4319C16.8894 16.9086 15.8083 16.0738 15.0211 15.0156C14.7391 14.7334 13.2468 12.2349 13.9753 12.2231C14.1692 12.2819 14.3102 12.4701 14.4453 12.617C14.7684 12.9815 15.0916 13.346 15.4206 13.7046C16.9188 15.2684 18.7224 16.4854 20.9609 16.4912C23.0877 16.5442 25.3262 16.7499 27.3413 15.9151C28.1991 15.5271 28.9041 14.8863 29.6797 14.3631C30.2026 13.9457 30.8253 13.8398 31.4598 14.0574C33.3752 14.6923 35.4256 14.4395 37.3703 14.1044C37.9696 13.9809 38.5571 13.8046 39.1563 13.6811C39.7027 13.5753 40.2433 13.3931 40.6839 13.058C40.5135 13.9692 39.9495 14.7805 39.0976 15.1744C38.5159 15.4683 37.852 15.5683 37.2175 15.6858C35.1377 16.0562 32.9815 16.0915 30.9428 15.5447C30.0498 16.1561 29.2155 16.8734 28.205 17.2967C26.4424 18.0374 24.4625 18.1373 22.5942 18.0727L22.5824 18.0609Z" fill="#b80049" stroke="#b80049" stroke-width="0.4"></path>
<path d="M49.6846 34.1691C47.7752 33.3343 47.4932 32.2702 47.552 30.3067C47.5931 29.1426 47.8986 28.0198 48.2687 26.9263C48.4685 26.3737 48.6095 25.774 48.4802 25.1861C47.3346 24.3631 46.1772 23.5518 45.1901 22.5347C43.9622 21.2531 42.8283 19.8598 41.9529 18.3137C41.289 17.085 40.7602 15.7798 40.3548 14.4453C40.0787 13.4577 39.7321 12.4759 39.6263 11.4471C39.5558 10.7181 39.5793 9.98323 39.6674 9.25424C39.6851 9.10727 39.6968 8.90151 39.8378 8.8192C39.9025 8.77805 40.02 8.83684 39.9495 8.91326C39.8437 10.1714 40.0787 11.4647 40.5781 12.6287C41.4124 14.7334 42.5639 16.697 43.9152 18.5135C44.8435 19.6952 45.8364 20.8357 46.9292 21.8704C47.8692 22.7934 49.0384 23.4401 50.0489 24.2808C50.3897 24.6041 50.4367 25.1038 50.4602 25.5506C50.513 26.7852 49.8315 27.8904 49.6376 29.0897C49.4496 29.9657 49.4438 30.924 49.5495 31.8058C49.62 32.5995 49.3556 33.4284 49.6846 34.1809V34.1691Z" fill="#b80049" stroke="#b80049" stroke-width="0.4"></path>
<path d="M44.1326 31.8941C42.8048 31.2298 41.4829 30.5066 40.3783 29.5014C39.3796 28.5548 38.5747 27.3967 37.9695 26.1621C37.006 24.228 36.113 21.9469 36.9237 19.807C37.0647 19.4014 37.2292 18.9898 37.3702 18.5959C37.617 19.3367 37.9989 20.0304 38.2221 20.7829C38.4748 21.5766 38.557 22.4055 38.7509 23.2168C39.0976 24.422 39.6204 25.5801 40.1845 26.6971C40.7367 27.7436 41.3889 28.7312 42.135 29.6483C42.746 30.4185 43.3629 31.2239 44.1913 31.7647C44.2442 31.7353 44.3206 31.7647 44.3265 31.8294C44.3323 31.9293 44.1913 31.9293 44.1267 31.9L44.1326 31.8941Z" fill="#b80049" stroke="#b80049" stroke-width="0.4"></path>
<path d="M34.3563 24.7571C33.7453 24.7159 33.1989 24.4102 32.8522 23.9105C33.2282 23.7812 33.6278 23.6636 34.0331 23.6754C34.9086 23.74 35.737 24.0869 36.6065 24.1633C37.053 24.181 37.5171 24.1516 37.9578 24.1045C38.0107 24.0634 38.1164 24.0869 38.1047 24.1633C38.0635 24.2809 37.852 24.2691 37.7463 24.3221C37.3996 24.4279 37.0706 24.5748 36.724 24.6748C35.9543 24.8747 35.1377 24.8688 34.3563 24.7571Z" fill="#b80049" stroke="#b80049" stroke-width="0.4"></path>
<path d="M75.9703 49.8894C75.6413 49.2545 75.2182 48.6784 74.854 48.067C73.8258 46.1034 72.921 44.0752 72.075 42.0234C71.6226 40.8653 71.4993 39.6248 71.229 38.4197C71.1174 37.9141 70.9822 37.4085 70.8941 36.897C70.7531 36.0916 70.7179 35.2744 70.571 34.4749C70.3771 33.4755 70.0305 32.5172 69.6016 31.6001C68.4148 29.2956 66.9519 27.1439 65.5124 24.9922C62.8392 20.8358 60.1308 16.6441 57.199 12.67C57.2108 12.6876 57.2225 12.6994 57.2343 12.717C56.0593 11.065 54.7785 9.48359 53.5799 7.84925C52.1581 5.94447 50.754 3.87509 48.6154 2.71694C46.9116 1.79983 44.914 2.22311 43.175 2.81101C41.5005 3.34599 39.832 3.89861 38.1811 4.49826C35.1025 5.64465 31.9534 6.60291 28.9335 7.90216C25.2263 9.50122 21.4427 10.9122 17.5298 11.8763C16.8835 12.035 16.2372 12.1644 15.5733 12.1938C15.1797 12.2114 14.7626 12.1879 14.3924 12.3349C14.4453 12.6053 14.5746 12.8346 14.7038 13.0697C14.7273 13.1226 14.7802 13.2226 14.7214 13.2696C14.6803 13.3049 14.5746 13.2814 14.5922 13.2226C14.4571 12.9757 14.2632 12.7464 14.1927 12.4642C14.175 12.4113 14.1339 12.3231 14.1633 12.2702C14.1868 12.229 14.222 12.2055 14.2632 12.1879C14.4688 12.0762 14.6862 11.9821 14.9036 11.8881C16.0492 11.4178 17.1655 10.8769 18.3112 10.4125C19.7506 9.84808 21.2194 9.36601 22.6471 8.77224C25.7785 7.61997 28.8043 6.20315 31.9357 5.05088C33.4692 4.4865 35.0672 3.99267 36.5948 3.42829C39.0858 2.51706 41.5828 1.59407 44.1503 0.92975C48.022 0.071427 50.613 2.36421 52.9102 5.16258C54.9958 7.78458 56.9523 10.5065 59.0086 13.152C60.3364 14.9686 61.7523 16.7147 63.1624 18.4666C64.6429 20.3537 65.9707 22.3232 67.2926 24.3102C68.0388 25.3861 68.779 26.4737 69.4664 27.5907C70.1715 28.7194 70.8941 29.8482 71.4229 31.0769C72.0809 32.6054 72.31 34.2574 72.357 35.9094C72.4863 37.2909 72.8858 38.6313 73.2266 39.9717C73.7377 41.8765 74.6601 43.6343 75.4004 45.4567C76.2993 47.3556 76.5637 47.7142 75.9762 49.8894H75.9703Z" fill="#b80049" stroke="#b80049" stroke-width="0.4"></path>
<path d="M78.5318 51.5649C78.2674 51.1122 77.9678 50.6537 77.8855 50.1246C77.8385 49.8424 77.7915 49.5602 77.7445 49.278C77.58 48.4608 77.4155 47.6378 77.3274 46.8088C77.1453 44.6336 76.8104 42.4702 76.5695 40.3009C76.358 37.4731 75.9643 34.3279 73.7494 32.329C72.921 31.6177 71.9105 31.165 71.0233 30.536C70.0657 29.8423 69.4546 28.7899 68.779 27.8375C68.7614 27.7964 68.7731 27.72 68.8319 27.72C68.8612 27.72 68.8847 27.7376 68.8965 27.7611C69.3254 28.3431 69.9834 28.6959 70.6238 28.9957C71.8576 29.513 73.203 29.8305 74.2899 30.6536C77.3861 32.9992 77.9032 37.1556 78.1675 40.7712C78.4319 43.0111 78.8314 45.1863 78.8373 47.4085C78.8491 48.1375 78.8961 48.8665 78.9313 49.5955C79.0195 50.2833 78.8549 50.9594 78.5436 51.5649H78.5318Z" fill="#b80049" stroke="#b80049" stroke-width="0.4"></path>
<path d="M81.2638 85.4688C79.7362 85.5276 79.2368 84.634 78.6904 83.37C77.9326 81.5417 77.7093 79.5428 77.5977 77.5793C77.4332 75.8273 77.4684 73.8461 77.4743 72.1707C77.3509 68.8902 77.3333 65.5804 78.0971 62.3705C78.1852 62.0413 78.2851 61.7238 78.3908 61.4299C78.4261 61.2946 78.5436 61.0183 78.6787 61.2241C78.7845 61.1888 78.8197 61.3711 78.7081 61.3828C78.9313 62.5233 79.0665 63.6756 79.0136 64.8338C78.9666 65.9743 78.9255 67.1089 78.9372 68.2494C78.949 70.5598 79.0606 72.8702 79.0195 75.1807C79.1193 77.2794 79.1722 79.39 79.6716 81.4358C79.8479 82.0766 80.0652 82.6939 80.3766 83.2818C80.5235 83.5405 80.6939 83.7992 80.8055 84.0814C80.9935 84.534 81.0229 85.0396 81.2579 85.4688H81.2638Z" fill="#b80049" stroke="#b80049" stroke-width="0.4"></path>
<path d="M17.7412 14.4689C17.6649 14.4512 17.5709 14.4453 17.5004 14.4218C17.6707 14.3042 17.8294 14.1808 17.988 14.0515C18.5814 13.5224 19.1748 12.9874 19.8974 12.6346C20.4438 12.3054 20.8551 11.8057 21.2781 11.3354C21.566 10.9827 21.8539 10.6299 22.0478 10.2125C22.1535 10.0361 22.2123 9.44826 22.5002 9.60699C23.2933 10.7534 22.271 12.3995 21.5601 13.3577C20.5437 14.751 19.304 14.8157 17.7354 14.463L17.7412 14.4689Z" fill="#b80049" stroke="#b80049" stroke-width="0.4"></path>
<path d="M22.2652 36.456C22.2417 36.1503 22.3944 35.874 22.5061 35.5977C22.7763 35.004 23.1876 34.4513 23.781 34.1515C24.3332 33.8517 25.0265 33.8693 25.6082 34.0516C25.1851 34.4513 24.7328 34.8511 24.251 35.1862C23.734 35.5507 23.2111 35.9034 22.7763 36.3679C22.6412 36.5148 22.3474 36.8088 22.2652 36.456Z" fill="#b80049" stroke="#b80049" stroke-width="0.4"></path>
<path d="M37.053 56.2916C36.5712 55.7331 36.0366 55.2217 35.5548 54.6632C34.3974 53.2699 33.5338 51.8001 32.8464 50.154C32.7171 50.1717 32.6995 49.9894 32.7289 49.9012C32.8346 49.719 33.052 49.9012 33.1636 49.9835C34.3387 51.0476 35.4667 52.2234 36.16 53.6638C36.5595 54.4986 36.7827 55.4157 37.0471 56.2975L37.053 56.2916Z" fill="#b80049" stroke="#b80049" stroke-width="0.4"></path>
<path d="M53.3919 87.7792C52.6281 86.1625 51.929 84.6105 51.2298 82.9879C50.5718 81.5593 49.9255 80.1366 49.3263 78.6845C48.68 77.2442 47.8046 75.9332 47.0232 74.5634C46.5179 73.6463 46.1889 72.7586 45.7365 71.865C45.7718 71.959 45.7776 72.0649 45.7483 72.1589C45.5603 71.9767 45.525 71.6886 45.4604 71.4476C45.4428 71.283 45.6425 71.2418 45.76 71.3124C46.2007 71.5299 46.5238 71.9179 46.8528 72.2706C47.3933 72.8879 47.881 73.5463 48.3686 74.2048C49.244 75.3394 50.0078 76.5564 50.6247 77.8497C50.9772 78.5963 51.2709 79.3782 51.6176 80.1307C53.151 83.1995 53.3566 84.3636 53.3919 87.7792Z" fill="#b80049" stroke="#b80049" stroke-width="0.4"></path>
<path d="M75.465 83.0348C74.854 81.5474 74.1548 80.06 74.0021 78.4492C73.8611 76.4268 73.5379 74.3751 73.7729 72.3469C73.9727 71.8178 74.6307 74.1635 74.6953 74.2928C75.6119 77.1206 75.606 80.1129 75.465 83.0289V83.0348Z" fill="#b80049" stroke="#b80049" stroke-width="0.4"></path>
<path d="M66.9049 36.8499C66.5817 36.1621 66.2175 35.4919 65.9707 34.7688C65.6769 33.9751 65.5594 33.1345 65.3244 32.3232C65.0366 31.3649 64.4314 30.5536 63.8439 29.76C62.9802 28.6724 62.2458 27.7258 61.2764 26.7793C61.1707 26.6735 61.0473 26.5618 60.9592 26.4384C60.8945 26.3502 60.8182 26.2385 60.8828 26.1268C60.9533 25.9916 61.1237 26.0445 61.2412 26.068C63.462 26.7735 65.3421 28.8664 66.4055 30.8887C67.3396 32.817 67.2985 34.81 66.9107 36.8558L66.9049 36.8499Z" fill="#b80049" stroke="#b80049" stroke-width="0.4"></path>
<path d="M48.9855 9.00741C48.1454 8.19612 47.364 7.33779 46.5826 6.47359C45.9715 5.80339 44.9728 5.89158 44.1444 5.8857C43.9094 5.87982 43.6567 5.89746 43.4393 5.77988C43.316 5.71521 43.2396 5.51533 43.3453 5.39775C44.444 4.44536 46.1361 3.95153 47.2876 5.09204C48.3451 6.12085 48.6154 7.64938 48.9855 9.00741Z" fill="#b80049" stroke="#b80049" stroke-width="0.4"></path>
<path d="M59.4727 105.986C58.6972 105.986 57.9216 105.916 57.1461 105.851C56.3882 105.786 55.6421 105.669 54.8901 105.539C53.433 105.281 52.0053 104.899 50.5542 104.599C49.9196 104.469 49.291 104.34 48.6682 104.175C48.3451 104.087 48.0278 103.981 47.7164 103.864C47.4286 103.758 47.1289 103.629 46.8587 103.482C46.5238 103.294 46.183 103.1 45.9128 102.817C45.6954 102.588 45.5426 102.259 45.5485 101.936C45.5485 101.683 45.5896 101.448 45.6425 101.201C45.7718 100.601 45.9245 100.013 46.0538 99.4136C46.183 98.7198 46.2829 98.0202 46.371 97.3206C46.4709 96.5564 46.5355 95.7862 46.6295 95.0161C46.7177 94.293 46.8704 93.5758 46.9409 92.8468C47.0173 92.1002 47.0526 91.3535 47.2288 90.6246C47.3169 90.2542 47.4403 89.8662 47.7987 89.6722C47.975 89.5781 48.1512 89.5546 48.3451 89.5664C48.398 89.5664 48.445 89.584 48.4979 89.5899C48.9561 89.6663 49.4144 89.7486 49.8785 89.8074C50.4308 89.8779 50.9831 89.925 51.5353 89.9838C52.1287 90.0484 52.728 90.1072 53.3214 90.1542C53.3273 90.1542 53.339 90.1542 53.3449 90.1542C53.4389 90.1542 53.5388 90.166 53.6269 90.1719C53.6974 90.1719 53.762 90.1778 53.8325 90.1836C54.0499 90.1954 54.2732 90.2072 54.4905 90.2248C54.8548 90.2424 55.2191 90.2659 55.5833 90.2836C57.0639 90.3659 58.5444 90.4129 60.0308 90.3541C60.7887 90.3247 61.5466 90.2836 62.2987 90.2365C62.8979 90.1895 63.4854 90.119 64.0788 90.0367C64.6605 89.9544 65.2363 89.8309 65.812 89.7133C66.7932 89.5017 67.7685 89.2724 68.732 88.9961C69.6896 88.7257 70.6355 88.4082 71.5815 88.0907C72.2336 87.8615 72.8799 87.6204 73.5261 87.3735C74.143 87.1383 74.7482 86.8856 75.3592 86.6445C75.9879 86.3976 76.6165 86.1507 77.251 85.9214C77.8797 85.6921 78.5142 85.4864 79.1428 85.2689C79.4718 85.1513 79.795 85.0278 80.1181 84.8985C80.3942 84.7868 80.6586 84.6574 80.923 84.5222C81.3108 84.3165 81.7044 84.1166 82.0804 83.8873C82.2155 83.7697 82.4153 83.6404 82.5974 83.6286C82.8207 83.611 83.0381 83.6815 83.1908 83.8285C83.4552 83.8755 83.6902 84.0637 83.749 84.3341C83.8018 84.5634 83.7901 84.7985 83.8018 85.0337C83.8195 85.2806 83.8547 85.5275 83.9017 85.7686C84.1309 86.8444 84.5127 87.8791 84.8359 88.8315C85.0885 89.5546 85.3881 90.2659 85.6584 90.9832C85.9228 91.6945 86.2342 92.3882 86.4751 93.1055C86.5749 93.4112 86.6396 93.7463 86.5456 94.0637C86.4692 94.3283 86.2988 94.5576 86.1284 94.7633C85.6525 95.3453 85.1061 95.8509 84.5421 96.3389C83.42 97.3148 82.2332 98.2142 80.9759 99.0138C80.3414 99.4194 79.7068 99.8192 79.0606 100.201C78.3673 100.607 77.6682 101.001 76.9573 101.377C75.6353 102.083 74.2723 102.741 72.874 103.282C72.1455 103.564 71.417 103.84 70.6767 104.081C69.954 104.317 69.2314 104.522 68.497 104.716C67.7567 104.91 67.0106 105.081 66.2585 105.245C65.5418 105.404 64.8191 105.551 64.0906 105.651C63.3151 105.757 62.5454 105.857 61.764 105.904C61.3821 105.927 61.0061 105.951 60.6242 105.963C60.3246 105.974 60.0308 105.974 59.7371 105.974C59.6372 105.974 59.5432 105.974 59.4433 105.974L59.4727 105.986ZM59.8135 104.581C60.448 104.581 61.0766 104.558 61.7053 104.516C62.2869 104.464 62.8686 104.417 63.4443 104.334C64.0495 104.252 64.6487 104.146 65.248 104.034C66.1998 103.834 67.1516 103.611 68.0975 103.376C69.0199 103.147 69.9247 102.864 70.8294 102.559C71.5403 102.306 72.2571 102.047 72.9504 101.747C73.6848 101.43 74.4133 101.101 75.1359 100.754C76.0877 100.272 77.0336 99.7839 77.9502 99.2431C78.9078 98.6787 79.8537 98.0967 80.782 97.4794C81.3166 97.109 81.8454 96.7269 82.3624 96.3271C82.8971 95.9156 83.4141 95.4747 83.9252 95.0337C84.266 94.7222 84.5891 94.4047 84.9005 94.0637C85.0004 93.9461 85.0944 93.8344 85.1884 93.711C85.1884 93.711 85.1943 93.6992 85.2001 93.6934C85.1708 93.5817 85.1355 93.47 85.1003 93.3583C84.8359 92.6587 84.548 91.9649 84.2836 91.2595C84.0134 90.5481 83.7255 89.8485 83.4787 89.1313C83.2496 88.4552 83.0146 87.785 82.8148 87.0972C82.6444 86.5152 82.4976 85.9214 82.4388 85.3159C82.2861 85.4041 82.1333 85.4923 81.9805 85.5687C81.5575 85.7921 81.1345 85.9978 80.6997 86.1918C80.2767 86.38 79.8302 86.5269 79.3896 86.6798C78.9607 86.8268 78.5318 86.9679 78.1029 87.1207C76.7105 87.6263 75.3416 88.1966 73.9609 88.7257C72.4862 89.2959 70.9881 89.8015 69.4781 90.2601C68.0093 90.701 66.5053 91.0302 65.0012 91.3124C63.5501 91.5887 62.0754 91.6769 60.6066 91.7416C59.8311 91.7709 59.0497 91.7945 58.2742 91.7886C57.5515 91.7827 56.823 91.7592 56.1003 91.718C55.3189 91.6769 54.5317 91.6357 53.7503 91.5828C53.6856 91.5828 53.6151 91.5769 53.5505 91.5711C53.4389 91.5652 53.3273 91.5711 53.2156 91.5475C53.0981 91.5417 52.9806 91.5299 52.8631 91.524C52.5929 91.5064 52.3285 91.477 52.0582 91.4535C51.5471 91.4006 51.0418 91.3418 50.5307 91.2889C50.043 91.2418 49.5554 91.1831 49.0736 91.1066C48.915 91.0831 48.7622 91.0537 48.6036 91.0302C48.586 91.0949 48.5742 91.1654 48.5566 91.2301C48.4332 91.9414 48.4038 92.6587 48.3157 93.37C48.2217 94.099 48.0807 94.8221 48.0043 95.5511C47.8457 97.0679 47.6812 98.5905 47.3639 100.084C47.2582 100.589 47.1231 101.089 47.0114 101.589C46.9938 101.671 46.982 101.753 46.9703 101.842C46.9703 101.853 46.9703 101.859 46.9703 101.871C46.9703 101.871 46.9762 101.877 46.9821 101.883C47.0349 101.924 47.0878 101.965 47.1466 102.006C47.2876 102.094 47.4227 102.177 47.5696 102.253C47.881 102.4 48.1982 102.529 48.5213 102.653C48.7446 102.723 48.9679 102.788 49.1911 102.847C49.432 102.912 49.6788 102.964 49.9196 103.023C50.4073 103.135 50.9008 103.223 51.3884 103.329C52.3578 103.541 53.3273 103.77 54.2967 103.981C54.9077 104.105 55.5128 104.217 56.1297 104.311C56.7407 104.399 57.3518 104.452 57.9628 104.511C58.5855 104.546 59.2024 104.575 59.8252 104.581H59.8135Z" fill="#b80049" stroke="#b80049" stroke-width="0.4"></path>
<path d="M58.6972 105.61C56.4411 105.534 54.2203 105.093 52.0289 104.564C50.5601 104.199 49.0267 104.034 47.6166 103.452C45.055 102.506 46.0597 101.442 46.4239 99.3666C46.8117 96.9092 47.0937 94.44 47.3816 91.9709C47.505 91.2595 47.4404 89.6546 48.5449 89.9603C49.5848 90.1602 50.6365 90.2542 51.694 90.3659C61.2177 91.3889 67.4454 90.46 76.2464 86.6975C77.9561 85.992 79.7774 85.5687 81.4107 84.6869C81.8983 84.5576 82.6974 83.5934 83.0264 84.1813C83.702 84.1578 83.3789 85.0984 83.5199 85.5217C83.6844 86.5035 84.0134 87.45 84.3307 88.3906C84.6773 89.4606 85.1121 90.5011 85.5116 91.5535C85.7407 92.4118 86.5574 93.3583 86.105 94.2401C79.8538 101.148 67.9976 105.969 58.6972 105.61ZM57.9511 104.863C67.2574 105.522 78.9549 100.742 85.3941 94.0344C85.8582 93.5053 84.8947 92.2119 84.7654 91.5594C83.9664 89.3371 82.8736 87.1208 82.7561 84.7339C82.7561 84.7339 82.7444 84.7398 82.7385 84.7457C80.9054 85.9332 78.7551 86.48 76.734 87.2618C73.2089 88.6728 69.6486 90.0602 65.9119 90.7892C60.1366 91.9121 54.1322 91.4594 48.3451 90.6422C47.646 94.3518 47.5755 98.1849 46.6002 101.853C47.3757 103.253 50.7246 103.435 52.211 103.887C54.1028 104.334 56.0064 104.758 57.9511 104.869V104.863Z" fill="#b80049" stroke="#b80049" stroke-width="0.4"></path>
<path d="M83.2496 56.5091C82.9618 56.3798 82.762 56.1152 82.5799 55.8566C82.5329 55.8154 82.48 55.7801 82.4271 55.7449C81.634 55.1922 80.7997 54.6984 80.0829 54.187L80.0007 54.1282C79.9243 54.0694 79.842 54.0165 79.8362 54.0165L79.7363 53.9459C78.8491 53.3169 77.9855 52.6467 77.1101 51.9941C76.264 51.3592 75.4239 50.7125 74.5602 50.1011C73.3323 49.2487 72.0809 48.4374 70.8119 47.6437C69.5605 46.8559 68.2562 46.1446 66.9636 45.4274C66.2821 45.0511 65.6123 44.6631 64.9484 44.2574C64.308 43.8636 63.6794 43.4579 63.0449 43.0581C61.7934 42.2645 60.5244 41.5061 59.2671 40.7183C58.6502 40.3303 58.0451 39.9129 57.4399 39.5014C56.823 39.084 56.1944 38.696 55.554 38.3256C54.2908 37.5907 53.0277 36.8441 51.7351 36.1563C51.6999 36.1387 51.6588 36.1151 51.6235 36.0975C50.9655 35.7565 50.3075 35.4155 49.6671 35.0511C48.9855 34.663 48.3158 34.2574 47.646 33.8459C46.3887 33.0816 45.1138 32.335 43.8448 31.5766C42.564 30.8123 41.2714 30.0716 39.973 29.325C38.657 28.5666 37.3527 27.8023 36.0543 27.0204C34.7793 26.2562 33.475 25.539 32.1825 24.7923C30.9135 24.0575 29.6914 23.2697 28.4576 22.4819C27.3178 21.7588 26.1604 21.0592 24.9854 20.4008C24.4038 20.0774 23.8221 19.7541 23.2405 19.4307C22.7176 19.1427 22.2064 18.8252 21.6777 18.543C21.6542 18.5313 21.6248 18.5195 21.6013 18.5019C21.4309 18.4137 21.2958 18.2844 21.2253 18.1021C21.1607 17.9316 21.1665 17.7376 21.2429 17.573C21.3957 17.2379 21.8304 17.0439 22.1771 17.2144C22.8057 17.5319 23.405 17.9081 24.016 18.2491C24.6329 18.5901 25.2557 18.9369 25.8726 19.2838C27.1533 20.001 28.4048 20.777 29.6444 21.5707C30.2378 21.9528 30.8312 22.3349 31.4305 22.7053C32.0533 23.0933 32.6878 23.4637 33.3282 23.8282C34.6207 24.5689 35.9191 25.2979 37.1999 26.0681C38.5042 26.8558 39.8261 27.6142 41.148 28.3785C41.7767 28.743 42.4112 29.1016 43.0399 29.4661C43.6979 29.8482 44.3441 30.2421 44.9963 30.6301C46.0714 31.2709 47.1525 31.9058 48.2218 32.5525C49.2676 33.1874 50.3075 33.8165 51.3474 34.3691C51.365 34.375 51.3826 34.3867 51.3944 34.3926C52.0348 34.7277 52.6752 35.0628 53.3097 35.4097C53.956 35.7624 54.5846 36.1387 55.2191 36.509C55.8478 36.8735 56.4823 37.2263 57.0992 37.6143C57.7513 38.014 58.3741 38.4491 59.0086 38.8782C59.6196 39.2898 60.2424 39.6778 60.871 40.0658C61.4821 40.442 62.099 40.8242 62.71 41.2004C64.0025 41.9999 65.2774 42.8289 66.5876 43.6108C67.228 43.9929 67.8919 44.3398 68.544 44.7042C69.1903 45.0629 69.8307 45.4274 70.4711 45.8036C71.1174 46.1799 71.7519 46.5796 72.3923 46.9853C73.0327 47.3909 73.6672 47.7966 74.29 48.2198C74.8246 48.5785 75.3534 48.943 75.8704 49.3192C76.3874 49.6955 76.8927 50.0776 77.398 50.4597C77.9208 50.8536 78.4496 51.2475 78.9725 51.6414C79.4601 52.0117 79.9478 52.388 80.4354 52.729C80.4472 52.7407 80.4589 52.7466 80.4707 52.7584C80.4824 52.7701 80.4942 52.776 80.5177 52.7878C80.5823 52.8348 80.6469 52.8818 80.7116 52.923C80.7468 52.9524 80.7879 52.9759 80.8232 53.0053C80.8349 53.0112 80.8408 53.017 80.8526 53.0229C81.3872 53.3874 81.9277 53.7343 82.4682 54.0811C82.7267 54.2457 82.9735 54.4162 83.2203 54.5926C83.2555 54.6161 83.2966 54.6455 83.3319 54.6749C83.4318 54.7161 83.5199 54.7866 83.5904 54.8748C83.7432 55.0041 83.89 55.1393 84.0075 55.2981C84.1015 55.4156 84.1838 55.5509 84.2132 55.6978C84.2484 55.8566 84.2249 56.0094 84.1603 56.1564C84.0487 56.4151 83.7843 56.5738 83.5081 56.5738C83.4141 56.5738 83.3143 56.5562 83.2261 56.515L83.2496 56.5091Z" fill="#b80049" stroke="#b80049" stroke-width="0.4"></path>
<path d="M83.3965 56.1917C82.7032 55.4921 81.9159 54.9219 81.0523 54.4163C79.1487 53.1582 77.3861 51.7179 75.5472 50.3716C71.323 47.2087 66.5229 44.9571 62.1224 42.0588C59.5785 40.5773 57.2166 38.8136 54.6433 37.385C52.0758 35.8859 49.4026 34.5867 46.8998 32.9817C41.43 29.6895 35.8603 26.5796 30.3905 23.2933C28.064 21.7824 25.6845 20.3479 23.2463 19.0252C22.7939 18.6489 21.3604 18.2668 21.5836 17.7259C21.66 17.5554 21.8774 17.4614 22.0478 17.5496C22.6647 17.867 23.2463 18.2374 23.8573 18.5666C26.4013 19.9305 28.8395 21.4649 31.2659 23.017C36.4008 26.0505 41.5945 28.9899 46.7118 32.0587C49.8609 34.0517 53.2098 35.686 56.4059 37.5967C59.5256 39.6073 62.7863 41.6825 65.9178 43.6108C68.5029 45.1041 71.1467 46.5033 73.6201 48.1846C76.1524 49.819 78.4554 51.7767 80.9289 53.4933C81.7925 54.1106 82.7561 54.5927 83.5433 55.2981C83.7372 55.4804 83.9781 55.7332 83.8606 56.0154C83.7901 56.1917 83.5668 56.274 83.3965 56.1917Z" fill="#b80049" stroke="#b80049" stroke-width="0.4"></path>
<path d="M80.1123 63.2347C79.9125 63.1995 79.7421 63.1172 79.5718 63.029C79.3544 62.9173 79.1546 62.7762 78.949 62.6468C78.3204 62.253 77.6858 61.8708 77.0866 61.4417C76.452 60.989 75.8469 60.5069 75.2476 60.0131C74.2253 59.1783 73.2383 58.2964 72.2102 57.4734C71.1291 56.6033 70.0187 55.7744 68.8907 54.969C67.7098 54.1518 66.4877 53.3934 65.2598 52.6468C64.0848 51.9354 62.9039 51.2359 61.6936 50.5892C60.3717 49.9013 59.0262 49.2605 57.7043 48.5668C57.0463 48.22 56.4 47.8614 55.7596 47.4733C55.131 47.0912 54.5141 46.6914 53.8854 46.3152C53.2392 45.9272 52.5753 45.5803 51.9231 45.2158C51.271 44.8572 50.6306 44.481 49.9902 44.0988C49.3615 43.7226 48.7447 43.3169 48.1278 42.9289C47.4991 42.5292 46.8705 42.1353 46.2418 41.7414C45.6191 41.3475 45.0139 40.9419 44.4029 40.5303C43.7684 40.107 43.128 39.6896 42.4935 39.2664C41.8824 38.8607 41.2773 38.4433 40.6721 38.0377C40.0494 37.6203 39.409 37.2205 38.7803 36.809C38.1928 36.4268 37.6053 36.0447 37.0002 35.6802C36.3656 35.2981 35.7194 34.9395 35.0848 34.5573C33.8158 33.7931 32.5879 32.97 31.3423 32.1705C30.843 31.8472 30.3436 31.5297 29.8383 31.2122C29.38 30.9242 28.9218 30.6302 28.4518 30.3657C28.1169 30.1775 28.0229 29.7131 28.2167 29.3956C28.4224 29.0605 28.8513 28.9724 29.1862 29.1605C29.7795 29.4956 30.3553 29.8718 30.9311 30.2363C31.5421 30.6243 32.1531 31.0182 32.7583 31.4121C34.0038 32.2293 35.2552 33.0347 36.5478 33.7813C37.1882 34.1517 37.8286 34.5279 38.4572 34.9218C39.0388 35.2863 39.6087 35.6685 40.1904 36.0388C41.4477 36.8501 42.6815 37.6967 43.927 38.5256C44.5733 38.9548 45.2195 39.3781 45.8658 39.8131C46.471 40.2187 47.0879 40.6068 47.7047 40.9948C48.3275 41.3887 48.9503 41.7825 49.5731 42.1764C50.1782 42.5644 50.7892 42.9407 51.4061 43.2993C52.5518 43.9577 53.7268 44.575 54.8666 45.257C55.413 45.5862 55.9535 45.9272 56.494 46.2682C57.0287 46.6033 57.5868 46.909 58.145 47.2088C59.4551 47.8966 60.7947 48.5374 62.1107 49.2194C63.4032 49.8896 64.6605 50.6303 65.9061 51.3887C67.1986 52.1765 68.497 52.9584 69.7308 53.8402C70.9705 54.7221 72.1984 55.6333 73.3734 56.6033C74.8951 57.8555 76.358 59.19 77.962 60.3423C78.3145 60.5833 78.6729 60.8185 79.0371 61.0419C79.2251 61.1595 79.4073 61.2771 79.5953 61.3888C79.7656 61.4946 79.9419 61.6063 80.1123 61.7121C80.5235 60.9126 80.8526 60.0719 81.2638 59.2782L81.3108 59.1842C81.5399 58.755 81.7985 58.3376 82.0335 57.9143C82.1392 57.7086 82.2391 57.4969 82.3331 57.2853C82.4389 57.056 82.5211 56.815 82.574 56.668C82.6504 56.4622 82.7209 56.2506 82.7972 56.0448C82.8912 55.7803 82.9852 55.451 83.2026 55.2629C83.4494 55.0454 83.7667 55.016 84.0545 55.1747C84.407 55.3629 84.4482 55.7861 84.36 56.133C84.3248 56.2682 84.2484 56.3799 84.1427 56.4681C84.1427 56.4681 84.1427 56.474 84.1427 56.4799C83.937 57.0501 83.7373 57.6204 83.4846 58.1671C83.232 58.7315 82.8913 59.2488 82.5857 59.7838C82.5799 59.8014 82.5681 59.8132 82.5622 59.8308C82.5446 59.872 82.5211 59.9073 82.4976 59.9484C82.1686 60.5833 81.9101 61.2535 81.5928 61.8943C81.5165 62.0531 81.4342 62.2118 81.3519 62.3647C81.1816 62.688 80.9877 63.0055 80.641 63.1701C80.5177 63.2289 80.3825 63.2583 80.2474 63.2583C80.2004 63.2583 80.1593 63.2583 80.1123 63.2465V63.2347Z" fill="#b80049" stroke="#b80049" stroke-width="0.4"></path>
<path d="M79.9595 62.829C76.8221 61.1653 74.2899 58.655 71.5227 56.4798C67.3396 53.2111 62.7276 50.6537 57.998 48.3257C52.2462 45.0746 46.5943 41.6943 41.1598 37.9376C37.2469 35.3509 33.1107 32.9523 29.2155 30.4008C28.9335 30.1716 28.3342 30.0657 28.4928 29.6072C28.5634 29.4426 28.7925 29.3368 28.957 29.4308C29.4564 29.713 29.9381 30.0246 30.4199 30.3303C34.4914 33.0346 38.7568 35.4097 42.7754 38.1845C47.1172 41.2181 51.7586 43.8636 56.2884 46.562C61.4938 49.4192 66.9224 51.9471 71.6108 55.6508C74.4721 57.8378 77.0336 60.4539 80.2297 62.1706C80.8878 61.13 81.2285 59.9189 81.8807 58.8666C82.5504 57.8731 82.8853 56.7208 83.3436 55.6332C83.7372 54.9865 84.3894 55.8683 83.8489 56.2211C83.4435 57.5968 82.7208 58.8137 82.0393 60.0659C81.5282 60.789 81.1228 63.2229 79.9654 62.8231L79.9595 62.829Z" fill="#b80049" stroke="#b80049" stroke-width="0.4"></path>
<path d="M70.8353 56.0329C70.6591 55.9212 70.5063 55.7154 70.5004 55.4979C70.5004 55.3744 70.5063 55.2569 70.5592 55.1393C70.5886 55.0687 70.6414 55.0041 70.6826 54.9394C70.7472 54.8277 70.8118 54.7219 70.8706 54.6102L70.8823 54.5867C70.9117 54.5338 70.9352 54.4808 70.9646 54.4279C70.9763 54.3985 70.9939 54.375 71.0057 54.3456C71.4052 53.5814 71.8047 52.8171 72.2336 52.0705C72.4451 51.706 72.6684 51.3415 72.8975 50.9829C73.0033 50.8183 73.1031 50.6537 73.2148 50.4949C73.3323 50.3244 73.4615 50.1598 73.5849 49.9893C73.6672 49.8659 73.7494 49.7424 73.8258 49.619C74.0255 49.2898 74.4662 49.1839 74.7952 49.3838C75.1183 49.5837 75.23 50.0305 75.0243 50.3538C74.8481 50.6419 74.6483 50.9123 74.4427 51.1886C74.284 51.4179 74.1313 51.659 73.9844 51.9C73.7905 52.2057 73.6025 52.5114 73.4263 52.823C73.0796 53.4226 72.7565 54.0399 72.4334 54.6513C72.3746 54.763 72.3159 54.8806 72.2512 54.9923C72.2336 55.0276 72.2101 55.0687 72.1925 55.104C72.169 55.151 72.1396 55.1981 72.1161 55.2451C72.0456 55.3803 71.9751 55.5155 71.8987 55.6449C71.8576 55.786 71.7695 55.9094 71.6402 55.9917C71.5697 56.0329 71.5227 56.0682 71.4463 56.0975C71.37 56.1269 71.2877 56.1387 71.2054 56.1387C71.0762 56.1387 70.9469 56.1034 70.8353 56.0329Z" fill="#b80049" stroke="#b80049" stroke-width="0.4"></path>
<path d="M71.0234 55.733C70.7472 55.5625 70.8706 55.2333 71.041 55.0275C71.5051 54.1751 71.9399 53.3109 72.4158 52.4702C72.9269 51.5413 73.5321 50.6771 74.1255 49.8012C74.3605 49.4132 74.9715 49.7835 74.7247 50.1715C73.82 51.4473 72.9974 52.7818 72.2865 54.1751C71.9634 54.5631 71.652 56.0328 71.0175 55.733H71.0234Z" fill="#b80049" stroke="#b80049" stroke-width="0.4"></path>
<path d="M74.1783 59.1195C73.8552 59.0666 73.6143 58.7903 73.5791 58.4669C73.5673 58.367 73.5791 58.2612 73.5967 58.1612C73.6319 57.8908 73.8435 57.6792 74.0961 57.6027C74.1372 57.5322 74.1783 57.4616 74.2195 57.3852C74.7189 56.3858 75.1242 55.3393 75.606 54.3282C75.8293 53.8579 76.0525 53.3934 76.2817 52.9231C76.4755 52.5175 76.6694 52.1059 76.8809 51.7062C76.8927 51.6827 76.9044 51.665 76.9103 51.6415C77.0748 51.2946 77.4861 51.1242 77.8445 51.2829C78.1911 51.4357 78.3674 51.8708 78.2028 52.2176C78.1676 52.2882 78.1323 52.3529 78.0971 52.4234C77.8092 52.976 77.5507 53.5404 77.2863 54.0989C76.9926 54.7162 76.687 55.3335 76.4109 55.9625C76.1172 56.6386 75.8293 57.3205 75.5003 57.979C75.2652 58.4434 74.901 59.1254 74.3135 59.1254C74.2723 59.1254 74.2312 59.1254 74.1842 59.1136L74.1783 59.1195Z" fill="#b80049" stroke="#b80049" stroke-width="0.4"></path>
<path d="M74.1901 58.7608C73.7847 58.6491 73.867 57.8966 74.3076 57.9201C75.3828 55.9095 76.1759 53.7578 77.2452 51.7413C77.3274 51.565 77.5801 51.5297 77.7328 51.6238C78.244 51.9412 77.1747 53.2287 77.0631 53.7166C76.4462 54.5867 75.1242 59.0136 74.1842 58.7549L74.1901 58.7608Z" fill="#b80049" stroke="#b80049" stroke-width="0.4"></path>
<path d="M14.0223 21.2357C13.8402 21.0887 13.6757 20.9241 13.5053 20.7712C13.1763 20.5008 12.8355 20.2539 12.483 20.0187C12.1599 19.8188 11.8426 19.619 11.5253 19.4073C11.2257 19.2074 10.9319 18.9899 10.6382 18.7842C10.0859 18.3961 9.51015 18.0375 8.94613 17.673L8.92263 17.6554C8.37037 17.3085 7.80635 16.9852 7.23645 16.6736C7.03082 16.5619 6.83107 16.4502 6.64306 16.3209C6.51381 16.2327 6.41393 16.1269 6.33755 16.0269C6.13779 15.7389 5.90866 15.4743 5.69128 15.198C5.4739 14.9217 5.25652 14.6513 5.03326 14.375C4.56912 13.8047 4.13435 13.2168 3.69959 12.623C3.2472 12.0116 2.78306 11.4179 2.31305 10.8182C2.08979 10.536 1.85478 10.2538 1.63152 9.97165C1.40827 9.69534 1.19676 9.41315 0.973504 9.13096C0.808998 8.91932 0.638618 8.71356 0.479988 8.50192C0.432986 8.43725 0.385985 8.37258 0.338984 8.30791C0.291982 8.23737 0.244981 8.1727 0.209729 8.09627C0.150978 7.9493 0.139227 7.79057 0.180353 7.63772C0.250856 7.36729 0.479988 7.14389 0.767872 7.10861C1.00288 7.07922 1.22026 7.13801 1.44352 7.20268C1.57865 7.23795 1.71378 7.2791 1.85478 7.31437C2.17792 7.40256 2.49518 7.47898 2.81831 7.56129C3.42933 7.71414 4.04623 7.84936 4.65137 8.01397C5.29177 8.18446 5.93216 8.34907 6.57256 8.51955C6.88394 8.60186 7.18945 8.68416 7.50671 8.75471C7.78285 8.81938 8.06486 8.87229 8.34686 8.91932C8.79925 8.99575 9.25752 9.04866 9.70403 9.16036C9.87441 9.20151 10.033 9.24266 10.1917 9.31909C10.4326 9.43667 10.6558 9.58952 10.8849 9.73061C11.1376 9.89522 11.3902 10.0598 11.6428 10.2303C12.0952 10.536 12.5535 10.8359 12.9941 11.1239C13.3937 11.3767 13.7873 11.6413 14.1574 11.8823C14.3102 11.9822 14.4336 12.1175 14.4806 12.2997C14.5276 12.4761 14.5099 12.6701 14.4218 12.8288C14.2456 13.1521 13.7873 13.3109 13.4642 13.1051C13.1586 12.9111 12.8649 12.7112 12.5594 12.5172C11.7603 12.0058 10.9731 11.4708 10.1799 10.9534C9.96842 10.8182 9.75691 10.683 9.53365 10.5654C9.39852 10.5301 9.25164 10.5008 9.17527 10.4831C9.15176 10.4831 9.13414 10.4772 9.11064 10.4714C8.45849 10.3538 7.80635 10.2656 7.16008 10.1186C6.42568 9.94813 5.70303 9.74237 4.97451 9.55425C4.28711 9.37788 3.60559 9.20151 2.91819 9.0369C2.82419 9.01338 2.73018 8.98987 2.63031 8.96635C3.06507 9.51897 3.50571 10.0598 3.9346 10.6125C4.39286 11.2062 4.83938 11.8059 5.28589 12.4114C5.72653 13.0052 6.20242 13.5754 6.66069 14.1574C6.92507 14.4925 7.2012 14.8218 7.44796 15.1686C7.45971 15.1745 7.46559 15.1804 7.47734 15.1921C7.84747 15.4214 8.23524 15.6095 8.61125 15.8271C9.08714 16.0975 9.55128 16.3914 10.0095 16.6913C10.4561 16.9793 10.8967 17.2615 11.3373 17.5613C11.7662 17.8494 12.1775 18.1551 12.6123 18.4432C13.0176 18.696 13.4348 18.9429 13.8225 19.231C14.1809 19.4955 14.5099 19.7836 14.8389 20.0834C14.8683 20.1069 14.8977 20.1304 14.9271 20.1539C15.0622 20.2892 15.1327 20.4655 15.1503 20.6595C15.168 20.9064 15.0093 21.1534 14.8037 21.2768C14.6979 21.3415 14.5687 21.3709 14.4394 21.3709C14.2926 21.3709 14.1457 21.3239 14.0282 21.2357H14.0223Z" fill="#b80049" stroke="#b80049" stroke-width="0.4"></path>
<path d="M14.1927 20.9181C13.3466 20.0656 12.2773 19.5189 11.3079 18.831C9.89202 17.814 8.39384 16.9204 6.87805 16.0621C6.04377 15.2155 5.36225 14.1808 4.5926 13.2578C3.61144 11.9057 2.57741 10.5947 1.5375 9.28955C1.30249 8.87214 -0.136928 7.67284 0.850103 7.45532C3.80532 8.07849 6.71354 9.04851 9.70989 9.5247C10.3562 9.70695 10.8849 10.189 11.4548 10.5359C12.2832 11.0944 13.1292 11.6294 13.9635 12.1761C14.3572 12.4054 14.0281 13.0168 13.6228 12.7934C12.4712 12.0526 11.3314 11.2943 10.1858 10.5418C9.29275 9.92447 8.12946 10.042 7.11305 9.74222C5.30937 9.27191 3.51156 8.80748 1.70201 8.36656C2.97105 9.96562 4.24009 11.5647 5.4445 13.2108C6.03789 13.9457 6.63129 14.6864 7.20706 15.433C7.6712 15.7387 8.18821 15.968 8.6641 16.262C9.95664 17.0145 11.1669 17.8904 12.4066 18.7252C13.0587 19.125 13.6991 19.5365 14.2749 20.0421C14.4453 20.242 14.7684 20.3654 14.786 20.6594C14.7978 20.9651 14.41 21.1297 14.1868 20.9181H14.1927Z" fill="#b80049" stroke="#b80049" stroke-width="0.4"></path>
<path d="M6.7018 15.9269C6.44329 15.727 6.33754 15.386 6.45504 15.0745C6.51967 14.9099 6.6313 14.7629 6.7253 14.6159C6.82518 14.4572 6.92506 14.2926 7.01906 14.128C7.20119 13.8223 7.37157 13.5048 7.53608 13.1873C7.85921 12.57 8.1941 11.9586 8.55249 11.3531C8.82862 10.8828 9.0695 10.4007 9.34564 9.93628C9.53952 9.60706 9.96253 9.46597 10.3033 9.65997C10.6323 9.84222 10.7792 10.289 10.5794 10.6182C10.3973 10.9239 10.2269 11.2355 10.0565 11.553C9.81565 11.9939 9.55127 12.4231 9.31038 12.864C9.05188 13.3402 8.79924 13.8164 8.54661 14.2926C8.41736 14.5336 8.27635 14.7746 8.13535 15.0098C8.0766 15.1097 8.01784 15.2038 7.95322 15.2979C7.96497 15.486 7.90034 15.68 7.75933 15.8211C7.6007 15.9798 7.4127 16.0562 7.19532 16.068C7.18357 16.068 7.16594 16.068 7.15419 16.068C6.99556 16.068 6.82518 16.021 6.69593 15.921L6.7018 15.9269Z" fill="#b80049" stroke="#b80049" stroke-width="0.4"></path>
<path d="M6.77232 15.4449C6.71356 15.2332 6.86632 15.0569 6.97207 14.8864C7.9121 13.3167 8.73463 11.6824 9.65703 10.1009C9.88617 9.70118 10.4972 10.0363 10.2739 10.4419C10.0918 10.7476 9.92142 11.0592 9.75104 11.3767C8.99314 12.6348 8.37624 13.9752 7.58897 15.2156C7.7476 15.7036 6.90745 15.927 6.76644 15.4449H6.77232Z" fill="#b80049" stroke="#b80049" stroke-width="0.4"></path>
<path d="M3.72306 11.2062C3.44105 11.1356 3.24129 10.9005 3.19429 10.6183C3.17079 10.4831 3.19429 10.3537 3.21779 10.2244C3.15316 10.1362 3.10029 10.0363 3.06503 9.93632C2.85353 9.9716 2.63027 9.91281 2.47752 9.7482C2.40701 9.67177 2.34826 9.60123 2.31301 9.50716C2.27188 9.4131 2.26013 9.31904 2.26013 9.2191C2.25426 9.21322 2.24838 9.20734 2.24251 9.19558C1.98988 8.90751 2.078 8.43132 2.36589 8.20792C2.51277 8.09622 2.6949 8.04331 2.8829 8.06095C3.02978 8.07858 3.14729 8.13737 3.25304 8.22556C3.41167 8.1844 3.57618 8.1844 3.74068 8.23731C3.88169 8.28435 4.01681 8.36077 4.10494 8.48423C4.13432 8.5195 4.15782 8.56066 4.1872 8.59593C4.27532 8.54302 4.38108 8.50187 4.49271 8.49011C4.93334 8.43132 5.36223 8.81345 5.29173 9.26613C5.26236 9.45425 5.18598 9.61886 5.10372 9.78347C5.04497 9.90693 4.98622 10.0304 4.92747 10.1538C4.78646 10.4478 4.63959 10.7711 4.41045 11.0063C4.27532 11.1415 4.09319 11.2179 3.89931 11.2179C3.84643 11.2179 3.78768 11.2121 3.73481 11.2003L3.72306 11.2062Z" fill="#b80049" stroke="#b80049" stroke-width="0.4"></path>
<path d="M3.80531 10.8651C3.45867 10.7828 3.5233 10.3831 3.59968 10.1185C3.4528 10.0009 3.38229 9.77753 3.34704 9.60116C3.33529 9.5365 3.32354 9.46595 3.31179 9.40128C3.01803 9.76577 2.55389 9.55413 2.60089 9.09558C2.47164 8.92509 2.35414 8.70169 2.54214 8.51356C2.73602 8.31368 3.02978 8.4195 3.15316 8.6429C3.65255 8.35483 3.96981 8.74284 3.99331 9.23667C3.99919 9.23667 4.01094 9.23667 4.01681 9.23667C4.16957 9.06618 4.32232 8.8369 4.57496 8.8369C4.80409 8.82515 4.97447 9.0603 4.92159 9.27194C4.82171 9.62468 4.61021 9.9539 4.45158 10.2831C4.31057 10.5242 4.15194 10.9357 3.80531 10.8593V10.8651Z" fill="#b80049" stroke="#b80049" stroke-width="0.4"></path>
</svg>