<svg viewBox="0 0 88 65" fill="none" xmlns="http://www.w3.org/2000/svg">
<path d="M19.6382 12.648C18.6029 11.9858 17.5547 11.1352 17.2894 9.86911C17.147 9.11593 17.1988 8.20044 17.7294 7.6031C17.8006 7.53817 17.8782 7.46026 17.9817 7.49921C18.027 7.5122 18.0465 7.55116 18.0465 7.59011C18.0659 7.74594 18.0659 7.90177 18.0917 8.0576C18.2147 8.77181 18.5965 9.42759 19.1465 9.89508C19.7159 10.3366 20.3176 10.7456 20.9841 11.0313C21.5665 11.2196 22.1876 11.2716 22.7765 11.4404C23.4365 11.4664 23.4623 12.4208 22.977 12.7195C21.8641 13.3103 20.7188 13.3882 19.6512 12.648H19.6382Z" fill="#b80049" stroke="#b80049" stroke-width="0.3"></path>
<path d="M16.8559 20.894C16.7847 20.3226 16.5841 19.7772 16.5388 19.1994C16.4547 18.0242 16.9982 16.9399 17.6518 16.0049C18.5188 14.8037 19.47 13.4662 20.8029 12.7714C21.4241 12.4013 22.1488 12.1222 22.88 12.1936C22.9706 12.278 22.8671 12.3819 22.7959 12.4338C22.3688 12.8948 21.9935 13.4077 21.5729 13.8752C21.1847 14.3102 20.7512 14.7063 20.3953 15.1673C19.5671 16.2451 18.7906 17.3619 18.1177 18.5501C17.6582 19.3097 17.1665 20.0694 16.8559 20.8875V20.894Z" fill="#b80049" stroke="#b80049" stroke-width="0.3"></path>
<path d="M12.4688 13.2844C11.6406 13.174 11.44 12.1092 12.0741 11.6092C12.4364 11.2846 12.9476 11.2521 13.3812 11.0703C14.4488 10.6872 15.277 9.90807 16.1117 9.16789C16.5453 8.7913 16.9917 8.43419 17.3929 8.02514C17.4317 7.98619 17.4835 7.92775 17.5482 7.92126C17.7035 7.91477 17.8006 8.18097 17.6517 8.2524C17.5935 9.4276 16.9012 10.4145 16.17 11.2846C15.2835 12.3299 13.8794 13.2844 12.4753 13.2909L12.4688 13.2844Z" fill="#b80049" stroke="#b80049" stroke-width="0.3"></path>
<path d="M16.8882 20.7902C16.7394 20.6733 16.5582 20.6084 16.4094 20.498C15.9047 20.037 15.7559 19.3098 15.5229 18.6865C15.0376 17.1282 13.7759 13.7325 12.4559 12.9208C12.3264 12.817 11.5759 12.5962 11.9059 12.4209C14.0541 13.3234 15.1347 13.4208 16.3059 15.7387C17.0306 17.2776 17.9364 19.2059 16.8882 20.7902Z" fill="#b80049" stroke="#b80049" stroke-width="0.3"></path>
<path d="M26.2318 17.0373C25.3518 16.9594 24.4588 17.0503 23.5983 16.849C22.4594 16.6088 21.4435 15.8621 20.5247 15.2453C19.9035 14.8362 19.6383 14.1155 20.68 14.2389C21.6053 14.2973 22.453 14.7128 23.2747 15.1024C24.3294 15.6738 25.2806 16.4335 26.3547 16.9724C26.4259 17.0113 26.5165 17.0438 26.5812 17.0827C26.4647 17.0633 26.3483 17.0503 26.2318 17.0438H26.2447L26.2318 17.0373Z" fill="#b80049" stroke="#b80049" stroke-width="0.3"></path>
<path d="M11.7764 12.2325C10.6894 12.187 9.62174 11.9208 8.58644 11.6027C7.85527 11.3949 6.75527 11.0897 6.79409 10.1483C6.99468 9.15488 8.19821 9.66132 8.81939 9.91454C10.0294 10.3496 11.1811 10.9144 12.307 11.5443C12.54 11.6741 12.7664 11.8105 12.9994 11.9403C13.4459 12.2909 11.9382 12.2325 11.7829 12.2325H11.7764Z" fill="#b80049" stroke="#b80049" stroke-width="0.3"></path>
<path d="M11.66 12.7259C10.3853 12.5376 9.18174 11.9727 8.0688 11.3364C7.73233 11.0573 7.07233 10.9404 7.09821 10.4015C7.14998 10.0119 7.59645 10.0444 7.88115 10.1547C8.68351 10.3301 9.45351 10.6287 10.1782 11.0313C10.89 11.3884 11.5047 11.8948 12.1388 12.3753C12.87 12.8298 12.0353 12.7973 11.6664 12.7259H11.66Z" fill="#b80049" stroke="#b80049" stroke-width="0.3"></path>
<path d="M13.6982 13.9141C13.2 13.6089 12.7535 13.2388 12.2876 12.8947C12.1712 12.7778 11.9512 12.7064 11.9318 12.5311C11.9706 12.3688 12.1582 12.4727 12.2294 12.5506C12.7341 12.9596 13.1806 13.3817 13.7047 13.7518C13.8341 13.7777 13.8665 13.979 13.7047 13.9141H13.6982Z" fill="#b80049" stroke="#b80049" stroke-width="0.3"></path>
<path d="M13.8988 14.4467C13.4976 14.3233 13.1741 13.9857 12.8247 13.7584C12.3135 13.3818 11.77 12.9663 11.2459 12.6287C10.9612 12.4404 10.6765 12.2521 10.3982 12.0703C10.0488 11.9145 10.1717 11.5119 10.5406 11.7197C11.66 12.304 12.6047 13.1351 13.5365 13.9727C13.0123 13.4857 12.5076 12.9728 11.9382 12.5378C11.867 12.5443 11.7894 12.4404 11.8606 12.3884C11.9317 12.3495 12.0094 12.4079 12.0741 12.4469C12.6759 12.9144 13.2582 13.4143 13.8082 13.9467C13.8988 14.0376 14.1382 14.4142 13.9053 14.4337L13.8988 14.4467Z" fill="#b80049" stroke="#b80049" stroke-width="0.3"></path>
<path d="M19.8 28.0167C17.697 27.4128 15.5488 26.9973 13.4653 26.3285C11.7441 25.7636 10.0229 25.1728 8.30174 24.6144C6.90409 24.1469 5.48056 23.7249 4.12821 23.134C2.92468 22.5627 1.86997 21.6537 0.666443 21.1147C2.15468 21.3939 3.70115 21.3355 5.15056 21.8355C8.85174 22.9977 12.5529 24.1924 16.1376 25.6727C17.4317 26.2701 18.5382 27.1986 19.8129 27.8219C19.91 27.8803 20.0717 27.9063 20.0847 28.0361C20.0847 28.0816 20.0264 28.1076 19.9876 28.0946C19.9164 28.1076 19.8129 28.1011 19.8064 28.0167H19.8Z" fill="#b80049" stroke="#b80049" stroke-width="0.3"></path>
<path d="M33.1553 29.9646C31.9129 29.9322 30.677 29.8348 29.4411 29.7439C27.5388 29.5751 25.6106 29.5815 23.7211 29.2894C22.4335 29.0881 21.1847 28.6725 19.9164 28.3934C20.8353 28.231 21.7606 27.9843 22.6923 27.848C23.6629 27.7051 24.6529 27.7116 25.6364 27.7765C28.5935 27.9194 31.5441 28.2765 34.5076 28.244C39.4964 28.0947 44.4853 27.9389 49.4676 27.6532C53.5247 27.4519 57.5494 26.6792 61.6194 26.8156C62.6353 26.8675 63.6447 26.9714 64.6541 27.0818C64.9841 27.1208 65.3076 27.1532 65.6376 27.1987C66.0582 27.2766 66.5306 27.2571 66.9123 27.4454C67.1453 27.6986 66.0064 27.7895 65.8835 27.822C64.997 27.9518 64.0976 28.0427 63.1982 28.1142C59.4129 28.3479 55.6535 28.8868 51.8811 29.2244C49.4417 29.4322 46.9894 29.5491 44.5435 29.64C40.7517 29.7439 36.96 30.0101 33.1617 29.9711L33.1553 29.9646Z" fill="#b80049" stroke="#b80049" stroke-width="0.3"></path>
<path d="M67.197 27.0232C67.6888 26.692 68.1288 26.296 68.6206 25.9648C69.177 25.5882 69.7788 25.2636 70.3935 25.0039C71.5711 24.4844 72.7164 23.9066 73.9006 23.3936C76.89 22.0107 79.9829 20.8355 83.2182 20.1862C83.8006 20.0823 86.9711 19.3031 87.2041 19.7382C87.2688 19.8485 87.1394 19.9459 87.0358 19.92C85.8129 20.4654 84.6288 21.1017 83.3864 21.5886C81.5747 22.3028 79.7176 22.9067 77.9253 23.6793C76.1782 24.4195 74.4441 25.2181 72.7294 26.0297C72.0888 26.3284 71.4547 26.6466 70.7688 26.8154C69.6041 27.1076 68.3876 26.9712 67.2035 27.0232H67.197Z" fill="#b80049" stroke="#b80049" stroke-width="0.3"></path>
<path d="M62.3376 16.4983C62.9524 16.1412 63.4376 15.6153 64.0265 15.2192C64.9776 14.5829 66.1229 14.3621 67.1647 13.9011C70.5553 12.5441 74.0688 11.5507 77.5435 10.4405C78.4753 10.1678 79.4135 9.90804 80.3776 9.7587C80.7335 9.73922 81.4906 9.45354 81.6006 9.93401C81.6135 10.1158 81.4259 10.1872 81.2771 10.1678C80.5265 10.395 79.86 10.843 79.1547 11.1806C78.4947 11.5183 77.8282 11.8494 77.1618 12.1676C74.5088 13.4142 71.6424 14.1024 68.9376 15.2257C67.8829 15.6153 66.8541 16.0957 65.7606 16.3619C64.6412 16.5762 63.4635 16.3749 62.3506 16.4918L62.3376 16.4983Z" fill="#b80049" stroke="#b80049" stroke-width="0.3"></path>
<path d="M41.2112 18.6346C38.1312 18.5112 35.0512 18.4722 31.9712 18.3424C31.0782 18.284 30.1853 18.2385 29.2988 18.1216C28.49 18.0177 27.6812 17.771 26.8982 17.5827C26.8141 17.5632 26.7235 17.5503 26.6459 17.5243C27.1376 17.2711 27.6035 16.9724 28.1147 16.7711C28.7488 16.5179 29.4476 16.4335 30.1271 16.4724C32.5729 16.6737 35.0318 16.6802 37.4841 16.7646C39.2118 16.8036 40.9329 16.914 42.6606 16.888C45.4171 16.8166 48.1606 16.4854 50.9171 16.4919C53.3888 16.4075 55.8606 16.1543 58.3323 16.453C59.29 16.5633 60.2606 16.6023 61.1923 16.8425C61.2765 16.8685 61.3476 16.9075 61.4188 16.9594C61.5482 17.0503 61.5612 17.2581 61.3929 17.3165C60.8235 17.5113 60.2023 17.5113 59.6071 17.6087C59.0118 17.6801 58.4165 17.745 57.8147 17.7905C55.9835 17.8944 54.1523 18.0177 52.3212 18.1736C50.4965 18.245 48.6718 18.2775 46.8535 18.4268C44.9771 18.5567 43.1006 18.68 41.2241 18.6281L41.2112 18.6346Z" fill="#b80049" stroke="#b80049" stroke-width="0.3"></path>
<path d="M67.4041 25.8936C66.563 24.8743 65.5988 23.9523 64.8871 22.829C64.363 22.0239 63.9747 21.1344 63.6059 20.2448C63.1724 19.2125 62.713 18.1671 62.5512 17.0504C62.493 16.6024 62.9524 16.4985 63.1983 16.8231C63.9553 17.849 64.7124 18.8813 65.3594 19.9786C65.8059 20.8292 66.3106 21.6408 66.7441 22.4914C67.2812 23.5432 67.2683 24.7509 67.4041 25.8871V25.8936Z" fill="#b80049" stroke="#b80049" stroke-width="0.3"></path>
<path d="M20.6088 27.7115C20.4794 25.7572 20.8159 24.7768 21.9547 23.2055C22.7959 21.829 23.7988 20.5694 24.9441 19.4331C25.4035 18.9007 25.9018 18.3683 26.2059 17.719C26.2576 17.5827 26.51 17.6736 26.4776 17.8164C25.9212 20.2967 24.6465 22.5237 23.3653 24.6924C22.6276 25.8611 21.5341 26.7181 20.6088 27.705V27.7115Z" fill="#b80049" stroke="#b80049" stroke-width="0.3"></path>
<path d="M43.8382 61.9158C42.79 61.0977 41.6317 60.416 40.7065 59.4421C39.8006 58.5525 39.0823 57.5072 38.267 56.5332C35.6982 53.4686 33.2329 50.3001 31.0394 46.9628C29.2276 44.2488 27.2347 41.6581 25.41 38.9506C24.9053 38.152 24.4782 37.3079 24.0382 36.4703C22.9317 34.4056 21.8123 32.3538 20.9906 30.1593C20.9323 29.945 20.8029 29.7113 20.8741 29.4905C20.9129 29.4191 21.01 29.4256 21.0682 29.4645C21.1394 29.5165 21.1459 29.6204 21.2041 29.6853C21.9935 30.7566 22.8929 31.7435 23.6565 32.8408C25.0217 34.6783 26.1153 36.6846 27.3576 38.6065C29.8553 42.0022 32.2753 45.4694 34.6565 48.9431C36.8306 52.1051 39.4641 54.91 41.7223 58.0071C42.57 59.2278 43.1135 60.6302 43.8317 61.9093L43.8382 61.9158Z" fill="#b80049" stroke="#b80049" stroke-width="0.3"></path>
<path d="M44.77 64.9999C44.9771 63.0001 44.9512 62.4287 46.1741 60.7341C47.6171 58.6564 49.0794 56.5916 50.4835 54.4879C51.713 52.579 53.033 50.7286 54.2235 48.7937C56.4106 45.3525 58.4877 41.6516 60.6359 38.2363C60.6165 38.2688 60.5906 38.3077 60.5712 38.3402C61.7359 36.4183 63.043 34.5938 64.2983 32.7304C65.3983 31.0487 66.4724 29.3476 67.6565 27.7244C67.6888 27.6724 67.7794 27.6595 67.8053 27.7244C67.8312 27.7958 67.7859 27.8477 67.7471 27.8997C67.1453 29.1528 66.8477 30.5228 66.2718 31.7889C65.4047 33.9056 64.0847 35.8469 62.8877 37.7623C60.2477 42.0152 57.75 46.4303 55.0712 50.6507C53.0394 53.7542 50.9947 56.8513 48.8724 59.8965C48.0312 61.0457 47.2806 62.2599 46.4394 63.4091C45.9606 64.0065 45.2941 64.435 44.783 64.9934L44.77 64.9999Z" fill="#b80049" stroke="#b80049" stroke-width="0.3"></path>
<path d="M69.1706 35.6004C68.7953 35.4641 68.4653 35.2368 68.0835 35.1005C68.3423 34.9706 68.5753 34.8083 68.8082 34.6265C69.3906 34.159 69.947 33.6461 70.5876 33.25C71.6876 32.4254 72.2829 31.1983 72.93 30.0555C73.1953 29.614 73.3894 29.127 73.6806 28.7115C73.8294 28.5687 73.9394 28.8349 73.9782 28.9517C74.457 30.8412 73.0853 33.4058 71.7006 34.6525C71.0082 35.2368 70.1153 35.9056 69.1706 35.6069V35.6004Z" fill="#b80049" stroke="#b80049" stroke-width="0.3"></path>
<path d="M73.6159 42.2944C73.3636 41.762 72.8589 41.3919 72.6971 40.8075C72.3348 39.6583 71.7718 38.574 71.0471 37.6065C70.7365 37.191 70.3612 36.8339 70.0118 36.4573C69.6689 36.0612 69.3324 35.6522 68.9248 35.3145C68.8536 35.2496 68.5818 35.0678 68.7371 34.9445C68.7759 34.912 68.8342 34.925 68.8407 34.9769C69.2742 35.1847 69.7854 35.1263 70.2448 35.2496C71.6942 35.5223 72.7295 36.6391 73.4606 37.8598C73.9459 38.7428 74.483 39.7622 74.2889 40.801C74.1983 41.3594 73.8295 41.7944 73.6224 42.3009L73.6159 42.2944Z" fill="#b80049" stroke="#b80049" stroke-width="0.3"></path>
<path d="M76.7024 35.0744C75.4665 34.7822 74.8259 33.4772 74.3018 32.4253C73.7842 31.341 73.6159 30.1204 73.7906 28.9322C73.8036 28.8478 73.9265 28.7893 73.9459 28.8997C74.1077 29.8022 74.8453 30.4385 75.363 31.1527C75.7383 31.6202 76.0877 32.1007 76.4889 32.5487C76.8189 32.9642 77.3301 33.1201 77.7312 33.4447C78.0871 33.7304 78.3265 34.1329 78.6695 34.4251C78.0289 34.6783 77.4401 35.2108 76.6959 35.0744H76.7024Z" fill="#b80049" stroke="#b80049" stroke-width="0.3"></path>
<path d="M73.1694 41.7621C72.7488 40.5284 73.493 38.8922 74.043 37.7819C74.6447 36.6717 75.5441 35.7107 76.6441 35.0874C77.1294 34.7822 77.7053 34.6069 78.1841 34.3148C78.2424 34.2693 78.3265 34.3342 78.2941 34.4186C78.2294 34.5615 78.1194 34.6719 78.0353 34.8017C77.5371 35.5549 76.9871 36.2626 76.45 36.9898C75.8612 37.8014 75.3565 38.678 75.0459 39.6389C74.7353 40.3856 74.7418 41.8724 73.7971 42.0737C73.5512 42.1127 73.2988 41.9828 73.1759 41.7556L73.1694 41.7621Z" fill="#b80049" stroke="#b80049" stroke-width="0.3"></path>
<path d="M38.6424 7.83046C37.3224 7.77202 35.9635 7.76553 34.6824 7.40193C34.4753 7.31752 34.1776 7.25909 34.1065 7.01236C34.0935 6.84354 34.2812 6.80459 34.4171 6.7916C35.6335 6.68771 36.8565 6.53838 38.0729 6.44099C41.9553 6.11634 45.8506 5.96701 49.7459 5.86312C52.3018 5.72677 54.8512 5.40862 57.4135 5.56445C58.19 5.6099 58.9665 5.66184 59.7429 5.68781C58.5135 6.09037 57.2776 6.55136 56.0094 6.85653C53.5053 7.47984 50.9041 7.5188 48.3418 7.62269C45.1065 7.63567 41.8712 7.90837 38.6359 7.82396L38.6424 7.83046Z" fill="#b80049" stroke="#b80049" stroke-width="0.3"></path>
<path d="M41.3082 18.2774C36.8953 18.193 32.4241 18.0891 28.0694 17.4008C27.9982 17.3879 27.5194 17.3229 27.6682 17.1411C27.7135 17.0892 27.83 17.1152 27.8235 17.1866C29.2794 17.3294 30.7353 16.9528 32.1847 16.836C35.517 16.5438 38.8688 16.5503 42.2076 16.5827C44.6018 16.5308 46.7112 16.4789 49.0535 16.5373C52.2176 16.6542 55.4076 16.9074 58.5782 16.8295C59.1282 16.8295 59.6976 16.797 60.2347 16.7905C59.9435 16.823 59.6459 16.8619 59.3612 16.8944C56.3717 17.3294 53.4212 18.0242 50.3929 18.1605C47.3647 18.2644 44.3365 18.2514 41.3018 18.2774H41.3082Z" fill="#b80049" stroke="#b80049" stroke-width="0.3"></path>
<path d="M75.6282 33.0812C75.2982 32.8215 75.227 32.3215 75.4923 31.9904C75.8935 31.4904 76.3011 30.997 76.7282 30.523C77.1747 30.023 77.6406 29.5491 78.1 29.0556C78.5658 28.5557 79.0123 28.0427 79.4782 27.5363C79.9182 27.0623 80.3582 26.5883 80.7917 26.1078C81.387 25.4326 81.9694 24.7573 82.5906 24.1081C83.1923 23.4718 83.8006 22.8484 84.3894 22.2056C84.6741 21.8745 84.9458 21.5369 85.2176 21.1863C85.4829 20.8421 85.7417 20.485 86.007 20.1409C86.1429 19.9591 86.2853 19.7838 86.4406 19.6215C86.557 19.5046 86.6735 19.3812 86.8158 19.3033C86.9517 19.2319 87.0811 19.1994 87.23 19.193C87.6182 19.1735 87.9547 19.5046 88 19.8812C88.0258 20.0955 87.9611 20.2903 87.8382 20.4656C87.767 20.563 87.6829 20.6344 87.5794 20.6863C87.56 20.7058 87.5406 20.7253 87.5211 20.7448C87.1523 21.1798 86.8223 21.6408 86.4794 22.0953C86.1235 22.5627 85.7482 23.0172 85.3535 23.4523C84.5511 24.3353 83.7035 25.1729 82.9076 26.0559C82.4676 26.5624 82.0276 27.0623 81.5747 27.5623C81.1476 28.0362 80.7011 28.5037 80.2676 28.9777C79.8341 29.4452 79.4135 29.9257 78.98 30.3931C78.5788 30.8282 78.1711 31.2437 77.7764 31.6852C77.4141 32.1008 77.0647 32.5293 76.7153 32.9578C76.56 33.1526 76.327 33.2565 76.0941 33.2565C75.9323 33.2565 75.7641 33.2045 75.6217 33.0942L75.6282 33.0812Z" fill="#b80049" stroke="#b80049" stroke-width="0.3"></path>
<path d="M75.8676 32.7758C75.7059 32.646 75.6671 32.3928 75.8029 32.2304C76.5277 31.3084 77.3106 30.4449 78.1259 29.6008C80.4229 27.0426 82.7718 24.5364 85.0753 21.9847C85.6771 21.2575 86.1818 20.4394 86.8418 19.7641C87.0553 19.4914 87.5794 19.5174 87.6182 19.92C87.6377 20.0953 87.5341 20.2901 87.3594 20.342C86.8159 20.9264 86.3824 21.6016 85.8777 22.2249C83.4706 24.9454 80.9729 27.588 78.54 30.2891C78.1647 30.6851 77.7894 31.0812 77.4271 31.4903C77.0388 31.7954 76.3529 33.2109 75.8676 32.7823V32.7758Z" fill="#b80049" stroke="#b80049" stroke-width="0.3"></path>
<path d="M44.4206 64.8117C44.0841 64.5455 44.0323 64.0585 44.2847 63.7209C44.757 63.0976 45.2359 62.4872 45.7341 61.8899C46.2453 61.2796 46.7823 60.6952 47.3259 60.1173C47.8823 59.5265 48.4517 58.9486 49.0276 58.3773C49.597 57.8124 50.1859 57.2735 50.7747 56.7346C51.9912 55.6243 53.1688 54.4815 54.3853 53.3777C55.6212 52.2675 56.8506 51.1507 58.0929 50.0534C59.0959 49.1704 60.0923 48.2873 61.0694 47.3784C61.5288 46.9498 61.9947 46.5213 62.4347 46.0668C62.9135 45.5798 63.3794 45.0799 63.8388 44.5669C64.9453 43.2814 66.0323 41.9828 67.1647 40.7232C67.7082 40.1193 68.2582 39.5285 68.8082 38.9311C69.3712 38.3143 69.9276 37.6975 70.4841 37.0742C70.717 36.8145 70.95 36.4898 71.3188 36.4509C71.8106 36.3989 72.257 36.821 72.1859 37.3274C72.1664 37.4702 72.1082 37.6196 72.0176 37.7235C71.9723 37.7754 71.9206 37.8274 71.8623 37.8663C71.5517 38.191 71.2541 38.5351 70.9564 38.8727C70.6394 39.2233 70.3223 39.5739 70.0053 39.9245C69.3582 40.6323 68.7112 41.327 68.0706 42.0412C67.5206 42.6645 66.977 43.2878 66.4335 43.9241C65.89 44.5604 65.3529 45.2032 64.7964 45.833C63.6964 47.0667 62.4994 48.2029 61.27 49.3067C58.7982 51.5338 56.2747 53.7154 53.8417 55.9879C53.3112 56.4813 52.7935 56.9878 52.2564 57.4747C51.7129 57.9747 51.1564 58.4681 50.6259 58.9811C49.5712 59.994 48.5553 61.0393 47.5782 62.1236C46.847 62.9482 46.1612 63.8053 45.5012 64.6818C45.3523 64.8766 45.1194 64.9805 44.8864 64.9805C44.7182 64.9805 44.55 64.9285 44.4076 64.8182L44.4206 64.8117Z" fill="#b80049" stroke="#b80049" stroke-width="0.3"></path>
<path d="M44.66 64.4999C44.4917 64.3701 44.4659 64.1234 44.5953 63.9545C45.0676 63.3312 45.5465 62.7209 46.0447 62.1171C48.6653 59.0265 51.7517 56.3774 54.7023 53.6114C57.3359 51.1961 60.0729 48.8976 62.6417 46.4173C65.2623 43.6384 67.6565 40.6582 70.2835 37.8857C70.6588 37.5481 70.9112 37.0027 71.3835 36.8209C71.7976 36.7754 71.9853 37.3533 71.6165 37.5611C68.7823 40.5803 66.1488 43.7812 63.3341 46.8134C60.39 49.7157 57.187 52.3323 54.1653 55.1502C51.8941 57.3059 49.5259 59.3576 47.4423 61.7015C46.6529 62.5716 45.9153 63.4936 45.21 64.435C45.0806 64.6038 44.8282 64.6298 44.6664 64.4999H44.66Z" fill="#b80049" stroke="#b80049" stroke-width="0.3"></path>
<path d="M44.4594 64.617C44.2718 64.4352 44.0841 64.2599 43.903 64.0781C43.7283 63.8963 43.56 63.7145 43.3918 63.5262L43.3594 63.4872L43.3335 63.4613C42.9324 63.0003 42.5571 62.5133 42.1624 62.0458C41.7677 61.5783 41.36 61.1173 40.9588 60.6563C40.4412 60.0785 39.8847 59.5331 39.3347 58.9812C38.7524 58.4033 38.17 57.8255 37.5877 57.2411C37.0247 56.6762 36.4747 56.0984 35.9183 55.527C35.3488 54.9491 34.7794 54.3778 34.21 53.7999C32.9935 52.5727 31.7318 51.3975 30.4441 50.2483C30.373 50.1899 30.2953 50.1249 30.2306 50.06C30.1853 50.021 30.14 49.9821 30.0947 49.9366C29.4994 49.4237 28.8783 48.9432 28.2571 48.4628C27.5971 47.9498 26.9565 47.4174 26.3159 46.885C25.6883 46.3591 25.0541 45.8396 24.4394 45.2942C23.7859 44.7164 23.1388 44.132 22.4918 43.5542C21.89 43.0153 21.2883 42.4828 20.7059 41.918C20.0977 41.3336 19.5024 40.7363 18.9006 40.1454C17.7035 38.9572 16.5194 37.7625 15.303 36.5938C14.7012 36.016 14.0994 35.4446 13.4847 34.8862C12.9024 34.3538 12.3006 33.8408 11.7247 33.3019C10.5212 32.1917 9.36296 31.0294 8.19826 29.8802C6.99473 28.6985 5.75884 27.5493 4.58767 26.3351C3.52002 25.2248 2.5559 24.0236 1.57884 22.829C1.24237 22.4199 0.925315 21.9979 0.582374 21.5953C0.524139 21.5304 0.465903 21.4655 0.401198 21.4005C0.110021 21.0889 0.0906094 20.6084 0.394727 20.2967C0.685903 20.0046 1.20355 19.9786 1.49473 20.2902C1.80532 20.6214 2.09002 20.972 2.37473 21.3291C2.65296 21.6797 2.94414 22.0303 3.22884 22.3745C3.77884 23.0367 4.3159 23.7055 4.87884 24.3548C5.97884 25.5754 7.16296 26.7117 8.34708 27.8479C9.51826 28.9647 10.6571 30.1139 11.8218 31.2372C12.4171 31.8151 13.0253 32.3735 13.6465 32.9254C14.2547 33.4708 14.863 34.0162 15.4583 34.581C16.7006 35.7562 17.9171 36.9574 19.1271 38.1651C20.1494 39.1845 21.1718 40.2103 22.2265 41.2037C22.77 41.7167 23.3394 42.2101 23.8959 42.7101C24.4394 43.1971 24.983 43.684 25.5265 44.171C26.4647 44.9761 27.4094 45.7682 28.3671 46.5474C29.3183 47.3265 30.3083 48.0537 31.2271 48.8523L31.24 48.8653C31.2659 48.8848 31.2918 48.9108 31.3177 48.9367L31.4212 49.0276C32.0488 49.5665 32.6506 50.1379 33.2524 50.7028C33.8283 51.2417 34.4041 51.7741 34.9541 52.3325C36.0865 53.4817 37.2253 54.6245 38.3512 55.7867C38.8883 56.3386 39.4318 56.871 39.9753 57.4099C40.2406 57.6696 40.4994 57.9293 40.7583 58.1891C41.0171 58.4488 41.2824 58.6955 41.5283 58.9617C42.57 60.059 43.5083 61.2472 44.4853 62.4029C44.4983 62.4159 44.5112 62.4289 44.5177 62.4419C44.5565 62.4873 44.5953 62.5328 44.6406 62.5782C44.6988 62.6497 44.7635 62.7146 44.8283 62.7795C44.9965 62.9548 45.1712 63.1236 45.3459 63.2924C45.4171 63.3379 45.4818 63.3963 45.5336 63.4678C45.5336 63.4678 45.5335 63.4742 45.5465 63.4807C45.8506 63.7794 45.8506 64.2794 45.553 64.5845C45.4041 64.7404 45.2035 64.8118 45.003 64.8118C44.8024 64.8118 44.6083 64.7404 44.453 64.591L44.4594 64.617Z" fill="#b80049" stroke="#b80049" stroke-width="0.3"></path>
<path d="M44.77 64.3767C43.1912 62.9029 41.9682 61.0589 40.4476 59.5396C37.6135 56.7931 34.9282 53.8388 32.0488 51.1962C29.027 48.3978 25.63 46.0344 22.6406 43.1841C19.5476 40.4246 16.7588 37.334 13.6788 34.555C11.4853 32.6461 9.45351 30.5554 7.35704 28.5427C5.35115 26.6727 3.49409 24.6599 1.7988 22.5043C1.41704 22.0368 1.05468 21.5498 0.640566 21.1018C0.498213 20.946 0.556448 20.6733 0.711742 20.5564C1.22939 20.1279 2.03821 21.6927 2.39409 22.0043C4.06351 24.121 5.87527 26.1078 7.8488 27.9388C10.5082 30.5944 13.2712 33.1396 16.0276 35.6913C20.1106 39.7428 24.1676 43.7814 28.697 47.3395C33.207 50.7482 36.9406 55.0595 40.9847 58.9812C42.4664 60.4356 43.6247 62.1757 45.1064 63.6236C45.2359 63.7145 45.3588 63.8508 45.3912 64.0131C45.4494 64.3313 45.0223 64.5975 44.77 64.3767Z" fill="#b80049" stroke="#b80049" stroke-width="0.3"></path>
<path d="M0.562928 21.738C0.278223 21.6471 0.0970461 21.4133 0.0193991 21.1341C-0.0388362 20.9329 0.0258697 20.6861 0.122929 20.4978C0.200576 20.3485 0.291164 20.2186 0.381752 20.0823C0.498223 19.9135 0.608223 19.7447 0.718223 19.5758C1.13881 18.9395 1.55293 18.2968 1.97999 17.6605C2.42646 16.9982 2.87293 16.3294 3.31293 15.6607C4.20587 14.2777 5.02116 12.8363 5.82352 11.3948C6.04352 10.9923 6.25058 10.5832 6.45763 10.1742C6.64528 9.8041 6.84587 9.434 7.0141 9.05092C7.18881 8.66135 7.66763 8.49903 8.0494 8.67434C8.43763 8.85614 8.59293 9.32362 8.42469 9.7132C8.29528 9.99888 8.14646 10.2781 8.0041 10.5573C7.83587 10.8949 7.66116 11.239 7.47999 11.5766C7.09822 12.2974 6.69705 13.0051 6.29587 13.7193C5.49999 15.1347 4.63293 16.5047 3.73352 17.8552C3.35175 18.4266 2.95705 18.9915 2.58822 19.5694C2.40705 19.855 2.2194 20.1342 2.03175 20.4199C1.98646 20.4913 1.94116 20.5563 1.8894 20.6277C1.97352 20.9069 1.8894 21.212 1.6694 21.4328C1.58528 21.5172 1.45587 21.5886 1.35881 21.6406C1.19705 21.7315 1.01587 21.7834 0.834693 21.7834C0.744105 21.7834 0.653517 21.7704 0.562928 21.7445V21.738Z" fill="#b80049" stroke="#b80049" stroke-width="0.3"></path>
<path d="M0.543555 21.2901C0.0129665 20.855 1.10003 19.8746 1.30061 19.4136C2.14826 18.1086 3.03473 16.836 3.86944 15.5244C4.8465 13.9401 5.77826 12.3234 6.64532 10.6742C6.88473 10.1873 7.14355 9.71329 7.37003 9.22633C7.45414 9.03154 7.70003 8.94714 7.88767 9.03804C8.08179 9.12894 8.15944 9.36268 8.07532 9.55747C7.77767 10.1873 7.45414 10.7976 7.13708 11.4144C5.47414 14.6154 3.44885 17.6021 1.44297 20.5953C1.84414 21.0823 0.944731 21.6147 0.550025 21.2966L0.543555 21.2901Z" fill="#b80049" stroke="#b80049" stroke-width="0.3"></path>
<path d="M7.68706 10.1419C7.53824 10.116 7.40883 10.051 7.28589 9.97311C7.16295 9.90169 7.05942 9.81079 6.9753 9.69392C6.7553 9.39524 6.79412 8.98619 7.02059 8.70051C7.17589 8.50572 7.40883 8.42781 7.62883 8.34989C7.81 8.28496 7.98471 8.22004 8.15942 8.14861C8.48295 7.99928 8.80647 7.84994 9.13 7.69411C9.51177 7.51881 9.89353 7.35649 10.2818 7.18767C11.7441 6.5254 13.1159 5.68782 14.5524 4.98659C15.3094 4.6165 16.0729 4.26588 16.8429 3.93475C17.5677 3.62309 18.3182 3.38935 19.0688 3.14911C19.4829 3.01276 19.8906 2.87641 20.2918 2.72058C20.7382 2.55177 21.1782 2.35698 21.6118 2.1622C22.4659 1.78561 23.3329 1.44798 24.09 1.11036C24.7824 0.798699 25.4553 0.448084 26.1282 0.149413C26.1606 0.136427 26.1865 0.123441 26.2188 0.110456C26.5941 -0.0843302 27.0729 0.0650056 27.2671 0.441591C27.4612 0.818177 27.3124 1.29865 26.9371 1.49343C26.84 1.54538 26.73 1.59083 26.6329 1.62978C26.0441 1.89599 25.4747 2.19466 24.8859 2.46087C24.1482 2.79201 23.3912 3.09717 22.6471 3.41532C22.2588 3.58414 21.8706 3.75295 21.4824 3.92176C21.1071 4.08408 20.7253 4.22693 20.3435 4.36328C19.6188 4.62299 18.8812 4.83726 18.1565 5.09048C17.6453 5.27228 17.1471 5.49304 16.7459 5.67484C16.1829 5.93455 15.62 6.19426 15.0635 6.46696C14.5071 6.73317 13.97 7.03184 13.4265 7.33051C12.8765 7.63568 12.32 7.92136 11.7571 8.20705C11.2006 8.48624 10.6247 8.72648 10.0618 8.97321C9.70589 9.13553 9.35647 9.30434 9.00059 9.46666C8.87118 9.5251 8.74177 9.58354 8.61236 9.64197C8.56059 9.78481 8.47 9.90818 8.33412 9.99908C8.1853 10.0965 8.01706 10.1484 7.84236 10.1484C7.79059 10.1484 7.73883 10.1484 7.68706 10.1354V10.1419Z" fill="#b80049" stroke="#b80049" stroke-width="0.3"></path>
<path d="M7.55766 9.68742C7.30531 9.57055 7.1306 9.32382 7.25354 9.05112C7.40884 8.73946 7.8359 8.73297 8.1206 8.59012C8.80001 8.31093 9.4406 7.96681 10.12 7.68762C12.3265 6.72018 14.3647 5.40213 16.5971 4.47365C18.04 3.82437 19.5865 3.46726 21.0424 2.85044C22.8218 2.09077 24.6206 1.33111 26.3612 0.487037C26.7688 0.194859 27.2283 0.837652 26.8077 1.12334C26.6394 1.21424 26.4647 1.27917 26.2965 1.36357C24.5624 2.23362 22.7635 2.94134 20.9841 3.71399C19.4441 4.31133 17.8394 4.71389 16.3512 5.43459C13.64 6.69421 11.0712 8.23951 8.28884 9.35628C8.28884 9.72637 7.84237 9.86272 7.56413 9.68092L7.55766 9.68742Z" fill="#b80049" stroke="#b80049" stroke-width="0.3"></path>
<path d="M52.8712 2.12962C52.4118 2.12312 51.9524 2.12962 51.4929 2.12962C51.1241 2.12962 50.7488 2.12962 50.38 2.12962C49.5971 2.12312 48.8206 2.09066 48.0376 2.06469C47.2159 2.03872 46.3876 2.02573 45.5659 1.97379C44.7959 1.92184 44.0259 1.86341 43.2494 1.83094C42.4535 1.79199 41.6512 1.76602 40.8488 1.74654C40.0659 1.73355 39.2765 1.74004 38.4871 1.74004C38.0082 1.74004 37.5229 1.74004 37.0441 1.74004C35.8859 1.74004 34.7341 1.74004 33.5759 1.75303C32.7735 1.75952 31.9647 1.72706 31.1623 1.70109C30.36 1.67511 29.5576 1.62967 28.7618 1.60369C28.4253 1.59071 28.0888 1.57123 27.7459 1.57123C27.5388 1.57123 27.3382 1.57123 27.1312 1.57123C27.0276 1.63616 26.9112 1.68161 26.7818 1.6881C26.6135 1.70109 26.4582 1.69459 26.2965 1.64914C25.9988 1.57123 25.7335 1.29853 25.6688 0.999858C25.5912 0.655736 25.7659 0.292136 26.0765 0.129815C26.2447 0.0389148 26.4259 0.0194362 26.6135 0.0194362C27.0212 0.0129433 27.4223 0.00645048 27.83 0.0129433C28.2118 0.0129433 28.5935 0.0389148 28.9818 0.0519005C29.37 0.0648862 29.7647 0.0843648 30.1529 0.0973505C30.9682 0.136308 31.7835 0.162279 32.5988 0.181758C33.3882 0.201236 34.1712 0.181758 34.9606 0.181758C35.3359 0.181758 35.7176 0.181758 36.0929 0.181758C36.5265 0.181758 36.96 0.181758 37.3935 0.181758C37.9176 0.181758 38.4482 0.181758 38.9723 0.181758H39.8329C40.6159 0.181758 41.3923 0.201236 42.1688 0.227208C42.9647 0.253179 43.7606 0.292136 44.55 0.344079C45.3718 0.396022 46.1871 0.460951 47.0088 0.480429C47.7853 0.499908 48.5553 0.525879 49.3318 0.545358C49.7523 0.558343 50.1665 0.571329 50.5871 0.571329C50.8071 0.571329 51.0335 0.571329 51.26 0.571329C51.4347 0.571329 51.6094 0.571329 51.7841 0.571329C52.7094 0.571329 53.6282 0.590808 54.5535 0.584315C55.1165 0.571329 55.6794 0.558343 56.2423 0.532372C56.8894 0.499908 57.53 0.460951 58.1771 0.460951C58.7853 0.460951 59.3935 0.467443 60.0018 0.506401C60.5388 0.538865 61.0759 0.577822 61.6194 0.571329C61.9494 0.558343 62.2729 0.532372 62.6029 0.493415C63.0235 0.441472 63.4053 0.792086 63.4441 1.20763C63.4829 1.64265 63.1529 1.99976 62.7388 2.0517C62.3053 2.10364 61.8653 2.13611 61.4253 2.13611C61.0241 2.13611 60.6229 2.11663 60.2282 2.09066C59.3935 2.03222 58.5653 2.01274 57.7306 2.02573C56.9347 2.0517 56.1388 2.10364 55.3365 2.12962C54.7994 2.1426 54.2688 2.14909 53.7318 2.14909C53.4471 2.14909 53.1624 2.14909 52.8776 2.14909L52.8712 2.12962Z" fill="#b80049" stroke="#b80049" stroke-width="0.3"></path>
<path d="M52.4636 1.73364C48.633 1.79857 44.8153 1.47393 40.9912 1.35056C37.9759 1.30511 34.9541 1.39601 31.9389 1.32459C30.2953 1.29213 28.6583 1.14928 27.0147 1.17525C26.62 1.5843 25.6624 0.980469 26.2253 0.499997C26.8983 0.266254 27.6747 0.441562 28.3865 0.41559C32.3724 0.636347 36.3647 0.558433 40.3506 0.571419C44.7636 0.68829 49.17 1.0454 53.5894 0.973976C55.1941 0.999947 56.7859 0.850612 58.3906 0.844119C59.4712 0.82464 60.5389 0.973976 61.6194 0.96099C61.9624 0.96099 62.3053 0.922033 62.6483 0.876583C63.14 0.837626 63.2306 1.60378 62.713 1.65573C60.8947 1.88298 59.0636 1.50639 57.2389 1.64274C55.6536 1.74663 54.0683 1.7661 52.483 1.74013L52.4636 1.73364Z" fill="#b80049" stroke="#b80049" stroke-width="0.3"></path>
<path d="M86.3112 20.1929C86.1948 19.9332 86.0977 19.6605 85.9812 19.3943C85.8648 19.1281 85.7289 18.8684 85.6059 18.6022C85.4571 18.271 85.3083 17.9399 85.1659 17.6087C84.8812 16.927 84.5512 16.2712 84.2342 15.6025C83.9236 14.9467 83.6259 14.2779 83.3024 13.6286C83.063 13.1676 82.8042 12.7131 82.5324 12.2716C82.2542 11.8236 81.9501 11.3886 81.6848 10.986C81.5101 10.7263 81.3354 10.4601 81.1348 10.2199C81.1348 10.2199 81.1283 10.2199 81.1218 10.2134C81.1218 10.2134 81.1089 10.2134 81.1089 10.2069C81.0054 10.1679 80.8954 10.1355 80.7918 10.0965C80.6365 10.0381 80.4812 9.97964 80.3324 9.91471C80.0348 9.79135 79.7371 9.66149 79.4395 9.53812C79.0836 9.39528 78.7277 9.25893 78.3718 9.11609C77.6407 8.8304 76.9159 8.52524 76.1912 8.23306C75.4471 7.93439 74.703 7.64221 73.9654 7.32406C73.1889 6.99292 72.4318 6.62932 71.6748 6.27222C70.9436 5.9216 70.2124 5.57748 69.4812 5.22687C69.3001 5.14246 69.1189 5.05805 68.9442 4.96715C68.8471 4.9282 68.7501 4.87625 68.653 4.8308C68.6142 4.81132 68.5689 4.79185 68.5301 4.77237C67.7665 4.41526 67.003 4.05815 66.2459 3.69455C65.9354 3.54522 65.6183 3.40237 65.3012 3.25304C65.2042 3.20759 65.1136 3.16214 65.0165 3.12318C64.9324 3.08422 64.8483 3.05176 64.7706 3.00631C64.7577 2.99982 64.7448 2.99332 64.7254 2.98683C64.5442 2.90242 64.3565 2.81152 64.1754 2.72712C63.9554 2.62323 63.7354 2.52584 63.5089 2.42195C63.2501 2.30508 62.9912 2.1947 62.7389 2.05835C62.5642 1.96096 62.4154 1.8376 62.273 1.70774C62.1306 1.58437 62.0271 1.44153 61.9689 1.25973C61.7877 0.720824 62.3571 0.123481 62.9006 0.292295C63.0754 0.344238 63.2048 0.441631 63.3471 0.552009C63.4054 0.597459 63.4506 0.642909 63.4959 0.694852C63.5412 0.720824 63.5865 0.740302 63.6318 0.766274C64.2142 1.03897 64.7965 1.30518 65.2883 1.53243C65.3465 1.5584 65.4048 1.58437 65.463 1.61684C65.4759 1.61684 65.4824 1.62333 65.4889 1.62982L65.5406 1.6558C66.3818 2.05186 67.2165 2.44792 68.0577 2.84399C68.4136 3.00631 68.763 3.17512 69.1189 3.33745C69.1383 3.35043 69.1642 3.35692 69.1836 3.36991C69.2806 3.40887 69.3777 3.46081 69.4748 3.50626C69.6106 3.5582 69.7336 3.62962 69.863 3.68806L70.4648 3.97375C71.1959 4.32436 71.9336 4.67497 72.6648 5.02559C72.7877 5.08402 72.9171 5.14246 72.9495 5.16194C73.6806 5.50606 74.4183 5.8372 75.1624 6.14236C75.8936 6.44752 76.6377 6.72672 77.3689 7.03188C78.0936 7.33705 78.8248 7.62273 79.5559 7.90842C80.093 8.11619 80.6171 8.36292 81.1542 8.57069C81.2965 8.62912 81.4454 8.67457 81.5877 8.72652C81.7495 8.77846 81.8854 8.85637 82.0277 8.94727C82.3059 9.13557 82.5065 9.44073 82.7006 9.71343C82.9271 10.0381 83.1471 10.3692 83.3671 10.7003C83.7942 11.3431 84.2083 11.9924 84.5706 12.6807C84.9524 13.4079 85.2759 14.161 85.6318 14.9012C85.8712 15.4012 86.1106 15.9011 86.3436 16.4076C86.5701 16.9075 86.7771 17.4205 87.0101 17.9204C87.1718 18.271 87.353 18.6151 87.4954 18.9722C87.5795 19.1735 87.6507 19.3813 87.7412 19.5826C87.9159 19.9721 87.7154 20.4396 87.3271 20.602C87.2301 20.6409 87.1265 20.6604 87.0295 20.6604C86.7254 20.6604 86.4406 20.4786 86.3112 20.1864V20.1929Z" fill="#b80049" stroke="#b80049" stroke-width="0.3"></path>
<path d="M86.6671 20.0369C85.1012 16.5827 83.7424 12.9532 81.4 9.93401C79.0706 8.94709 76.683 8.04459 74.3471 7.06417C71.3447 5.75261 68.42 4.25276 65.4371 2.88926C64.7835 2.58409 64.143 2.27893 63.4894 1.98026C63.0753 1.79846 62.6094 1.59718 62.3635 1.20111C62.2535 0.869979 62.5318 0.584293 62.8618 0.688179C63.043 0.753107 63.153 0.921922 63.2953 1.0323C64.6994 1.69457 66.11 2.34386 67.5077 3.01262C70.4777 4.38261 73.3765 5.90194 76.4306 7.07715C78.2294 7.86279 80.1318 8.47312 81.8918 9.33667C82.6618 10.2197 83.27 11.2586 83.8847 12.2585C84.8618 14.0375 85.6706 15.9009 86.4988 17.7514C86.8094 18.4072 87.12 19.063 87.3853 19.7382C87.4694 19.933 87.3724 20.1668 87.1782 20.2512C86.9841 20.3356 86.7577 20.2382 86.6671 20.0434V20.0369Z" fill="#b80049" stroke="#b80049" stroke-width="0.3"></path>
</svg>