<svg viewBox="0 0 125 96" fill="none" xmlns="http://www.w3.org/2000/svg">
<path d="M45.582 29.7831C45.582 29.7831 45.6014 29.7183 45.6079 29.6924C45.4522 29.8349 45.277 29.9514 45.0888 30.0421C44.7513 30.2169 44.4009 30.3206 44.057 30.4825C43.8168 30.5926 43.5832 30.7221 43.3366 30.8192C43.2588 30.8516 43.1419 30.8969 43.077 30.8192C43.0122 30.6444 43.129 30.4566 43.1744 30.2947C43.2588 30.0809 43.3561 29.8802 43.4664 29.6794C43.5443 29.5046 43.6546 29.3427 43.7779 29.2002C43.8947 29.0383 44.0245 28.8829 44.1543 28.7339C44.2257 28.6692 44.3036 28.5979 44.3814 28.5267C44.4333 28.4555 44.4982 28.3842 44.5696 28.326C44.2646 28.4749 43.9726 28.6627 43.6741 28.8376C43.1809 29.116 42.6098 29.2585 42.0452 29.2261C40.345 29.1937 38.6253 29.2132 36.9445 28.9153C36.0814 28.7663 35.2313 28.4425 34.3682 28.2742C34.3812 28.313 34.3877 28.3454 34.4006 28.3778C34.485 28.8246 34.5499 29.3038 34.5759 29.7507C34.6278 29.796 34.6667 29.8672 34.6862 29.932C34.6018 29.9514 34.5174 29.9126 34.4526 29.8672C33.9788 29.5434 33.2845 29.1873 32.973 28.708C32.7913 29.5693 32.9924 30.4371 33.0573 31.3049C33.1222 33.7917 33.0703 36.2785 33.0573 38.7652C33.0573 40.3324 33.0184 41.8996 32.9146 43.4603C32.8756 43.9396 32.7588 44.3929 32.6095 44.8462C32.655 44.7879 32.7004 44.7361 32.7328 44.6908C33.1806 44.1921 33.6933 43.7518 34.2124 43.3308C34.2968 43.2855 34.4785 43.0523 34.5629 43.143C34.5888 43.1301 34.6148 43.1301 34.6278 43.143C34.6472 43.1171 34.6602 43.0912 34.6797 43.0653C34.816 43.823 34.3228 45.2024 33.5895 46.0507C34.3877 45.8241 35.1859 45.6039 36.0035 45.4679C37.561 45.3384 39.1379 45.3254 40.7019 45.3254C41.2924 45.3125 41.8895 45.3837 42.4476 45.578C42.4606 45.578 42.467 45.5845 42.48 45.5909C42.1555 45.2089 41.8765 44.7879 41.7208 44.5224C41.578 44.2115 41.5066 43.8813 41.3833 43.5704C41.3703 43.5057 41.4093 43.4344 41.4742 43.402C41.565 43.3632 41.6494 43.4215 41.7208 43.4603C42.2399 43.7064 42.798 43.9719 43.2393 44.354C43.1939 44.1079 43.1744 43.8489 43.1874 43.5899C43.1549 42.6249 43.2782 41.6665 43.408 40.7145C43.6416 38.8883 43.9207 37.075 44.2257 35.2617C44.3879 34.3357 44.5372 33.3967 44.7708 32.4835C45.0174 31.5769 45.3159 30.6897 45.569 29.7895L45.582 29.7831ZM45.9973 28.6498C46.0622 28.7145 46.0817 28.857 46.0622 28.9412C46.0103 29.1549 45.9065 29.3427 45.7702 29.5111C45.7961 29.524 45.8156 29.5564 45.8156 29.5953C45.7572 30.3594 45.9194 31.1301 45.9584 31.8942C46.1141 33.7334 45.874 35.5726 45.6209 37.3859C45.4133 38.9012 45.1861 40.4101 45.0239 41.9255C44.9395 42.7739 44.8876 43.5575 44.6475 44.367C44.4982 44.8462 44.2971 45.2866 44.1348 45.7399C44.1738 45.8759 44.1543 46.0313 44.0894 46.1673C44.1673 46.1867 44.2387 46.2062 44.3165 46.2191C44.1932 46.258 44.0634 46.3033 43.9401 46.3551C43.9142 46.4522 43.8947 46.5494 43.8817 46.653C43.8688 46.5753 43.8493 46.4911 43.8363 46.4134C43.8168 46.4134 43.8039 46.4263 43.7844 46.4263C43.2912 46.64 42.811 46.9056 42.2983 47.0804C41.6883 47.3071 41.0329 47.3913 40.3839 47.3718C38.3203 47.3265 36.2112 47.469 34.1995 46.9379C33.8296 46.8019 33.5181 46.6789 33.1676 46.5753C33.1352 46.5623 33.0963 46.5494 33.0508 46.5364C32.8432 46.6724 32.6225 46.7566 32.4019 46.7631C31.9671 46.7437 31.8503 46.504 31.8957 46.1997C31.6426 45.4873 31.2987 44.8462 31.2403 44.0691C31.1624 43.3956 31.2143 42.7156 31.2403 42.0421C31.2922 40.8181 31.3181 39.6006 31.3181 38.3767C31.3765 36.4922 31.2727 34.5947 31.6231 32.7296C31.9022 31.2725 32.4149 29.8737 32.8691 28.4684C32.7718 28.19 32.8107 27.8791 33.0768 27.51C33.3169 27.2574 33.6024 27.2056 33.9074 27.3999C34.0502 27.4906 34.1476 27.633 34.2189 27.7885C34.803 27.646 35.3805 27.4711 35.9581 27.3157C37.7752 26.9336 39.6571 27.1538 41.5001 27.1409C42.0777 27.1538 42.6747 27.089 43.2263 27.2833C43.8039 27.4906 44.2516 27.9374 44.8227 28.1382C45.1212 27.9892 45.4717 27.9633 45.7183 28.1835C45.7767 28.2418 45.8221 28.3065 45.8545 28.3778C45.9324 28.462 45.9908 28.5526 45.9973 28.6433V28.6498Z" fill="#b80049" stroke="#b80049" stroke-width="0.3"></path>
<path d="M35.7764 42.3011C34.9198 40.5979 34.7511 38.6551 34.8744 36.7771C34.9587 35.3329 34.9847 33.8111 35.6531 32.49C35.7634 32.3475 35.9711 31.6352 36.1593 31.7388C36.2242 31.7776 36.2307 31.8683 36.1917 31.9331C36.2631 32.5418 36.4773 33.1311 36.5486 33.7399C36.6979 34.9638 36.5551 36.1942 36.5681 37.4247C36.607 39.0825 36.2891 40.7404 35.7829 42.3076L35.7764 42.3011Z" fill="#b80049" stroke="#b80049" stroke-width="0.3"></path>
<path d="M41.0458 41.9643C41.0264 41.4203 40.9225 40.8828 40.8966 40.3323C40.8836 39.8531 40.9225 39.3674 40.8901 38.8882C40.7798 37.8585 40.5656 36.8418 40.65 35.8056C40.7019 34.9249 40.8252 34.0377 41.1497 33.2087C41.3703 32.6648 41.6494 32.1467 41.7662 31.5638C41.7856 31.5185 41.8311 31.4732 41.883 31.4861C41.9803 31.5185 41.9479 31.6286 41.9479 31.7063C42.0387 32.3798 42.3048 33.0274 42.3243 33.7203C42.3632 34.6594 42.3502 35.6049 42.2788 36.5439C41.9998 38.3766 41.5261 40.1769 41.0523 41.9708L41.0458 41.9643Z" fill="#b80049" stroke="#b80049" stroke-width="0.3"></path>
<path d="M37.8465 43.6999C35.6271 43.415 36.7563 41.9708 38.3073 41.7765C38.8978 41.6924 39.2807 42.0744 39.443 42.599C39.43 42.6249 39.417 42.6443 39.404 42.6702C39.2937 43.3891 38.5409 43.8165 37.8465 43.6999Z" fill="#b80049" stroke="#b80049" stroke-width="0.3"></path>
<path d="M38.8654 32.3282C38.2619 32.121 37.3663 31.7454 38.2943 31.1884C38.5863 31.0136 38.8719 30.7675 39.2288 30.774C39.696 30.7546 40.0984 31.2597 39.9232 31.7065C39.7739 32.1275 39.3132 32.4318 38.8654 32.3347V32.3282Z" fill="#b80049" stroke="#b80049" stroke-width="0.3"></path>
<path d="M38.6382 39.6784C38.5409 39.2316 38.3073 38.856 38.1386 38.448C37.7622 37.4183 37.7362 36.2591 37.9958 35.1971C38.0866 34.7826 38.2878 34.4005 38.3722 33.9861C38.3722 33.9407 38.3981 33.8824 38.45 33.876C38.489 33.8695 38.5214 33.876 38.5409 33.9148C38.6382 34.0832 38.7096 34.271 38.794 34.4459C39.2612 35.495 39.1574 36.6995 38.9952 37.8004C38.8913 38.4415 38.6447 39.0438 38.6447 39.6784H38.6382Z" fill="#b80049" stroke="#b80049" stroke-width="0.3"></path>
<path d="M51.416 41.9385C50.4231 41.8284 49.4821 41.5823 48.5152 41.3686C48.0674 41.2715 47.6002 41.2002 47.1524 41.1419C48.4244 41.006 49.6379 40.5526 50.9098 40.449C52.4673 40.2612 54.6023 41.0513 55.9586 40.1511C56.1598 39.9763 56.3934 39.6913 56.2441 39.4193C55.4265 38.435 53.7782 38.3314 52.5971 37.9946C51.2148 37.7097 49.8131 37.4895 48.3984 37.4118C47.3406 37.2887 46.2179 37.3017 45.264 36.7771C43.8039 36.0518 47.0096 35.9741 47.399 35.9417C48.34 35.864 49.281 35.8187 50.2219 35.9158C51.2148 36.013 52.2272 36.1943 53.1941 36.4015C54.3752 36.6865 55.6731 36.8872 56.6011 37.7291C58.4376 39.4517 57.4252 40.9477 55.3551 41.66C54.0961 42.081 52.7204 42.0292 51.4095 41.932L51.416 41.9385Z" fill="#b80049" stroke="#b80049" stroke-width="0.3"></path>
<path d="M22.7066 41.7118C21.0194 41.5693 18.5339 41.0124 17.262 39.8661C15.7889 38.3184 16.8986 36.6929 18.6572 36.11C19.7474 35.7021 20.9155 35.592 22.0642 35.5142C23.3101 35.4236 24.5626 35.3264 25.8151 35.307C27.7619 35.2746 29.7412 35.2552 31.6296 35.8057C31.7854 35.8769 32.4538 35.9481 32.3045 36.1424C32.2721 36.1748 32.2007 36.1683 32.1683 36.1359C31.4739 36.1359 30.812 36.395 30.1371 36.5375C28.333 36.9519 26.4705 36.9519 24.634 37.0879C23.4205 37.1851 22.2069 37.2433 20.9999 37.3858C20.3834 37.5089 18.4236 37.8586 18.7351 38.7587C19.0206 39.1214 19.5268 39.225 19.9356 39.4063C20.4223 39.5812 20.922 39.7107 21.4217 39.8273C22.3951 40.0021 23.388 40.0992 24.3485 40.3389C25.5425 40.6108 26.6133 41.1484 27.7814 41.4527C26.0941 41.4527 24.4004 41.8478 22.7001 41.7182L22.7066 41.7118Z" fill="#b80049" stroke="#b80049" stroke-width="0.3"></path>
<path d="M84.986 67.959C80.8198 66.9358 79.6646 62.817 79.1714 59.0545C79.0416 58.0054 78.9313 56.9433 79.0806 55.8942C79.3207 54.2234 80.0345 52.5526 80.8522 51.1408C81.6958 49.7161 83.0132 48.408 84.7004 48.0907C85.1288 48.0065 85.57 47.987 86.0048 48.0453C86.9263 47.715 87.9581 47.9158 88.8407 48.259C89.9764 48.6735 91.0471 49.2499 92.04 49.9298C92.8447 50.5515 93.5521 51.2963 94.1816 52.0928C95.129 53.537 95.8104 55.2142 95.9272 56.9498C96.2192 60.6087 94.1167 65.0254 91.0731 67.0912C89.3339 68.3605 87.0302 68.4447 84.999 67.959H84.986ZM86.4461 66.0809C87.4001 66.1975 88.367 66.1586 89.295 65.8931C90.1516 65.66 91.0601 65.3686 91.6507 64.6756C92.9875 62.953 93.896 60.8548 94.2075 58.6918C94.3697 56.8591 93.8765 55.0459 93.1757 53.3686C92.8382 52.6109 92.2866 51.9827 91.7804 51.3351C90.6513 50.027 89.1587 48.8807 87.4325 48.531C87.5298 48.5893 87.6726 48.6541 87.6856 48.7836C87.6986 48.8613 87.6012 48.9455 87.5493 48.8678C87.3092 48.7642 87.0431 48.816 86.7965 48.8483C86.1087 48.9714 85.4857 49.2822 84.8692 49.5996C82.7082 50.6487 81.6115 52.9541 80.9495 55.1495C80.6705 56.1014 80.7159 57.0923 80.8327 58.0637C80.9301 59.0674 81.0923 60.0712 81.3649 61.0426C82.0657 63.8338 83.4155 65.7248 86.4526 66.0745L86.4461 66.0809Z" fill="#b80049" stroke="#b80049" stroke-width="0.3"></path>
<path d="M83.7854 49.8392C84.35 49.4701 84.9211 49.088 85.583 48.9067C86.2579 48.7124 86.9458 48.6088 87.6402 48.5894C88.7499 48.5052 89.8077 48.9261 90.7421 49.496C90.7811 49.5154 90.8135 49.5413 90.8525 49.5672C90.9368 49.6385 90.8005 49.7356 90.7292 49.6838C90.6902 49.6579 90.6513 49.632 90.6188 49.6126C89.9245 49.2046 89.1587 48.8484 88.3475 48.7772C86.7641 48.68 85.1742 49.1204 83.7854 49.8392Z" fill="#b80049" stroke="#b80049" stroke-width="0.3"></path>
<path d="M82.6108 50.6939C83.2338 50.2147 83.8373 49.6837 84.5512 49.3405C85.2845 49.0167 86.1022 48.8547 86.9004 48.8418C87.6077 48.8612 88.3086 48.9843 88.9835 49.1786C89.7363 49.4246 90.4177 49.8521 91.112 50.2277C91.1964 50.2859 91.3262 50.3118 91.3781 50.409C91.4041 50.4996 91.2418 50.5579 91.2094 50.4673C90.5864 50.1435 89.9634 49.8067 89.3209 49.5218C87.8608 48.9325 86.1736 48.913 84.7199 49.5218C84.7199 49.5218 84.7199 49.5218 84.7264 49.5218C83.9996 49.8715 83.3117 50.3248 82.6108 50.7004V50.6939Z" fill="#b80049" stroke="#b80049" stroke-width="0.3"></path>
<path d="M89.3469 49.3406C89.3469 49.3406 89.282 49.3211 89.282 49.2823C88.646 49.101 87.8348 49.0945 87.2378 48.9132C86.9912 48.8873 86.7381 48.9067 86.498 48.8614C86.4785 48.8549 86.4591 48.8419 86.4461 48.8225C86.3553 48.7059 86.511 48.6153 86.6148 48.6217C86.5694 48.5764 86.5824 48.5052 86.6278 48.4663C86.8095 48.3238 87.0756 48.4404 87.2962 48.4275C87.4714 48.4663 88.0166 48.4016 88.0166 48.6412C88.1399 48.68 88.5552 48.6023 88.4708 48.829C88.8342 48.9261 89.2041 48.9909 89.561 49.0945C89.6649 49.1463 89.587 49.2888 89.4897 49.2888C89.4637 49.3406 89.3988 49.36 89.3469 49.3471V49.3406Z" fill="#b80049" stroke="#b80049" stroke-width="0.3"></path>
<path d="M86.7836 64.4943C84.5901 63.089 82.8574 62.6357 82.4032 59.6827C82.2799 58.8343 82.3188 57.9665 82.4226 57.1182C82.6238 55.0588 83.3766 52.8117 85.2845 51.7431C85.6674 51.5618 86.0503 51.3481 86.4721 51.2898C86.5045 51.2898 86.5305 51.3092 86.5435 51.3351C86.5889 51.4064 86.5045 51.5035 86.4396 51.5229C85.6739 52.1058 85.291 53.0059 84.8951 53.8478C84.3435 55.0459 84.2137 56.3734 84.1164 57.6751C84.0969 58.5494 84.0969 59.4236 84.2462 60.2849C84.642 61.9104 85.6349 63.3351 86.7901 64.5008L86.7836 64.4943Z" fill="#b80049" stroke="#b80049" stroke-width="0.3"></path>
<path d="M73.7787 61.4442C73.1362 61.4053 73.1298 56.5224 73.4542 56.0367C73.5451 55.9072 73.6878 55.9007 73.8306 55.8878C74.1161 55.8684 74.4082 55.8684 74.6937 55.8554C75.5308 55.564 76.3875 55.3244 77.2765 55.2661C77.9255 55.1884 78.5744 55.1107 79.2298 55.1236C79.47 55.1236 79.7166 55.0848 79.9307 55.2143C80.7873 55.7259 80.1773 57.1312 79.2818 57.1506C78.0942 57.0988 76.8871 57.1182 75.732 56.8139C75.0831 56.6973 74.4276 56.244 73.7592 56.4512C73.7787 57.1506 74.0188 57.8241 74.0707 58.5235C74.1616 59.2942 74.0902 60.0713 74.1291 60.8419C75.0896 60.9714 76.076 60.8743 77.0429 60.8095C77.7048 60.7254 78.3343 60.5699 78.9962 60.6282C79.3077 60.6606 79.6257 60.6541 79.9242 60.7318C80.1773 60.829 79.9696 61.224 79.7165 61.1398C77.7373 61.0556 75.7645 61.5348 73.7852 61.4442H73.7787Z" fill="#b80049" stroke="#b80049" stroke-width="0.3"></path>
<path d="M76.3485 61.5995C76.0565 61.5671 73.4218 61.4441 73.9734 60.8807C74.0383 60.8483 74.0902 60.9195 74.0577 60.9778C74.2329 61.0944 74.4795 61.0555 74.6742 61.0361C75.2583 60.9519 75.7969 60.6993 76.3615 60.5569C77.3025 60.3367 78.2824 60.3367 79.2493 60.3237C79.6906 60.3367 80.1254 60.4856 80.5212 60.6605C79.8528 61.0749 79.113 61.321 78.3278 61.3923C77.6723 61.4959 77.0169 61.6384 76.3485 61.5995Z" fill="#b80049" stroke="#b80049" stroke-width="0.3"></path>
<path d="M74.1096 61.0749C75.2388 59.4818 76.9001 58.4068 78.4576 57.28C78.4576 57.28 78.4511 57.2865 78.4446 57.293C78.4446 57.293 78.4446 57.2929 78.4511 57.2865C78.6912 57.0922 78.9119 56.9173 79.1195 56.6972C79.1325 56.6194 79.2753 56.5158 79.3077 56.6389C79.3077 56.8073 79.1065 56.9238 79.0157 57.0404C78.4187 57.6491 77.6853 58.0895 77.0299 58.627C76.0111 59.4041 75.122 60.3237 74.1096 61.0749Z" fill="#b80049" stroke="#b80049" stroke-width="0.3"></path>
<path d="M79.5089 60.7707C78.4251 60.4016 77.4647 59.7929 76.5172 59.1647C75.6282 58.5042 74.8754 57.6882 74.0902 56.9175C73.9928 56.7945 73.4607 56.3153 73.7333 56.2246C73.8046 56.2311 73.8176 56.3153 73.8566 56.3606C74.4471 57.073 75.3621 57.3514 76.1084 57.863C76.7379 58.2904 77.3219 58.7761 77.9384 59.2165C78.5614 59.6245 79.1065 60.1555 79.5024 60.7707H79.5089Z" fill="#b80049" stroke="#b80049" stroke-width="0.3"></path>
<path d="M74.9403 58.912C74.7391 58.912 74.5899 58.6854 74.6223 58.4976C74.6223 58.4328 74.6742 58.368 74.7391 58.3616C74.9533 58.3745 75.0831 58.6271 75.0701 58.8214C75.0831 58.912 74.9987 58.9056 74.9338 58.9056L74.9403 58.912Z" fill="#b80049" stroke="#b80049" stroke-width="0.3"></path>
<path d="M95.7326 61.4765C95.4535 61.4765 95.2004 61.321 95.0512 61.0879C95.2004 60.8289 95.4276 60.5957 95.7326 60.531C96.6411 60.4727 97.5496 60.3561 98.4581 60.2266C98.9838 60.1424 99.5159 60.2007 100.042 60.1294C100.165 59.3394 100.379 58.5558 100.476 57.7592C100.574 57.0534 100.827 56.3345 100.775 55.6222C100.158 55.5768 99.5873 55.8942 99.0097 56.0561C97.6794 56.4317 96.1609 56.0431 94.9668 55.4279C94.9019 55.3631 94.9408 55.2142 95.0317 55.2077C96.3426 54.5471 97.8222 54.0679 99.3018 54.3853C99.8793 54.5018 100.515 54.5277 101.015 54.8645C101.443 55.1624 101.307 55.7387 101.223 56.1791C101.112 56.7619 100.937 57.3383 100.898 57.9276C100.775 58.8083 101.657 61.3987 100.126 61.2498C99.5548 61.2498 98.9903 61.3275 98.4192 61.3469C97.5236 61.3664 96.6281 61.3664 95.739 61.4765H95.7326Z" fill="#b80049" stroke="#b80049" stroke-width="0.3"></path>
<path d="M95.2328 60.9131C95.2069 60.8743 95.2069 60.8225 95.2199 60.7836C95.2977 60.5958 95.421 60.4339 95.5249 60.259C96.07 59.3977 96.6151 58.5364 97.3679 57.8564C97.8935 57.3384 98.5165 56.9174 99.0811 56.4512C99.5289 56.0561 100.016 55.6999 100.561 55.4539C100.003 56.1921 99.2174 56.7296 98.5619 57.3902C98.0233 57.9212 97.5431 58.504 97.0499 59.0739C96.5502 59.6373 95.9532 60.1101 95.4729 60.6929C95.5962 60.6411 95.726 60.5828 95.8493 60.5634C95.9467 60.6023 95.8753 60.7383 95.7974 60.7512C95.6222 60.7965 95.4665 60.8872 95.3042 60.952C95.2783 60.9584 95.2458 60.952 95.2328 60.9196V60.9131Z" fill="#b80049" stroke="#b80049" stroke-width="0.3"></path>
<path d="M99.5224 60.3433C99.2433 60.1878 99.0292 59.8964 98.8345 59.6762C98.2505 59.0351 97.6924 58.4264 97.1278 57.7788C96.5697 57.1441 96.2647 56.2828 95.6287 55.7194C95.5768 55.7971 95.4924 55.7194 95.5119 55.6482C95.5184 55.5899 95.5638 55.5446 95.6222 55.5381C95.9143 55.6093 96.096 55.9396 96.2971 56.1339C97.1343 57.1053 98.0039 58.0896 98.8475 59.0545C99.2888 59.5143 99.7236 59.9871 100.022 60.5505C99.8534 60.5116 99.6716 60.4339 99.5224 60.3497V60.3433Z" fill="#b80049" stroke="#b80049" stroke-width="0.3"></path>
<path d="M99.3342 58.7567C99.1136 58.4524 99.2109 58.0249 99.3666 57.7141C99.3991 57.6558 99.4705 57.617 99.5289 57.6688C99.756 57.9408 99.7236 58.3876 99.5548 58.6855C99.4899 58.7762 99.4251 58.8927 99.3342 58.7567Z" fill="#b80049" stroke="#b80049" stroke-width="0.3"></path>
<path d="M98.5684 65.0642C97.2446 64.9541 95.9532 64.7145 94.6423 64.6951C95.5638 64.5138 96.4269 64.2353 97.316 63.9633C99.146 63.3092 101.106 63.3351 103.014 63.0696C104.701 62.83 106.427 62.4155 107.881 61.483C108.393 61.1462 108.945 60.803 109.27 60.2655C109.821 59.3718 109.308 58.3745 108.38 58.0378C106.875 57.6622 105.298 57.7269 103.754 57.6233C102.91 57.565 102.047 57.5326 101.236 57.2542C101.067 57.1829 100.509 57.0599 100.95 56.898C101.956 56.5159 103.014 56.3152 104.078 56.1921C105.356 56.0496 106.654 56.0885 107.926 56.2115C111.71 56.503 113.053 60.2202 109.724 62.4091C107.589 63.9827 104.915 64.5785 102.313 64.8505C101.067 64.9671 99.8144 65.1419 98.5684 65.0642Z" fill="#b80049" stroke="#b80049" stroke-width="0.3"></path>
<path d="M75.8099 65.6017C73.0843 65.4074 66.517 64.449 64.6804 62.4997C63.4085 61.1527 63.8109 59.4236 65.4916 58.6789C66.4521 58.2385 67.5163 58.1349 68.5482 57.9795C70.0407 57.7398 71.5528 57.824 73.0389 58.0572C73.0259 58.0442 73.0129 58.0248 73.0259 58.0054C73.0648 57.9341 73.1751 57.96 73.24 57.9665C73.9149 58.0054 73.6164 58.232 73.1752 58.3421C72.4418 58.5752 71.5333 58.912 70.8519 59.0933C69.6384 59.4171 68.3989 59.6049 67.1724 59.8899C66.0951 60.136 65.6149 60.6735 66.5299 61.5736C67.4125 62.2342 68.5352 62.4803 69.5735 62.817C71.1699 63.2574 72.8053 63.5359 74.4471 63.7949C75.44 63.9244 76.4199 64.1252 77.3609 64.4554C78.1591 64.721 78.9378 65.0901 79.736 65.2908C78.4186 65.3103 77.1272 65.6276 75.8099 65.5887V65.6017Z" fill="#b80049" stroke="#b80049" stroke-width="0.3"></path>
<path d="M73.9669 81.6945C71.3386 81.429 68.6585 80.9887 66.3223 79.674C65.3034 79.0977 64.3755 78.3788 63.4799 77.6212C62.2794 76.5591 61.0658 75.4906 60.034 74.2601C58.9632 73.0297 58.1326 71.6179 57.4188 70.1608C56.6919 68.6454 56.043 67.0912 55.6471 65.4528C54.8943 62.0658 54.6153 58.5299 55.0241 55.0782C55.2967 52.8181 56.1209 50.6228 57.3603 48.7188C57.8535 47.9547 58.5739 47.4107 59.1644 46.7437C59.1904 46.7113 59.2163 46.6724 59.2358 46.6336C59.2682 46.5494 59.3721 46.5623 59.3851 46.653C59.3202 47.0027 59.0671 47.3006 58.9308 47.6244C58.0417 49.3535 57.5096 51.2315 57.0164 53.1031C56.4064 55.7258 56.4259 58.504 56.6919 61.1592C56.8477 62.6422 57.0683 64.1252 57.4836 65.5564C58.0352 67.3308 58.827 69.0275 59.7485 70.64C60.7998 72.4468 62.2858 73.9234 63.8303 75.3092C64.674 76.0604 65.5436 76.7922 66.491 77.4074C67.419 78.0162 68.4054 78.5148 69.3723 79.0459C71.6047 80.2115 73.9279 81.2024 76.3096 82.0313C75.5373 81.9083 74.7391 81.7917 73.9539 81.6945H73.9669Z" fill="#b80049" stroke="#b80049" stroke-width="0.3"></path>
<path d="M87.8219 83.359C87.0107 83.1777 86.1865 83.0546 85.4013 82.7956C85.2391 82.7373 85.1807 82.5236 85.3818 82.4847C86.9912 82.0314 88.6525 81.8242 90.2619 81.3709C90.9173 81.209 91.5923 81.2154 92.2542 81.1377C92.8123 81.0535 93.3574 80.8981 93.8895 80.7233C94.3243 80.5873 94.7656 80.4059 95.1679 80.2246C94.4216 80.7815 93.7532 81.4356 93.0199 82.0055C91.5663 83.1194 89.6259 83.5986 87.8154 83.359H87.8219Z" fill="#b80049" stroke="#b80049" stroke-width="0.3"></path>
<path d="M114.649 42.9682C113.961 42.1198 112.969 41.3298 112.112 40.7081C111.08 39.9504 110.165 39.0502 109.231 38.1824C107.543 36.6476 105.791 35.1582 103.818 33.9925C102.689 33.306 101.495 32.7232 100.217 32.38C98.6074 31.9655 96.985 31.5834 95.4016 31.0718C94.1231 30.7092 92.8707 30.2494 91.5923 29.8673C91.112 29.7183 90.5929 29.7183 90.1127 29.5823C89.9829 29.537 90.0153 29.278 90.1581 29.3168C90.9433 29.4658 91.8454 29.2909 92.6111 29.2974C93.2536 29.2715 93.8895 29.3039 94.532 29.3427C95.8364 29.4204 97.1213 29.6924 98.4062 29.9191C99.3537 30.1004 100.308 30.2688 101.229 30.5473C104.097 31.4539 106.589 33.2736 108.848 35.21C109.808 36.013 110.717 36.8678 111.612 37.7356C112.138 38.2343 112.638 38.7588 113.027 39.3676C113.695 40.5008 114.059 41.7896 114.656 42.9488L114.649 42.9682Z" fill="#b80049" stroke="#b80049" stroke-width="0.3"></path>
<path d="M116.895 64.5915C117.323 63.1539 117.498 61.6838 117.628 60.2008C117.855 58.5106 117.92 56.8139 117.914 55.1107C117.901 53.8349 117.784 52.5656 117.647 51.3028C117.505 49.8652 117.44 48.4145 117.252 46.9833C117.239 46.8797 117.2 46.7373 117.271 46.6466C117.291 46.6207 117.329 46.6013 117.362 46.6207C117.492 46.6984 117.466 46.8862 117.505 47.0092C117.985 48.6153 118.725 50.1307 119.114 51.7626C119.627 53.6989 119.601 55.7324 119.542 57.727C119.419 61.4442 118.783 61.7097 116.888 64.598L116.895 64.5915Z" fill="#b80049" stroke="#b80049" stroke-width="0.3"></path>
<path d="M9.33185 34.7373C9.46813 33.2025 9.39026 31.6547 9.55898 30.1264C9.93537 26.9726 11.7135 24.2073 13.4137 21.5975C16.2821 17.2456 18.8714 15.1215 23.2647 12.4469C25.1596 11.3331 27.0805 10.2257 29.1247 9.41618C32.1683 8.32174 35.3221 7.47986 38.5344 7.05245C40.1892 6.85169 41.8635 6.72217 43.4989 6.89055C44.1738 6.95531 46.5359 7.20139 46.7566 7.75833C46.7825 7.83604 46.7176 7.97851 46.6203 7.95908C45.1667 8.01089 43.7195 8.01737 42.2918 8.20517C40.6175 8.40593 38.9627 8.75563 37.3144 9.09238C34.6667 9.66874 32.045 10.3876 29.4946 11.3136C27.4439 12.1426 25.5101 13.2435 23.6216 14.3833C21.1492 15.9116 18.7156 17.5759 16.8596 19.836C14.9777 22.0703 13.4721 24.5829 12.038 27.1215C11.4669 28.1512 10.8374 29.155 10.4416 30.2689C9.93537 31.7389 9.60441 33.2349 9.32536 34.7373H9.33185Z" fill="#b80049" stroke="#b80049" stroke-width="0.3"></path>
<path d="M13.1022 52.4749C11.7459 50.5516 10.461 49.2111 10.2144 46.7308C10.0652 45.3708 9.95483 43.9979 9.93536 42.625C9.96781 42.3595 9.79908 41.265 10.1171 41.2585C10.1949 41.2585 10.2339 41.3492 10.2209 41.4204C10.1885 41.6212 10.2663 41.7961 10.2988 41.9839C10.4545 42.5343 10.6362 43.0718 10.8179 43.6158C11.7654 46.517 12.291 49.5413 13.0957 52.4749H13.1022Z" fill="#b80049" stroke="#b80049" stroke-width="0.3"></path>
<path d="M67.0037 27.0761C66.8934 25.606 66.7182 24.1295 66.4067 22.6919C65.7837 20.762 64.5572 19.0977 63.3371 17.5046C63.2009 17.4204 63.2852 17.1419 63.454 17.2067C64.5052 17.7636 65.5436 18.4177 66.4002 19.2466C67.3736 20.3022 68.1458 21.6298 68.2367 23.0869C68.373 24.5375 67.5683 25.8068 67.0102 27.0761H67.0037Z" fill="#b80049" stroke="#b80049" stroke-width="0.3"></path>
<path d="M39.3456 64.7857C35.9906 64.572 33.4662 63.6977 30.8898 61.5153C30.163 60.926 29.4557 60.3302 28.6899 59.7927C29.9034 60.2914 31.1624 60.7058 32.4149 61.1009C35.0755 61.8974 37.7557 62.7134 40.5526 62.8235C42.2788 62.966 43.9986 62.6616 45.7247 62.6292C46.2634 62.6292 46.802 62.6551 47.3406 62.681C47.7949 62.7199 48.2686 62.6875 48.7034 62.83C48.9435 62.8947 49.0084 63.225 48.8202 63.3934C48.7553 63.4646 48.6515 63.5099 48.5606 63.5553C48.5477 63.5812 48.5347 63.5941 48.5152 63.6136C48.4893 63.6265 48.4633 63.6265 48.4438 63.6136C47.3082 64.0086 46.1076 64.177 44.9265 64.4101C43.0965 64.7922 41.2146 64.9735 39.3456 64.7857Z" fill="#b80049" stroke="#b80049" stroke-width="0.3"></path>
<path d="M11.9082 57.7398C11.3242 57.1893 10.7012 56.6777 10.1042 56.1337C9.78618 55.8423 9.4682 55.538 9.17617 55.2142C8.90362 54.9098 8.63755 54.6119 8.37797 54.301C7.84583 53.6599 7.32668 52.9994 6.82699 52.3323C6.34028 51.6783 5.84708 51.0177 5.41229 50.3248C4.94504 49.58 4.51025 48.8224 4.09493 48.0517C3.71205 47.3523 3.36162 46.627 3.07608 45.8758C2.78405 45.0987 2.50501 44.3216 2.23894 43.538C1.96638 42.722 1.71978 41.906 1.49265 41.0771C1.37584 40.6497 1.25254 40.2223 1.13573 39.7948C1.01892 39.4128 0.908601 39.0307 0.79828 38.6486C0.67498 38.2017 0.55817 37.7614 0.454338 37.3081C0.415402 37.1526 0.389444 36.9907 0.356997 36.8353C0.31806 36.6216 0.272633 36.4144 0.240186 36.2007C0.181781 35.7603 0.123376 35.3264 0.0844391 34.8925C0.00656558 34.0571 -0.0258817 33.2152 -0.00641334 32.3734C7.61179e-05 31.933 0.013055 31.4861 0.0649707 31.0458C0.0909286 30.8256 0.116886 30.6054 0.142844 30.3852C0.168802 30.1845 0.214228 29.9837 0.246676 29.7765C0.31806 29.3815 0.415402 28.9864 0.512744 28.5979C0.616575 28.1899 0.713917 27.7819 0.811259 27.3739C0.91509 26.9465 1.0319 26.5191 1.14871 26.0917C1.26552 25.6772 1.42127 25.2757 1.57053 24.8742C1.86904 24.0711 2.2 23.2746 2.53746 22.4845C2.84895 21.7463 3.19938 21.021 3.56928 20.3086C3.97163 19.5315 4.39344 18.7738 4.85419 18.0291C5.06835 17.6858 5.30845 17.3556 5.54857 17.0318C5.79516 16.7015 6.04825 16.3777 6.30783 16.0668C6.84646 15.4257 7.38508 14.7846 7.95616 14.1758C8.5467 13.5412 9.16968 12.9389 9.83161 12.369C10.4935 11.7992 11.1879 11.2746 11.8888 10.7565C12.5182 10.2903 13.1607 9.84341 13.8226 9.42895C15.2438 8.54821 16.691 7.69986 18.1835 6.94217C19.6891 6.178 21.2271 5.47859 22.7846 4.81804C23.5503 4.49425 24.342 4.22225 25.1273 3.94379C25.9385 3.65237 26.7496 3.36742 27.5673 3.09543C29.1118 2.57088 30.6628 2.0528 32.2397 1.63186C33.8751 1.19797 35.5234 0.815886 37.1847 0.498563C38.0024 0.343139 38.833 0.226572 39.6637 0.135908C40.5008 0.0452441 41.3444 0.00638816 42.1881 0.0322921C43.0122 0.058196 43.8494 0.11648 44.667 0.252476C45.4977 0.388471 46.3218 0.556847 47.1395 0.731698C47.9637 0.90655 48.7878 1.08788 49.6055 1.29511C50.4102 1.50234 51.1954 1.7549 51.9807 2.0269C52.7659 2.29889 53.5381 2.62269 54.3039 2.94649C55.0826 3.27028 55.8549 3.59408 56.6271 3.93083C57.302 4.22873 57.9704 4.52663 58.6324 4.84395C59.3332 5.17422 60.0341 5.49802 60.7025 5.88011C61.0464 6.07439 61.3904 6.28162 61.7343 6.48885C62.0523 6.68313 62.3508 6.89684 62.6558 7.11054C63.2853 7.55091 63.9018 8.0107 64.4858 8.4446C65.0829 8.88496 65.6734 9.34476 66.225 9.84341C66.7572 10.3226 67.2763 10.8148 67.7955 11.3135C67.8149 11.3329 67.8344 11.3523 67.8539 11.3717C67.9382 11.4495 68.0161 11.5336 68.1005 11.6114C68.1784 11.6826 68.2627 11.7538 68.3276 11.838C68.3406 11.851 68.3471 11.8574 68.3601 11.8704C68.5288 12.0388 68.6975 12.2007 68.8662 12.369C69.1712 12.6734 69.4698 12.9843 69.7683 13.3016C70.3329 13.8974 70.8585 14.532 71.3647 15.1731C71.8773 15.8272 72.3835 16.4813 72.8767 17.1418C73.1363 17.4851 73.3894 17.8348 73.6425 18.1845C73.9021 18.5471 74.1292 18.9357 74.3628 19.3178C74.577 19.674 74.7522 20.0431 74.9274 20.4187C75.1026 20.7878 75.2778 21.1634 75.453 21.539C75.7905 22.2514 76.1604 22.9443 76.4978 23.6567C76.8677 24.4403 77.2182 25.2239 77.4842 26.0463C77.653 26.5644 77.8217 27.0954 77.8801 27.6394C77.9255 28.0474 77.7243 28.4619 77.335 28.6173C77.1533 28.6885 76.9716 28.682 76.7834 28.6497C76.3616 28.5849 76.076 28.164 76.1474 27.7495C76.1669 27.6394 76.2058 27.5358 76.2707 27.4516C76.2253 27.2573 76.1734 27.0631 76.115 26.8623C76.0436 26.6551 75.9852 26.4414 75.9073 26.2341C75.8165 25.9945 75.7191 25.7484 75.6283 25.5088C75.4206 25.0361 75.2194 24.5633 74.9858 24.1035C74.7262 23.579 74.4666 23.0609 74.2071 22.5363C73.9669 22.0506 73.7398 21.5585 73.5062 21.0663C73.3699 20.7813 73.2272 20.5029 73.0844 20.2244C72.9806 20.0237 72.8573 19.8294 72.7404 19.6351C72.5133 19.2983 72.2862 18.9681 72.0526 18.6378C71.8449 18.3529 71.6307 18.0679 71.4166 17.783C70.9558 17.1807 70.4951 16.5784 70.0343 15.9826C69.606 15.4516 69.1712 14.9141 68.6975 14.4155C68.2108 13.9039 67.7241 13.4052 67.2244 12.913C67.2114 12.9001 67.1984 12.8871 67.1855 12.8742C67.0622 12.7511 66.9324 12.6281 66.8091 12.505C66.7831 12.4791 66.7636 12.4597 66.7442 12.4403C66.7312 12.4273 66.7182 12.4144 66.7052 12.4014C66.569 12.2654 66.4262 12.1359 66.2899 11.9999C65.8876 11.6178 65.4852 11.2293 65.0634 10.8731C64.5767 10.4586 64.0835 10.0701 63.5903 9.69446C63.4086 9.55847 63.2269 9.42247 63.0647 9.29943C62.539 8.91087 62.0069 8.52878 61.4747 8.15965C60.9556 7.797 60.417 7.47967 59.8654 7.1753C58.6129 6.52123 57.3345 5.93191 56.0431 5.36203C54.7711 4.80509 53.4862 4.26759 52.1948 3.75598C51.6562 3.55523 51.1176 3.35447 50.566 3.17962C49.9949 2.99829 49.4238 2.84287 48.8462 2.69392C47.159 2.29889 45.4652 1.9168 43.752 1.69014C43.3627 1.65129 42.9733 1.61891 42.5774 1.593C42.1686 1.5671 41.7533 1.57358 41.3379 1.57358C40.7993 1.593 40.2737 1.63186 39.735 1.69014C39.2354 1.74843 38.7357 1.81966 38.236 1.89738C36.1009 2.26003 33.9984 2.75868 31.9152 3.33504C30.4162 3.77541 28.9301 4.26759 27.4505 4.77919C25.8865 5.3167 24.3226 5.86068 22.7976 6.50828C21.5905 7.03931 20.39 7.58329 19.2089 8.17908C18.0343 8.77487 16.8857 9.41599 15.75 10.083C15.0167 10.5234 14.2964 10.9767 13.589 11.4624C12.9271 11.9157 12.2911 12.4079 11.6551 12.9001C11.2723 13.2109 10.8894 13.5282 10.513 13.852C10.1431 14.1694 9.79916 14.5255 9.44873 14.8752C8.58563 15.8013 7.76147 16.7598 6.96976 17.7441C6.70369 18.1003 6.43113 18.4565 6.204 18.8321C5.9574 19.2336 5.72378 19.6286 5.49016 20.0366C5.04239 20.872 4.6011 21.7074 4.21823 22.5687C3.80939 23.4818 3.44598 24.4079 3.07608 25.3404C2.84895 25.9621 2.62182 26.5838 2.46607 27.225C2.30383 27.8855 2.1416 28.5525 1.97287 29.2131C1.88851 29.5628 1.81064 29.9125 1.74574 30.2622C1.68734 30.5925 1.6484 30.9227 1.60297 31.253C1.57702 31.6286 1.55755 31.9978 1.54457 32.3734C1.53808 32.749 1.54457 33.1181 1.54457 33.4937C1.56404 33.9211 1.58999 34.3421 1.62893 34.7695C1.66787 35.1969 1.72627 35.6243 1.77819 36.0517C1.81713 36.2719 1.86255 36.4986 1.90149 36.7187C1.94043 36.9195 1.99234 37.1203 2.03777 37.321C2.1416 37.7549 2.2649 38.1823 2.38171 38.6097C2.68022 39.6265 2.96576 40.6432 3.24481 41.6664C3.46545 42.3852 3.70556 43.0976 3.95865 43.8099C4.09493 44.192 4.22472 44.5806 4.36748 44.9627C4.50376 45.3253 4.64653 45.6815 4.80228 46.0377C5.04239 46.5493 5.29548 47.0544 5.56803 47.5466C5.82761 48.0258 6.10017 48.505 6.37922 48.9778C6.77507 49.6124 7.1904 50.2341 7.63817 50.8429C8.07297 51.4387 8.52074 52.028 8.975 52.6108C9.57852 53.3555 10.1885 54.0873 10.8634 54.7608C11.5318 55.3761 12.2392 55.9589 12.9011 56.5871C13.2126 56.8785 13.271 57.3512 12.9855 57.6815C12.8362 57.8564 12.6026 57.9535 12.3755 57.9535C12.2003 57.9535 12.0186 57.8952 11.8823 57.7657L11.9082 57.7398Z" fill="#b80049" stroke="#b80049" stroke-width="0.3"></path>
<path d="M12.1612 57.4484C7.37851 53.4527 3.82877 48.0258 2.16098 42.0161C1.40172 39.2185 0.402339 36.4468 0.39585 33.5131C0.285529 27.6459 3.17334 20.4899 6.8918 15.9826C11.9601 9.83693 19.4943 6.31399 26.8729 3.7236C32.3564 1.9168 38.1061 -0.0583796 43.9466 0.517983C48.0804 1.06197 52.0974 2.26002 55.8807 3.99559C58.178 5.00584 60.5272 5.99019 62.5649 7.47319C66.6792 10.2773 70.1641 13.9103 73.0389 17.9513C73.876 18.9745 78.6717 27.8725 77.1857 28.2287C76.7184 28.3971 76.3096 27.8466 76.7119 27.5293C74.3108 19.3761 68.5676 12.4467 61.572 7.71928C55.7769 4.33881 49.2875 1.73547 42.5514 1.17206C36.1203 1.1073 29.9489 3.46456 23.9656 5.5822C15.7889 8.8461 7.46287 13.8197 3.91963 22.2579C0.0259505 30.7285 0.648939 35.5466 3.67952 44.1078C4.95145 47.9805 7.35904 51.3804 10.0262 54.4241C10.8439 55.3048 11.7913 56.0366 12.6609 56.8591C13.0568 57.1634 12.5247 57.7981 12.1548 57.4484H12.1612Z" fill="#b80049" stroke="#b80049" stroke-width="0.3"></path>
<path d="M8.92301 76.6044C8.77375 76.4879 8.65045 76.313 8.60503 76.1317C8.55311 75.9374 8.56609 75.7431 8.59205 75.5424C8.61801 75.361 8.65694 75.1797 8.68939 75.0049C8.83216 74.2277 8.98142 73.4441 9.09823 72.6605C9.22153 71.8251 9.35132 70.9962 9.46164 70.1608C9.57196 69.3319 9.68228 68.4965 9.78611 67.6676C9.88345 66.871 9.98079 66.068 10.0716 65.2714C10.1625 64.462 10.2923 63.6589 10.4286 62.8559C10.5129 62.3573 10.6038 61.8586 10.7206 61.36C10.8244 60.9131 10.9412 60.4727 11.0645 60.0324C11.1878 59.5855 11.3176 59.1322 11.4539 58.6918C11.5512 58.3745 11.6486 58.0637 11.7394 57.7399C11.6421 57.4938 11.6681 57.2024 11.8433 56.9822C11.8757 56.9369 11.9082 56.898 11.9406 56.8527C11.9601 56.8203 11.9795 56.7879 12.0055 56.762C12.1418 56.6001 12.3105 56.49 12.5247 56.4641C12.7583 56.4317 13.0179 56.5159 13.1801 56.6843C13.3229 56.8397 13.4072 57.021 13.4137 57.2347C13.4137 57.3707 13.3943 57.5003 13.3683 57.6363C13.3229 57.8823 13.258 58.122 13.1931 58.3616C13.0698 58.8019 12.9205 59.2294 12.7972 59.6697C12.5376 60.5375 12.3105 61.4182 12.1223 62.3054C11.9731 63.1149 11.8433 63.9244 11.7265 64.7339C11.6096 65.5434 11.5318 66.3594 11.4344 67.1689C11.2333 68.7879 11.0321 70.4004 10.7855 72.0129C10.6881 72.667 10.5973 73.3146 10.4805 73.9622C10.4286 74.2407 10.3767 74.5192 10.3247 74.7976C10.7985 74.5451 11.2657 74.2731 11.72 73.9881C12.3754 73.5478 13.0049 73.088 13.6279 72.5958C14.2638 72.0907 14.8738 71.5661 15.5033 71.0545C16.1717 70.517 16.8466 69.9924 17.528 69.4744C18.1705 68.9887 18.7935 68.4641 19.4554 67.9978C20.8247 67.0329 22.2329 66.1198 23.68 65.2714C24.011 65.0772 24.342 64.8829 24.6664 64.6886C24.9325 64.5267 25.2245 64.313 25.549 64.3065C25.7826 64.3065 25.9968 64.3972 26.2109 64.4749C26.4186 64.5526 26.6328 64.6239 26.8404 64.7016C27.1908 64.8311 27.5413 64.9671 27.8917 65.0966C28.625 65.3751 29.3648 65.6471 30.0981 65.9255C30.8509 66.204 31.6102 66.463 32.3629 66.7285C33.1092 66.9682 33.8685 67.1624 34.6343 67.3567C35.3805 67.538 36.1268 67.7129 36.8796 67.8618C37.7881 68.0108 38.6967 68.1079 39.6117 68.1662C40.1373 68.1921 40.663 68.2051 41.1886 68.2051C41.7207 68.2051 42.2464 68.1856 42.772 68.1533C44.1089 68.0367 45.4392 67.9007 46.7566 67.6546C47.3925 67.5251 48.0285 67.3891 48.6515 67.1883C49.0279 67.0459 49.3913 66.884 49.7482 66.7156C50.1311 66.5343 50.6113 66.7674 50.7606 67.143C50.8384 67.3308 50.8384 67.5445 50.7606 67.7258C50.6762 67.9266 50.5269 68.0626 50.3323 68.1533C49.9689 68.3281 49.599 68.49 49.2161 68.6325C48.8267 68.7814 48.4179 68.8786 48.009 68.9757C47.2108 69.17 46.3997 69.306 45.582 69.4226C44.7643 69.5391 43.9401 69.6104 43.1225 69.6816C42.2983 69.7528 41.4741 69.7658 40.65 69.7593C39.7999 69.7528 38.9498 69.6881 38.1061 69.6039C37.2884 69.5197 36.4773 69.3772 35.6791 69.2024C34.9003 69.034 34.1216 68.8397 33.3558 68.639C32.9665 68.5353 32.5771 68.4317 32.1877 68.3087C31.7529 68.1662 31.3246 68.0173 30.9028 67.8618C30.4421 67.6999 29.9813 67.538 29.5206 67.3697C29.0468 67.2013 28.5861 67.0135 28.1124 66.8386C27.2817 66.5278 26.4575 66.2105 25.6204 65.9126C25.5166 65.9709 25.4192 66.0356 25.3154 66.0939C25.0234 66.2623 24.7378 66.4371 24.4458 66.6055C23.8358 66.9617 23.2323 67.3243 22.7196 67.6546C22.0577 68.095 21.3828 68.5224 20.7338 68.9822C20.0459 69.4679 19.3905 69.986 18.7221 70.4976C18.0732 70.9962 17.4177 71.4819 16.7817 71.9935C16.1263 72.5245 15.4903 73.0621 14.8414 73.5931C13.5565 74.6487 12.1742 75.5942 10.6881 76.3454C10.5064 76.436 10.3247 76.5202 10.143 76.6044C9.94186 76.6951 9.70824 76.7598 9.48759 76.7598C9.28642 76.7598 9.09823 76.708 8.9295 76.5785L8.92301 76.6044Z" fill="#b80049" stroke="#b80049" stroke-width="0.3"></path>
<path d="M9.08524 76.2223C8.73481 75.6135 9.29939 74.3961 9.32535 73.6708C9.6044 72.0194 9.83153 70.3615 10.0392 68.7037C10.448 64.98 10.9282 61.2628 12.1483 57.6945C11.8303 57.293 12.5506 56.5223 12.927 56.9951C13.258 57.552 12.0834 60.2396 11.9731 61.1332C10.9088 65.8672 10.792 70.7566 9.77961 75.5035C11.7265 74.6033 13.4267 73.2822 15.0555 71.9093C18.177 69.3189 21.4606 66.9163 25.0104 64.9282C25.6399 64.4101 26.3861 65.0447 27.0416 65.2066C28.1448 65.6146 29.2415 66.042 30.3447 66.4436C33.8101 67.7323 37.4637 68.6454 41.1821 68.6065C43.5637 68.5612 45.9584 68.3022 48.2751 67.7193C48.8332 67.5639 49.3588 67.3372 49.878 67.0847C50.0662 66.994 50.3063 67.1106 50.3842 67.2984C50.4685 67.5056 50.3647 67.7128 50.17 67.8035C46.5294 69.3966 42.0063 69.5455 38.0866 69.2153C33.7192 68.7231 29.6503 66.9875 25.562 65.4916C22.0317 67.4603 18.761 69.837 15.6461 72.4144C14.7441 73.1591 10.0067 77.0965 9.07226 76.2093L9.08524 76.2223Z" fill="#b80049" stroke="#b80049" stroke-width="0.3"></path>
<path d="M112.566 77.8349C112.339 77.5629 112.313 77.142 112.514 76.8506C112.599 76.734 112.709 76.6434 112.832 76.5915C113.014 76.3908 113.189 76.1836 113.377 75.9893C113.617 75.7302 113.864 75.4712 114.111 75.2186C114.636 74.6747 115.188 74.1566 115.727 73.6255C116.758 72.6218 117.699 71.5273 118.543 70.4976C119.289 69.5586 120.023 68.6067 120.659 67.5899C120.886 67.1819 121.087 66.774 121.282 66.353C121.82 65.0643 122.287 63.7432 122.683 62.4027C122.813 61.9234 122.943 61.4377 123.04 60.952C123.144 60.4664 123.222 59.9742 123.293 59.4885C123.332 59.0999 123.371 58.7114 123.397 58.3163C123.423 57.9407 123.43 57.5586 123.436 57.183C123.436 56.2893 123.417 55.3957 123.378 54.502C123.345 53.6407 123.261 52.7858 123.163 51.9245C122.975 50.4933 122.761 49.0686 122.437 47.6633C122.294 47.1193 122.138 46.5883 121.969 46.0573C121.788 45.5003 121.58 44.9564 121.372 44.4124C121.223 44.0433 121.067 43.6741 120.905 43.3115C120.743 42.9488 120.548 42.5991 120.367 42.2429C120.133 41.8285 119.899 41.4075 119.653 40.9995C119.51 40.7664 119.361 40.5333 119.211 40.3066C119.075 40.0994 118.926 39.9051 118.842 39.7885C118.465 39.3158 118.076 38.8625 117.673 38.4156C117.291 37.9882 116.895 37.5737 116.505 37.1528C115.74 36.3692 114.948 35.6115 114.137 34.8668C113.721 34.4847 113.306 34.1091 112.884 33.74C112.475 33.3838 112.054 33.047 111.632 32.7103C111.028 32.2375 110.418 31.7648 109.789 31.3244C109.419 31.0654 109.049 30.8128 108.673 30.5667C108.38 30.3789 108.082 30.2041 107.783 30.0227C107.232 29.7184 106.687 29.4205 106.129 29.1355C105.564 28.8441 104.98 28.5916 104.402 28.339C103.838 28.1059 103.267 27.8792 102.696 27.659C102.118 27.4388 101.521 27.264 100.931 27.0826C100.353 26.9272 99.7755 26.7912 99.1914 26.6552C98.6203 26.5257 98.0428 26.435 97.4652 26.3379C97.1927 26.3055 96.9266 26.2732 96.654 26.2408C96.375 26.2084 96.0959 26.2019 95.8169 26.176C95.3172 26.1372 94.8175 26.1436 94.3113 26.1372C92.371 26.1631 90.4306 26.2926 88.5033 26.4998C87.6661 26.6034 86.829 26.707 85.9983 26.8301C85.1612 26.9531 84.3305 27.1086 83.5064 27.2705C81.8646 27.5878 80.2227 27.8986 78.5939 28.2678C78.3862 28.3131 78.185 28.3649 77.9774 28.4167C76.7574 28.7405 75.5633 29.1226 74.3887 29.5759C73.8176 29.809 73.253 30.0551 72.6885 30.3206C72.1109 30.5926 71.5463 30.8905 70.9817 31.1884C69.6773 31.9137 68.3989 32.6714 67.1465 33.4809C66.5235 33.8824 65.907 34.3034 65.2905 34.7178C64.6999 35.1129 64.1094 35.5079 63.5383 35.9224C63.428 36.0195 63.2917 36.1037 63.1684 36.1879C62.7531 36.5052 62.3378 36.8225 61.9354 37.1528C61.5331 37.4831 61.1502 37.8393 60.7673 38.1954C59.8653 39.0697 59.0022 39.9828 58.1066 40.8571C57.6394 41.3169 57.1592 41.7572 56.7049 42.2235C56.2701 42.6703 55.8678 43.1431 55.4719 43.6288C54.5504 44.8204 53.6873 46.0443 52.8956 47.3266C52.0455 48.7513 51.2408 50.2149 50.5659 51.7238C50.4491 52.0022 50.3323 52.2872 50.2349 52.5721C50.1376 52.8506 50.0467 53.1355 49.9689 53.414C49.8196 53.9904 49.6963 54.5603 49.599 55.1496C49.4692 56.0886 49.4043 57.0276 49.3848 57.9796C49.3848 58.5106 49.3848 59.0481 49.4043 59.5791C49.4237 60.1425 49.4692 60.6995 49.5341 61.2629C49.6119 61.8393 49.7093 62.4027 49.8456 62.9661C50.0857 63.8533 50.3777 64.7211 50.6827 65.5889C50.819 65.9774 50.9617 66.366 51.098 66.7545C51.2083 67.0719 51.3316 67.3956 51.3965 67.7324C51.4809 68.1469 51.1824 68.5613 50.7671 68.639C50.3452 68.7168 49.9429 68.4318 49.8585 68.0109C49.8585 67.9785 49.8456 67.9526 49.8391 67.9202C49.7677 67.6612 49.6768 67.4151 49.586 67.1625C49.4562 66.7999 49.3264 66.4437 49.1966 66.081C48.924 65.3169 48.671 64.5397 48.4373 63.7561C47.9766 62.1954 47.8403 60.5441 47.8208 58.9186C47.8144 58.1026 47.8208 57.2931 47.8792 56.4771C47.9377 55.6353 48.0545 54.8063 48.2167 53.9774C48.3724 53.1809 48.6126 52.3973 48.9111 51.6461C49.2226 50.8625 49.5925 50.1048 49.9818 49.36C50.7411 47.89 51.5717 46.4588 52.4868 45.0794C52.9345 44.4124 53.4083 43.7648 53.8885 43.1301C54.3817 42.4761 54.9138 41.8544 55.4719 41.2586C56.0105 40.6822 56.6011 40.1512 57.1657 39.6007C57.7108 39.0632 58.2429 38.5128 58.7815 37.9688C59.3331 37.4054 59.9042 36.8614 60.4883 36.3368C61.0399 35.8447 61.6304 35.3849 62.2274 34.9445C62.2274 34.9445 62.2339 34.938 62.2404 34.9315C62.3378 34.8409 62.4546 34.7696 62.5584 34.6984C62.5714 34.6919 62.5779 34.6855 62.5909 34.6725C62.5909 34.6725 62.6038 34.666 62.6103 34.6595C63.2398 34.2062 63.8823 33.7723 64.5247 33.3384C65.2515 32.8463 65.9848 32.3606 66.7246 31.8814C67.3995 31.4475 68.0939 31.0395 68.7818 30.638C69.5281 30.2041 70.2809 29.7767 71.0531 29.3816C72.5392 28.611 74.0837 27.9699 75.6801 27.4518C77.296 26.9272 78.9573 26.571 80.6186 26.2343C82.2734 25.8975 83.9282 25.5802 85.596 25.3082C86.4461 25.1658 87.3092 25.0686 88.1658 24.965C88.9965 24.8679 89.8336 24.7901 90.6708 24.7254C91.5209 24.6606 92.3775 24.6218 93.2276 24.5894C94.0842 24.557 94.9343 24.5764 95.7909 24.6088C96.6346 24.6412 97.4717 24.7513 98.3088 24.8873C99.1135 25.0168 99.9053 25.1981 100.69 25.4054C101.158 25.5284 101.618 25.6579 102.079 25.8004C102.456 25.917 102.819 26.0465 103.189 26.176C103.559 26.2991 103.916 26.448 104.279 26.5969C104.72 26.7783 105.162 26.9661 105.597 27.1604C106.33 27.4842 107.057 27.8339 107.758 28.2224C108.16 28.4491 108.562 28.6693 108.952 28.9089C109.321 29.1291 109.678 29.3622 110.042 29.5953C110.392 29.822 110.723 30.0746 111.054 30.3206C111.366 30.5538 111.684 30.7869 111.989 31.0265C112.696 31.577 113.397 32.1339 114.072 32.7168C114.695 33.2543 115.298 33.8241 115.902 34.3876C116.512 34.951 117.102 35.5338 117.673 36.1361C118.822 37.36 120.003 38.5775 120.873 40.0217C121.32 40.7599 121.749 41.5111 122.132 42.2883C122.515 43.0783 122.839 43.8878 123.138 44.7168C123.423 45.5003 123.676 46.2969 123.884 47.0999C124.091 47.8965 124.241 48.7124 124.371 49.5284C124.63 51.1409 124.851 52.7664 124.916 54.3983C124.981 56.0821 125.019 57.7594 124.838 59.4367C124.656 61.101 124.215 62.7329 123.676 64.3131C123.417 65.0708 123.15 65.8349 122.839 66.5732C122.515 67.3438 122.158 68.108 121.69 68.8074C120.756 70.2062 119.705 71.5209 118.601 72.7837C118.121 73.3341 117.621 73.8716 117.109 74.3897C116.564 74.9402 115.999 75.4777 115.448 76.0281C114.948 76.5268 114.468 77.0449 113.994 77.5694C113.845 77.7378 113.695 77.9321 113.488 78.0227C113.377 78.0746 113.254 78.1005 113.137 78.1005C112.91 78.1005 112.696 78.0098 112.54 77.822L112.566 77.8349Z" fill="#b80049" stroke="#b80049" stroke-width="0.3"></path>
<path d="M113.144 77.7247C112.832 77.6988 112.664 77.3167 112.839 77.0706C112.891 76.9929 112.975 76.9411 113.059 76.9152C115.727 74.0528 118.679 71.4235 120.795 68.0949C123.215 63.8661 124.195 58.7954 123.754 53.9772C123.43 48.9195 122.248 43.7905 119.231 39.6394C115.227 34.8407 110.386 30.4759 104.591 27.9891C97.4522 24.6216 89.3664 25.6837 81.897 27.1796C75.8359 28.0474 70.2809 30.6961 65.3229 34.219C62.5195 35.9546 60.1119 38.1823 57.8536 40.5655C54.1091 44.1013 50.7216 49.185 49.3783 54.1715C48.3984 59.2875 49.2226 63.0371 51.0137 67.8035C51.137 68.2827 50.3193 68.4511 50.2479 67.9395C49.7872 66.3658 49.1187 64.8504 48.7164 63.2573C48.1388 60.9195 48.1518 58.4651 48.314 56.0754C48.7488 50.8364 52.6231 44.9303 56.1533 41.1289C57.9639 39.4322 59.5927 37.5412 61.5266 35.9805C64.7973 33.5002 68.2691 31.2206 71.9422 29.375C75.7061 27.4775 79.8853 26.7522 83.9931 25.9751C90.1062 24.9389 96.5697 24.2071 102.521 26.3507C108.192 28.2093 113.007 31.8876 117.128 36.11C121.483 40.151 123.754 45.8822 124.319 51.7106C125.117 57.4354 124.39 63.4322 121.457 68.4834C119.426 71.6761 116.648 74.273 114.033 76.967C113.754 77.2195 113.546 77.6923 113.137 77.7117L113.144 77.7247Z" fill="#b80049" stroke="#b80049" stroke-width="0.3"></path>
<path d="M108.88 95.8705C108.711 95.7734 108.562 95.6504 108.406 95.5338C107.998 95.21 107.582 94.8862 107.18 94.5494C106.382 93.8824 105.603 93.1895 104.792 92.5419C103.87 91.823 102.936 91.1236 101.995 90.4372C101.508 90.081 101.021 89.7378 100.515 89.401C100.055 89.0967 99.5873 88.8182 99.1135 88.5332C98.1207 87.9439 97.1148 87.3676 96.057 86.8819C95.9986 86.856 95.9337 86.8301 95.8753 86.8106C95.5768 86.8883 95.2783 86.992 94.9862 87.0891C94.6163 87.2121 94.2464 87.3417 93.8701 87.4712C93.1497 87.7173 92.4164 87.9439 91.6766 88.1382C90.9044 88.3454 90.1192 88.5009 89.3339 88.6369C88.5163 88.7793 87.7051 88.8829 86.8744 88.9283C86.0827 88.9736 85.291 89.0125 84.4993 89.0254C83.6946 89.0384 82.8899 89.0254 82.0852 89.006C80.5472 88.9671 79.0157 88.8765 77.4972 88.6692C77.4712 88.6692 77.4452 88.6692 77.4193 88.6563C77.3998 88.6563 77.3803 88.6563 77.3609 88.6498C77.283 88.6369 77.1986 88.6304 77.1208 88.6174C77.0883 88.6174 77.0559 88.6045 77.0234 88.6045C77.004 88.6045 76.9845 88.6045 76.965 88.598C76.9326 88.598 76.9001 88.585 76.8612 88.585L76.4588 88.5203C76.2642 88.4879 76.076 88.4555 75.8813 88.4167C75.4465 88.3325 75.0182 88.2483 74.5834 88.1512C73.7787 87.9698 72.9805 87.7626 72.1888 87.5424C71.3776 87.3158 70.5664 87.0891 69.7617 86.8301C68.9635 86.571 68.1718 86.2926 67.3866 86.0011C66.6208 85.7162 65.868 85.3989 65.1217 85.0686C64.3625 84.7318 63.6162 84.3692 62.8959 83.9482C62.1301 83.5014 61.3838 83.0416 60.657 82.5365C59.9691 82.0573 59.3331 81.5133 58.7231 80.9434C57.5291 79.823 56.4583 78.5667 55.4589 77.2715C55.0112 76.6951 54.5829 76.1058 54.2 75.5683C54.1805 75.5424 54.161 75.5165 54.1481 75.4971C53.6679 74.843 53.1941 74.1825 52.7334 73.5154C52.2661 72.8355 51.8573 72.1296 51.4679 71.4043C51.2732 71.0546 51.0915 70.6919 50.9228 70.3292C50.7606 69.9731 50.6113 69.6104 50.4491 69.2542C50.2868 68.8981 50.1246 68.5419 49.9494 68.1922C49.7872 67.849 49.6379 67.4992 49.4951 67.1495C49.3199 66.7157 49.1707 66.2688 49.0149 65.8284C48.8332 65.3686 48.6255 64.9283 48.4244 64.475C48.3724 64.3519 48.3205 64.2289 48.2686 64.1058C48.1907 63.9115 48.1064 63.7173 48.0869 63.5036C48.0545 63.238 48.1194 63.0114 48.2946 62.8106C48.5736 62.4868 49.0863 62.4804 49.3978 62.7588C49.5665 62.9143 49.6444 63.115 49.6444 63.3222C49.6574 63.3546 49.6639 63.387 49.6768 63.4259C49.8715 63.9116 50.1051 64.3778 50.2998 64.857C50.501 65.3427 50.6632 65.8414 50.8514 66.3336C50.9877 66.6768 51.1175 67.0135 51.2732 67.3503C51.442 67.7065 51.6107 68.0627 51.7794 68.4188C51.9481 68.788 52.1039 69.1636 52.2661 69.5392C52.4219 69.8954 52.5971 70.2386 52.7788 70.5818C53.1033 71.1711 53.4407 71.754 53.7976 72.3239C54.161 72.8937 54.5569 73.4377 54.9528 73.9817C55.2772 74.4285 55.6082 74.8754 55.9327 75.3222C56.8672 76.5915 57.8471 77.822 58.9308 78.9682C59.5213 79.577 60.1314 80.1598 60.7868 80.7038C61.1567 80.9887 61.5331 81.2672 61.916 81.5327C62.3248 81.8176 62.7466 82.0702 63.1684 82.3292C63.6292 82.5948 64.0964 82.8538 64.5701 83.1064C65.0309 83.346 65.5046 83.5597 65.9848 83.7669C66.9842 84.1943 67.9836 84.5958 69.0089 84.952C70.1251 85.3406 71.2478 85.6838 72.2926 85.9752C73.0973 86.2019 73.9085 86.4091 74.7197 86.6034C75.5438 86.7977 76.3745 86.9466 77.2116 87.0826C77.2506 87.0826 77.296 87.0956 77.3349 87.1021C77.3479 87.1021 77.3674 87.102 77.3803 87.1085L77.4647 87.1215C77.5231 87.128 77.5815 87.1344 77.6399 87.1474C77.7827 87.1539 77.9255 87.1862 78.0617 87.2057C78.3992 87.251 78.7301 87.2834 79.0676 87.3158C80.3395 87.4388 81.6115 87.4712 82.8899 87.5036C84.5382 87.523 86.1865 87.4841 87.8219 87.3222C88.8018 87.1927 89.7752 87.0243 90.7357 86.8041C91.4495 86.6228 92.1633 86.4221 92.8642 86.1889C93.604 85.9428 94.3438 85.6773 95.0901 85.4442C95.4405 85.3341 95.7974 85.224 96.1608 85.3082C96.3815 85.36 96.5956 85.4571 96.7968 85.5543C96.985 85.6385 97.1732 85.7291 97.3614 85.8263C98.0752 86.176 98.7696 86.571 99.451 86.979C100.191 87.4194 100.918 87.8597 101.638 88.3325C102.306 88.7729 102.942 89.2586 103.591 89.7378C104.26 90.23 104.928 90.7351 105.584 91.2467C106.239 91.7583 106.875 92.3087 107.504 92.8462C107.952 93.2283 108.393 93.6039 108.848 93.9666C108.913 93.7076 108.984 93.4485 109.055 93.1895C109.146 92.8592 109.244 92.5289 109.321 92.1986C109.393 91.8943 109.451 91.5834 109.503 91.2726C109.594 90.476 109.639 89.673 109.724 88.8765C109.815 88.054 109.912 87.2251 110.029 86.4091C110.146 85.5931 110.269 84.7772 110.405 83.9612C110.47 83.5532 110.548 83.1517 110.632 82.7502C110.717 82.3552 110.808 81.9601 110.872 81.5586C110.957 81.0664 111.028 80.5743 111.106 80.0821C111.164 79.6676 111.216 79.2532 111.301 78.8387C111.372 78.4631 111.463 78.0875 111.56 77.7184C111.684 77.2262 111.846 76.5462 112.365 76.326C112.754 76.1576 113.215 76.3131 113.397 76.7081C113.54 77.0125 113.455 77.3881 113.215 77.6083C113.183 77.6989 113.15 77.7896 113.124 77.8802C112.969 78.4566 112.839 79.0394 112.741 79.6288C112.586 80.7103 112.436 81.7917 112.203 82.8603C111.969 83.9482 111.807 85.0492 111.638 86.1501C111.521 86.9725 111.424 87.795 111.32 88.6239C111.275 89.0254 111.229 89.4269 111.197 89.8284C111.164 90.2235 111.145 90.625 111.1 91.02C111.054 91.441 110.989 91.8619 110.905 92.2764C110.827 92.6714 110.704 93.06 110.593 93.442C110.49 93.8112 110.392 94.1868 110.301 94.5559C110.256 94.7437 110.211 94.925 110.172 95.1128C110.113 95.4237 110.022 95.7216 109.737 95.9029C109.601 95.9871 109.451 96.026 109.302 96.026C109.146 96.026 108.984 95.9806 108.841 95.8964L108.88 95.8705Z" fill="#b80049" stroke="#b80049" stroke-width="0.3"></path>
<path d="M108.692 95.2618C104.688 91.9914 100.703 88.4426 95.8883 86.4091C93.0005 87.3417 90.0997 88.3584 87.0367 88.5268C78.795 89.1549 70.3717 87.4582 63.0776 83.5791C58.6193 81.2024 55.6536 76.9995 52.8567 72.9391C51.4614 70.7437 50.4166 68.3282 49.4951 65.8997C49.3524 65.1614 48.2102 63.6266 48.6191 63.0567C48.8657 62.7847 49.3459 63.0049 49.294 63.3611C49.6768 64.4037 50.2025 65.3946 50.527 66.4566C51.3381 68.3541 52.1428 70.271 53.2201 72.0389C55.6277 75.6007 58.1326 79.305 61.7018 81.8112C63.9017 83.3136 66.3483 84.3886 68.8532 85.2758C75.2907 87.6072 82.3383 88.4814 89.1263 87.4971C90.6578 87.2445 92.1568 86.8495 93.617 86.3314C94.4801 86.1371 95.434 85.4572 96.3101 85.7162C101.112 87.8403 105.136 91.292 109.133 94.6142C109.438 93.2866 109.97 91.8554 110.022 90.502C110.256 87.6266 110.632 84.7513 111.242 81.9277C111.586 80.6779 111.606 77.3039 112.618 76.6304C112.813 76.5462 113.046 76.7016 113.105 76.883C113.202 77.1614 112.923 77.278 112.865 77.5111C112.43 78.897 112.307 80.3476 112.067 81.7659C111.742 83.346 111.45 84.9326 111.236 86.5257C110.846 89.142 110.859 91.8101 110.003 94.3357C109.815 95.1582 109.75 96.149 108.711 95.2489L108.692 95.2618Z" fill="#b80049" stroke="#b80049" stroke-width="0.3"></path>
<path d="M111.787 77.2067C111.774 76.9994 111.833 76.7728 111.982 76.6174C112.131 76.4555 112.313 76.3259 112.495 76.1964C112.852 75.9503 113.202 75.6978 113.546 75.4452C113.884 75.1926 114.227 74.9466 114.565 74.6875C114.76 74.5256 114.948 74.3572 115.155 74.2018C115.493 73.9493 115.999 74.0464 116.239 74.3831C116.492 74.7328 116.395 75.2121 116.058 75.4646C116.012 75.497 115.96 75.5359 115.915 75.5747C115.694 75.7625 115.473 75.9503 115.24 76.1317C114.993 76.3195 114.74 76.5008 114.494 76.6821C114.253 76.857 114.013 77.0383 113.767 77.2131C113.579 77.3427 113.384 77.4722 113.202 77.6082C113.092 77.7571 112.93 77.8543 112.748 77.8996C112.69 77.9126 112.631 77.9255 112.573 77.9255C112.183 77.9255 111.82 77.5952 111.794 77.2002L111.787 77.2067Z" fill="#b80049" stroke="#b80049" stroke-width="0.3"></path>
<path d="M112.359 77.4723C111.956 77.1549 112.3 76.7729 112.631 76.5786C113.183 76.1965 113.721 75.8015 114.253 75.4064C114.63 75.1409 114.974 74.8365 115.331 74.5451C115.499 74.4156 115.727 74.3962 115.882 74.5645C116.012 74.707 116.032 74.9855 115.863 75.115C115.032 75.8144 114.026 76.5397 113.17 77.142C112.917 77.2845 112.689 77.6989 112.359 77.4723Z" fill="#b80049" stroke="#b80049" stroke-width="0.3"></path>
<path d="M111.826 78.994C111.515 78.709 111.495 78.2039 111.781 77.893C111.794 77.8801 111.8 77.8671 111.813 77.8607C111.898 77.7441 111.976 77.621 112.067 77.5045C112.177 77.362 112.281 77.2195 112.378 77.0706C112.495 76.8893 112.605 76.7144 112.735 76.5396C113.04 76.151 113.287 75.7041 113.702 75.4127C114.046 75.1666 114.558 75.3091 114.779 75.6523C114.889 75.8272 114.928 76.0474 114.883 76.2481C114.837 76.4424 114.721 76.5914 114.61 76.6755C114.591 76.6885 114.578 76.7015 114.558 76.7144C114.539 76.7338 114.52 76.7597 114.5 76.7792C114.299 77.0317 114.117 77.2972 113.922 77.5498C113.799 77.7117 113.702 77.893 113.585 78.0614C113.494 78.1974 113.39 78.3269 113.293 78.4564C113.17 78.6183 113.066 78.7867 112.93 78.9421C112.78 79.104 112.566 79.1882 112.352 79.1882C112.164 79.1882 111.976 79.1235 111.826 78.9875V78.994Z" fill="#b80049" stroke="#b80049" stroke-width="0.3"></path>
<path d="M112.092 78.7091C111.937 78.5666 111.924 78.314 112.073 78.1586C112.268 77.9384 112.384 77.7441 112.553 77.5175C112.982 76.9087 113.351 76.2352 113.916 75.7431C114.344 75.4711 114.76 76.1187 114.331 76.3971C113.799 76.9541 113.429 77.647 112.962 78.2493C112.78 78.5407 112.469 79.0199 112.092 78.7026V78.7091Z" fill="#b80049" stroke="#b80049" stroke-width="0.3"></path>
</svg>